<?xml version="1.0" encoding="UTF-8" standalone="no"?>
<!DOCTYPE svg PUBLIC "-//W3C//DTD SVG 1.1//EN" "http://www.w3.org/Graphics/SVG/1.1/DTD/svg11.dtd">
<svg width="100%" height="100%" viewBox="0 0 835 63" version="1.1" xmlns="http://www.w3.org/2000/svg" xmlns:xlink="http://www.w3.org/1999/xlink" xml:space="preserve" xmlns:serif="http://www.serif.com/" style="fill-rule:evenodd;clip-rule:evenodd;stroke-linecap:round;stroke-linejoin:round;stroke-miterlimit:10;">
    <g>
        <path d="M824.491,47.149C823.341,48.267 821.819,49.256 819.925,50.109C818.032,50.968 815.965,51.637 813.725,52.12C811.485,52.611 809.339,52.853 807.277,52.853C806.432,52.853 805.627,52.792 804.869,52.675C804.115,52.557 803.187,52.365 802.099,52.104C801.067,51.864 800.2,51.691 799.491,51.568C798.776,51.453 798.011,51.389 797.195,51.389C796.648,51.389 795.907,51.536 794.968,51.827C794.061,52.115 793.352,52.261 792.837,52.261C792.533,52.261 792.325,52.197 792.221,52.083C792.115,51.963 792.064,51.787 792.064,51.552C792.064,51.496 792.075,51.419 792.109,51.315L792.109,50.995C792.2,50.157 792.517,49.208 793.061,48.155C793.605,47.107 794.288,46.077 795.104,45.077C795.923,44.08 796.731,43.248 797.536,42.589C798.339,41.931 798.995,41.549 799.512,41.448C799.664,41.448 799.765,41.528 799.829,41.683C799.888,41.84 799.917,42.011 799.917,42.2C799.917,42.275 799.904,42.445 799.877,42.709C799.845,42.893 799.832,43.037 799.832,43.139C799.832,44.245 800.064,45.269 800.531,46.203C801,47.136 801.621,47.925 802.395,48.568C803.168,49.219 804.005,49.717 804.912,50.069C805.824,50.427 806.717,50.603 807.595,50.603C809.653,50.603 811.395,50.125 812.816,49.184C814.24,48.237 814.952,46.904 814.952,45.195C814.952,44.539 814.784,43.869 814.453,43.203C814.12,42.531 813.635,41.907 813.003,41.325C812.365,40.747 811.611,40.261 810.728,39.867C809.851,39.472 808.896,39.208 807.864,39.077C805.597,38.816 803.635,38.531 801.987,38.229C800.333,37.925 798.765,37.496 797.288,36.947C795.8,36.392 794.608,35.677 793.701,34.795C792.789,33.912 792.336,32.827 792.336,31.536C792.336,30.352 792.715,29.245 793.469,28.203C794.227,27.163 795.301,26.248 796.696,25.464C798.088,24.669 799.715,24.061 801.576,23.627C803.437,23.187 805.429,22.973 807.549,22.973C808.912,22.973 810.837,23.157 813.317,23.528C815.651,23.867 817.448,24.037 818.723,24.037C819.267,24.037 820.024,23.904 820.992,23.645C822.112,23.357 822.989,23.211 823.627,23.211C823.899,23.211 824.035,23.368 824.035,23.683C824.035,24.317 823.877,25.027 823.557,25.819C823.24,26.603 822.8,27.357 822.24,28.085C821.68,28.808 821.069,29.395 820.403,29.84C819.733,30.291 819.067,30.509 818.403,30.509C817.616,30.509 816.872,30.296 816.179,29.861C815.48,29.424 814.603,28.776 813.544,27.907L812.816,27.275C811.936,26.563 811.091,25.987 810.275,25.539C809.456,25.093 808.747,24.864 808.141,24.864C806.869,24.864 805.731,25.197 804.731,25.856C803.736,26.515 803.232,27.501 803.232,28.813C803.232,29.549 803.507,30.181 804.051,30.709C804.597,31.232 805.331,31.677 806.256,32.035C807.179,32.389 808.192,32.683 809.299,32.917C810.403,33.155 811.803,33.419 813.499,33.707C815.405,34.051 816.816,34.317 817.723,34.499C820.296,35.051 822.355,36.131 823.899,37.733C825.443,39.341 826.213,41.312 826.213,43.656C826.213,44.864 825.64,46.029 824.491,47.149M755.131,32.035C756.205,30.096 757.704,28.448 759.629,27.077C761.547,25.709 763.747,24.656 766.211,23.92C768.68,23.187 771.259,22.813 773.955,22.813C774.501,22.813 775.347,22.853 776.499,22.936C777.56,23.016 778.347,23.053 778.861,23.053C779.435,23.053 779.979,22.968 780.491,22.795C781.011,22.624 781.6,22.368 782.264,22.024C782.992,21.683 783.477,21.515 783.72,21.515C784.051,21.515 784.317,21.696 784.515,22.067C784.709,22.435 784.808,22.885 784.808,23.405C784.808,23.512 784.795,23.645 784.763,23.803C784.733,23.957 784.672,24.341 784.581,24.947C784.429,25.629 784.355,26.024 784.355,26.131C784.355,26.712 784.312,27.237 784.221,27.709C784.125,28.181 783.931,28.645 783.629,29.093C783.325,29.536 782.864,29.904 782.24,30.179C781.621,30.453 780.813,30.592 779.813,30.592C778.907,30.592 778.125,30.421 777.475,30.077C776.824,29.736 776.088,29.237 775.275,28.576C774.333,27.816 773.477,27.237 772.709,26.84C771.936,26.448 770.96,26.248 769.776,26.248C767.264,26.248 765.221,27.072 763.645,28.715C762.072,30.36 761.285,32.459 761.285,35.011C761.285,36.803 761.603,38.419 762.237,39.867C762.872,41.312 763.779,42.547 764.963,43.56C766.144,44.573 767.536,45.339 769.141,45.867C770.747,46.389 772.501,46.659 774.411,46.659C775.32,46.659 776.301,46.565 777.363,46.4C778.421,46.229 779.507,45.987 780.611,45.669C781.715,45.355 782.739,44.997 783.675,44.587C784.616,44.179 785.416,43.757 786.08,43.341C786.203,43.256 786.4,43.104 786.672,42.867C786.976,42.629 787.213,42.445 787.397,42.315C787.579,42.179 787.731,42.115 787.853,42.115C788.064,42.115 788.171,42.315 788.171,42.709C788.171,44.184 787.672,45.584 786.669,46.915C785.672,48.24 784.309,49.419 782.584,50.44C780.861,51.469 778.947,52.267 776.859,52.832C774.771,53.392 772.699,53.68 770.64,53.68C767.979,53.68 765.568,53.285 763.419,52.499C761.269,51.704 759.461,50.603 757.992,49.184C756.52,47.76 755.411,46.131 754.656,44.285C753.899,42.445 753.52,40.488 753.52,38.405C753.52,36.088 754.056,33.965 755.131,32.035M749.171,27L749.171,48.904C749.171,49.432 749.315,49.84 749.603,50.125C749.888,50.419 750.307,50.704 750.853,50.995C751.277,51.237 751.579,51.432 751.763,51.589C751.941,51.747 752.032,51.96 752.032,52.221C752.032,52.64 751.776,52.853 751.259,52.853L737.637,52.853C737.12,52.853 736.864,52.733 736.864,52.499C736.864,52.128 736.984,51.843 737.227,51.632C737.469,51.419 737.835,51.197 738.32,50.955C738.861,50.693 739.28,50.429 739.568,50.171C739.856,49.909 739.997,49.509 739.997,48.987L739.997,27.395C739.997,26.869 739.84,26.464 739.52,26.189C739.2,25.912 738.755,25.645 738.179,25.381C737.728,25.197 737.389,25.027 737.181,24.864C736.968,24.712 736.864,24.499 736.864,24.235C736.864,23.763 737.12,23.528 737.637,23.528L751.669,23.528C752.093,23.528 752.304,23.709 752.304,24.077C752.304,24.392 752.187,24.64 751.941,24.808C751.699,24.979 751.336,25.163 750.853,25.344C750.307,25.584 749.888,25.8 749.603,26.011C749.315,26.221 749.171,26.552 749.171,27ZM732.971,47.149C731.819,48.267 730.299,49.256 728.405,50.109C726.517,50.968 724.448,51.637 722.208,52.12C719.968,52.611 717.819,52.853 715.76,52.853C714.912,52.853 714.109,52.792 713.349,52.675C712.595,52.557 711.669,52.365 710.581,52.104C709.552,51.864 708.683,51.691 707.968,51.568C707.259,51.453 706.493,51.389 705.675,51.389C705.133,51.389 704.389,51.536 703.453,51.827C702.547,52.115 701.832,52.261 701.32,52.261C701.016,52.261 700.811,52.197 700.704,52.083C700.6,51.963 700.547,51.787 700.547,51.552C700.547,51.496 700.56,51.419 700.592,51.315L700.592,50.995C700.683,50.157 701,49.208 701.547,48.155C702.088,47.107 702.768,46.077 703.587,45.077C704.405,44.08 705.213,43.248 706.019,42.589C706.819,41.931 707.48,41.549 707.992,41.448C708.147,41.448 708.248,41.528 708.309,41.683C708.371,41.84 708.4,42.011 708.4,42.2C708.4,42.275 708.387,42.445 708.357,42.709C708.328,42.893 708.309,43.037 708.309,43.139C708.309,44.245 708.544,45.269 709.016,46.203C709.485,47.136 710.104,47.925 710.877,48.568C711.648,49.219 712.488,49.717 713.397,50.069C714.304,50.427 715.197,50.603 716.077,50.603C718.136,50.603 719.877,50.125 721.299,49.184C722.723,48.237 723.435,46.904 723.435,45.195C723.435,44.539 723.269,43.869 722.936,43.203C722.603,42.531 722.117,41.907 721.48,41.325C720.845,40.747 720.088,40.261 719.211,39.867C718.333,39.472 717.379,39.208 716.349,39.077C714.08,38.816 712.117,38.531 710.467,38.229C708.819,37.925 707.251,37.496 705.771,36.947C704.285,36.392 703.091,35.677 702.179,34.795C701.269,33.912 700.819,32.827 700.819,31.536C700.819,30.352 701.197,29.245 701.955,28.203C702.709,27.163 703.784,26.248 705.179,25.464C706.573,24.669 708.197,24.061 710.059,23.627C711.92,23.187 713.909,22.973 716.029,22.973C717.395,22.973 719.317,23.157 721.8,23.528C724.128,23.867 725.931,24.037 727.203,24.037C727.752,24.037 728.504,23.904 729.475,23.645C730.595,23.357 731.472,23.211 732.112,23.211C732.381,23.211 732.517,23.368 732.517,23.683C732.517,24.317 732.36,25.027 732.04,25.819C731.723,26.603 731.283,27.357 730.723,28.085C730.165,28.808 729.549,29.395 728.885,29.84C728.216,30.291 727.552,30.509 726.888,30.509C726.099,30.509 725.357,30.296 724.661,29.861C723.963,29.424 723.088,28.776 722.027,27.907L721.299,27.275C720.421,26.563 719.573,25.987 718.755,25.539C717.939,25.093 717.227,24.864 716.621,24.864C715.352,24.864 714.216,25.197 713.216,25.856C712.216,26.515 711.717,27.501 711.717,28.813C711.717,29.549 711.989,30.181 712.536,30.709C713.08,31.232 713.813,31.677 714.739,32.035C715.659,32.389 716.675,32.683 717.779,32.917C718.885,33.155 720.283,33.419 721.981,33.707C723.891,34.051 725.296,34.317 726.205,34.499C728.776,35.051 730.837,36.131 732.381,37.733C733.925,39.341 734.693,41.312 734.693,43.656C734.693,44.864 734.12,46.029 732.971,47.149M695.941,47.149C694.792,48.267 693.269,49.256 691.376,50.109C689.483,50.968 687.413,51.637 685.176,52.12C682.939,52.611 680.787,52.853 678.725,52.853C677.88,52.853 677.077,52.792 676.32,52.675C675.563,52.557 674.64,52.365 673.549,52.104C672.52,51.864 671.648,51.691 670.939,51.568C670.229,51.453 669.461,51.389 668.643,51.389C668.101,51.389 667.357,51.536 666.419,51.827C665.512,52.115 664.8,52.261 664.285,52.261C663.984,52.261 663.776,52.197 663.672,52.083C663.565,51.963 663.512,51.787 663.512,51.552C663.512,51.496 663.525,51.419 663.56,51.315L663.56,50.995C663.651,50.157 663.968,49.208 664.512,48.155C665.056,47.107 665.739,46.077 666.557,45.077C667.371,44.08 668.181,43.248 668.987,42.589C669.787,41.931 670.445,41.549 670.963,41.448C671.112,41.448 671.213,41.528 671.277,41.683C671.339,41.84 671.371,42.011 671.371,42.2C671.371,42.275 671.357,42.445 671.325,42.709C671.293,42.893 671.28,43.037 671.28,43.139C671.28,44.245 671.515,45.269 671.984,46.203C672.451,47.136 673.072,47.925 673.845,48.568C674.616,49.219 675.456,49.717 676.365,50.069C677.272,50.427 678.165,50.603 679.045,50.603C681.101,50.603 682.845,50.125 684.267,49.184C685.688,48.237 686.403,46.904 686.403,45.195C686.403,44.539 686.235,43.869 685.904,43.203C685.571,42.531 685.083,41.907 684.453,41.325C683.816,40.747 683.059,40.261 682.179,39.867C681.299,39.472 680.347,39.208 679.317,39.077C677.045,38.816 675.085,38.531 673.437,38.229C671.787,37.925 670.219,37.496 668.736,36.947C667.251,36.392 666.059,35.677 665.149,34.795C664.24,33.912 663.787,32.827 663.787,31.536C663.787,30.352 664.165,29.245 664.92,28.203C665.675,27.163 666.755,26.248 668.144,25.464C669.539,24.669 671.165,24.061 673.027,23.627C674.888,23.187 676.88,22.973 679,22.973C680.363,22.973 682.285,23.157 684.768,23.528C687.099,23.867 688.904,24.037 690.173,24.037C690.717,24.037 691.475,23.904 692.44,23.645C693.56,23.357 694.443,23.211 695.077,23.211C695.349,23.211 695.485,23.368 695.485,23.683C695.485,24.317 695.328,25.027 695.008,25.819C694.688,26.603 694.253,27.357 693.693,28.085C693.133,28.808 692.52,29.395 691.853,29.84C691.184,30.291 690.517,30.509 689.856,30.509C689.069,30.509 688.323,30.296 687.627,29.861C686.931,29.424 686.053,28.776 684.995,27.907L684.267,27.275C683.387,26.563 682.544,25.987 681.725,25.539C680.904,25.093 680.195,24.864 679.592,24.864C678.323,24.864 677.181,25.197 676.184,25.856C675.184,26.515 674.683,27.501 674.683,28.813C674.683,29.549 674.955,30.181 675.501,30.709C676.048,31.232 676.784,31.677 677.707,32.035C678.629,32.389 679.643,32.683 680.747,32.917C681.851,33.155 683.253,33.419 684.949,33.707C686.856,34.051 688.267,34.317 689.173,34.499C691.747,35.051 693.805,36.131 695.349,37.733C696.891,39.341 697.664,41.312 697.664,43.656C697.664,44.864 697.088,46.029 695.941,47.149M634.488,41.131L634.533,41.131L640.163,39.197C640.677,39.037 640.936,38.784 640.936,38.445C640.936,38.288 640.891,38.117 640.803,37.928L638.483,32.96C638.304,32.565 638.107,32.368 637.896,32.368C637.68,32.368 637.44,32.619 637.165,33.115L633.581,39.944L633.395,40.339C633.187,40.707 633.08,40.957 633.08,41.088C633.08,41.299 633.197,41.405 633.44,41.405C633.592,41.405 633.941,41.312 634.488,41.131M656.424,48.904C656.544,49.115 656.733,49.288 656.987,49.419C657.248,49.549 657.664,49.709 658.24,49.893C659.088,50.181 659.747,50.485 660.216,50.8C660.683,51.117 660.92,51.589 660.92,52.221C660.92,52.64 660.616,52.853 660.011,52.853L646.84,52.853C646.565,52.853 646.272,52.845 645.955,52.832C645.635,52.816 645.285,52.792 644.907,52.755C644.528,52.715 644.213,52.651 643.955,52.557C643.701,52.461 643.571,52.336 643.571,52.181C643.571,51.813 643.677,51.525 643.888,51.315C644.099,51.101 644.403,50.88 644.795,50.643C645.189,50.429 645.475,50.235 645.656,50.051C645.837,49.864 645.933,49.629 645.933,49.341C645.933,49.155 645.853,48.893 645.704,48.549L643.704,44.285C643.523,43.861 643.208,43.656 642.752,43.656C642.571,43.656 642.312,43.715 641.979,43.816L631.397,47.208C630.491,47.496 629.875,47.792 629.56,48.096C629.24,48.4 629.08,48.797 629.08,49.301C629.08,49.773 629.195,50.12 629.424,50.344C629.651,50.568 629.976,50.773 630.4,50.955C630.795,51.117 631.08,51.277 631.261,51.453C631.443,51.621 631.533,51.877 631.533,52.221C631.533,52.64 631.232,52.853 630.624,52.853L622.907,52.853C622.237,52.853 621.907,52.605 621.907,52.104C621.907,51.787 622.019,51.525 622.248,51.315C622.475,51.101 622.829,50.867 623.315,50.603C623.859,50.288 624.32,49.984 624.699,49.693C625.075,49.405 625.387,49.024 625.632,48.549C626.357,47.237 627.219,45.648 628.219,43.795C629.221,41.939 630.165,40.168 631.059,38.485C631.952,36.803 632.819,35.117 633.672,33.435C634.515,31.744 635.304,30.141 636.029,28.619C635.819,28.408 635.515,28.141 635.12,27.829C634.728,27.464 634.44,27.179 634.261,26.981C634.077,26.781 633.987,26.563 633.987,26.331C633.987,26.144 634.048,26 634.168,25.891C634.291,25.789 634.472,25.669 634.712,25.539L634.893,25.464C635.168,25.299 635.691,25.069 636.461,24.768C637.235,24.467 638.083,24.163 639.005,23.861C639.928,23.557 640.843,23.301 641.755,23.091C642.661,22.885 643.435,22.776 644.069,22.776C645.069,22.776 645.568,23.067 645.568,23.645L645.568,24.435C645.539,24.829 645.523,25.064 645.523,25.147C645.523,25.592 645.672,26.144 645.979,26.803L656.424,48.904ZM619.757,43.32C619.859,43.411 619.915,43.672 619.915,44.093C619.915,44.616 619.859,45.064 619.757,45.429C619.651,45.8 619.475,46.248 619.232,46.773C618.96,47.379 618.781,47.864 618.688,48.235C618.629,48.603 618.536,49.064 618.416,49.616C618.173,50.987 617.939,51.995 617.715,52.653C617.485,53.312 617.131,53.637 616.643,53.637C616.616,53.637 616.509,53.6 616.328,53.523C615.843,53.283 615.312,53.155 614.739,53.131C613.525,53.048 612.019,52.984 610.221,52.928C608.419,52.877 606.731,52.853 605.155,52.853L591.533,52.853C591.016,52.853 590.76,52.733 590.76,52.499C590.76,52.128 590.877,51.843 591.123,51.632C591.365,51.419 591.731,51.197 592.213,50.955C592.755,50.693 593.173,50.429 593.461,50.171C593.749,49.909 593.891,49.509 593.891,48.987L593.891,27.395C593.891,26.869 593.733,26.464 593.416,26.189C593.096,25.912 592.651,25.645 592.075,25.381C591.621,25.197 591.288,25.027 591.075,24.864C590.864,24.712 590.76,24.499 590.76,24.235C590.76,23.763 591.016,23.528 591.533,23.528L605.565,23.528C605.987,23.528 606.2,23.709 606.2,24.077C606.2,24.392 606.077,24.64 605.837,24.808C605.595,24.979 605.232,25.163 604.747,25.344C604.2,25.584 603.784,25.8 603.496,26.011C603.208,26.221 603.067,26.552 603.067,27L603.067,48.904C603.067,49.723 603.149,50.283 603.315,50.581C603.483,50.885 603.824,51.035 604.336,51.035C605.608,51.035 606.827,50.856 607.992,50.485C609.16,50.112 610.227,49.635 611.195,49.045C612.163,48.453 613.011,47.864 613.739,47.288C614.464,46.709 615.312,45.987 616.283,45.117C617.067,44.405 617.653,43.904 618.032,43.611C618.408,43.331 618.733,43.181 619.008,43.181C619.403,43.181 619.651,43.232 619.757,43.32M540.803,23.107C542.336,20.347 544.48,17.989 547.227,16.032C549.973,14.08 553.104,12.573 556.632,11.52C560.16,10.469 563.848,9.944 567.696,9.944C568.477,9.944 569.683,10 571.328,10.112C572.84,10.221 573.965,10.283 574.701,10.283C575.523,10.283 576.304,10.16 577.04,9.917C577.773,9.672 578.616,9.304 579.565,8.816C580.605,8.325 581.299,8.08 581.645,8.08C582.12,8.08 582.499,8.344 582.779,8.869C583.061,9.397 583.203,10.037 583.203,10.789C583.203,10.939 583.179,11.125 583.136,11.355C583.091,11.576 583.005,12.125 582.877,12.987C582.659,13.963 582.552,14.528 582.552,14.68C582.552,15.504 582.491,16.259 582.357,16.936C582.227,17.611 581.947,18.267 581.515,18.907C581.083,19.547 580.421,20.061 579.533,20.459C578.651,20.856 577.493,21.051 576.061,21.051C574.768,21.051 573.653,20.805 572.723,20.317C571.792,19.827 570.744,19.109 569.576,18.176C568.235,17.083 567.013,16.259 565.912,15.693C564.811,15.128 563.413,14.851 561.725,14.851C558.133,14.851 555.216,16.021 552.965,18.371C550.717,20.723 549.595,23.723 549.595,27.365C549.595,29.923 550.048,32.232 550.957,34.301C551.867,36.373 553.16,38.128 554.848,39.571C556.536,41.021 558.525,42.12 560.816,42.875C563.109,43.621 565.619,43.995 568.344,43.995C569.64,43.995 571.048,43.872 572.557,43.629C574.075,43.387 575.619,43.04 577.2,42.589C578.779,42.139 580.237,41.627 581.579,41.04C582.917,40.459 584.067,39.867 585.019,39.264C585.192,39.152 585.472,38.925 585.861,38.587C586.293,38.251 586.637,37.987 586.901,37.797C587.157,37.608 587.373,37.517 587.549,37.517C587.851,37.517 588.003,37.797 588.003,38.363C588.003,40.467 587.288,42.467 585.861,44.368C584.435,46.264 582.491,47.947 580.021,49.413C577.557,50.88 574.829,52.019 571.848,52.824C568.861,53.632 565.899,54.037 562.957,54.037C559.152,54.037 555.715,53.475 552.645,52.344C549.571,51.219 546.989,49.637 544.891,47.608C542.792,45.576 541.203,43.248 540.12,40.613C539.04,37.987 538.499,35.187 538.499,32.213C538.499,28.907 539.267,25.875 540.803,23.107M519.843,43.32C519.952,43.411 520,43.672 520,44.093C520,44.616 519.952,45.064 519.843,45.429C519.739,45.8 519.563,46.248 519.323,46.773C519.045,47.379 518.867,47.864 518.776,48.235C518.715,48.603 518.627,49.064 518.504,49.616C518.261,50.987 518.027,51.995 517.8,52.653C517.576,53.312 517.219,53.637 516.736,53.637C516.704,53.637 516.595,53.6 516.413,53.523C515.931,53.283 515.397,53.155 514.824,53.131C513.616,53.048 512.109,52.984 510.307,52.928C508.504,52.877 506.819,52.853 505.243,52.853L491.619,52.853C491.104,52.853 490.845,52.733 490.845,52.499C490.845,52.128 490.968,51.843 491.211,51.632C491.451,51.419 491.816,51.197 492.299,50.955C492.843,50.693 493.259,50.429 493.549,50.171C493.835,49.909 493.981,49.509 493.981,48.987L493.981,27.395C493.981,26.869 493.821,26.464 493.501,26.189C493.187,25.912 492.739,25.645 492.163,25.381C491.709,25.197 491.376,25.027 491.16,24.864C490.952,24.712 490.845,24.499 490.845,24.235C490.845,23.763 491.104,23.528 491.619,23.528L505.653,23.528C506.075,23.528 506.288,23.709 506.288,24.077C506.288,24.392 506.165,24.64 505.925,24.808C505.68,24.979 505.32,25.163 504.832,25.344C504.288,25.584 503.872,25.8 503.587,26.011C503.299,26.221 503.152,26.552 503.152,27L503.152,48.904C503.152,49.723 503.24,50.283 503.403,50.581C503.571,50.885 503.909,51.035 504.424,51.035C505.696,51.035 506.915,50.856 508.083,50.485C509.245,50.112 510.317,49.635 511.285,49.045C512.253,48.453 513.101,47.864 513.827,47.288C514.555,46.709 515.397,45.987 516.368,45.117C517.157,44.405 517.739,43.904 518.117,43.611C518.493,43.331 518.824,43.181 519.093,43.181C519.488,43.181 519.739,43.232 519.843,43.32M486.069,33.155C485.477,34.816 484.699,36.373 483.728,37.832C482.76,39.296 481.744,40.624 480.688,41.819C479.627,43.016 478.307,44.421 476.733,46.024L476.552,46.221C476.493,46.304 476.355,46.435 476.141,46.613C475.72,46.984 475.512,47.275 475.512,47.485C475.512,47.563 475.568,47.675 475.693,47.821C475.811,47.963 475.979,48.155 476.192,48.395C476.552,48.763 476.733,48.987 476.733,49.061C476.733,49.355 476.707,49.563 476.645,49.693C476.584,49.829 476.432,49.947 476.192,50.051C476.037,50.101 475.675,50.261 475.101,50.525C474.315,50.893 473.611,51.211 472.989,51.469C472.368,51.733 471.715,51.995 471.037,52.261C470.352,52.525 469.672,52.741 468.992,52.909C468.309,53.083 467.709,53.168 467.197,53.168C466.136,53.168 465.611,52.747 465.611,51.907C465.611,51.747 465.64,51.509 465.701,51.197C465.757,50.88 465.792,50.643 465.792,50.485C465.792,50.352 465.744,50.181 465.651,49.973C465.651,49.947 465.64,49.92 465.611,49.893L462.384,42.115C462.2,41.643 461.973,41.405 461.701,41.405C461.579,41.405 461.213,41.696 460.589,42.275C459.971,42.853 459.288,43.52 458.547,44.285C457.805,45.053 457.168,45.744 456.64,46.36C456.109,46.976 455.843,47.355 455.843,47.485C455.843,47.563 455.907,47.675 456.029,47.821C456.147,47.963 456.315,48.155 456.525,48.395C456.891,48.763 457.072,48.987 457.072,49.061C457.072,49.355 457.04,49.563 456.979,49.693C456.92,49.829 456.768,49.947 456.525,50.051C456.373,50.101 456.011,50.261 455.437,50.525C454.648,50.893 453.944,51.211 453.323,51.469C452.701,51.733 452.053,51.995 451.368,52.261C450.691,52.525 450.008,52.741 449.328,52.909C448.645,53.083 448.045,53.168 447.533,53.168C446.475,53.168 445.944,52.747 445.944,51.907C445.944,51.747 445.971,51.509 446.035,51.197C446.096,50.88 446.125,50.643 446.125,50.485C446.125,50.352 446.08,50.181 445.987,49.973C445.987,49.947 445.971,49.92 445.944,49.893L436.36,26.803C436.147,26.331 435.853,25.947 435.475,25.656C435.099,25.368 434.576,25.051 433.907,24.712C433.304,24.392 432.864,24.125 432.592,23.901C432.317,23.675 432.181,23.381 432.181,23.016C432.181,22.776 432.365,22.656 432.728,22.656L446.76,22.656C447.701,22.656 448.312,22.749 448.6,22.936C448.888,23.117 449.032,23.357 449.032,23.645C449.032,24.013 448.933,24.269 448.736,24.416C448.539,24.557 448.259,24.669 447.896,24.747C447.472,24.853 447.155,24.995 446.941,25.165C446.728,25.336 446.627,25.656 446.627,26.131L446.627,27.04C446.627,27.565 446.715,28.051 446.896,28.504L454.163,44.448C454.467,45.101 454.725,45.429 454.936,45.429C455.24,45.429 455.661,45.101 456.208,44.448C456.749,43.789 457.325,42.968 457.933,41.979C458.539,40.989 459.035,40.045 459.429,39.133C459.824,38.229 460.021,37.539 460.021,37.064C460.021,36.563 459.84,35.907 459.48,35.091L456.029,26.803C455.813,26.331 455.517,25.947 455.139,25.656C454.763,25.368 454.24,25.051 453.576,24.712C452.968,24.392 452.528,24.125 452.259,23.901C451.984,23.675 451.848,23.381 451.848,23.016C451.848,22.776 452.029,22.656 452.392,22.656L466.424,22.656C467.365,22.656 467.976,22.749 468.261,22.936C468.552,23.117 468.696,23.357 468.696,23.645C468.696,24.013 468.6,24.269 468.403,24.416C468.205,24.557 467.923,24.669 467.563,24.747C467.139,24.853 466.819,24.995 466.611,25.165C466.397,25.336 466.291,25.656 466.291,26.131L466.291,27.04C466.291,27.565 466.379,28.051 466.56,28.504L473.829,44.448C474.131,45.101 474.389,45.429 474.6,45.429C474.784,45.429 475.117,45.133 475.6,44.52L475.645,44.485C477.157,42.749 478.339,40.845 479.189,38.779C480.035,36.717 480.459,34.632 480.459,32.525C480.459,30.997 480.171,29.755 479.595,28.795C479.019,27.835 478.157,26.987 477.005,26.248C476.947,26.197 476.915,26.131 476.915,26.053C476.915,25.819 477.187,25.472 477.733,25.008C478.28,24.547 478.968,24.067 479.803,23.568C480.632,23.064 481.445,22.653 482.229,22.323C483.019,21.995 483.624,21.829 484.045,21.829C484.229,21.829 484.365,21.853 484.456,21.909C485.485,22.568 486.157,23.395 486.477,24.392C486.797,25.397 486.955,26.603 486.955,28.024C486.955,29.792 486.656,31.491 486.069,33.155M413.544,41.131L413.589,41.131L419.221,39.197C419.736,39.037 419.992,38.784 419.992,38.445C419.992,38.288 419.947,38.117 419.859,37.928L417.541,32.96C417.357,32.565 417.163,32.368 416.949,32.368C416.736,32.368 416.493,32.619 416.221,33.115L412.635,39.944L412.453,40.339C412.24,40.707 412.136,40.957 412.136,41.088C412.136,41.299 412.256,41.405 412.499,41.405C412.648,41.405 413.003,41.312 413.544,41.131M435.477,48.904C435.6,49.115 435.789,49.288 436.048,49.419C436.304,49.549 436.72,49.709 437.293,49.893C438.144,50.181 438.803,50.485 439.269,50.8C439.744,51.117 439.976,51.589 439.976,52.221C439.976,52.64 439.675,52.853 439.067,52.853L425.896,52.853C425.624,52.853 425.331,52.845 425.011,52.832C424.693,52.816 424.344,52.792 423.965,52.755C423.589,52.715 423.269,52.651 423.013,52.557C422.755,52.461 422.629,52.336 422.629,52.181C422.629,51.813 422.731,51.525 422.944,51.315C423.157,51.101 423.459,50.88 423.853,50.643C424.248,50.429 424.533,50.235 424.717,50.051C424.896,49.864 424.987,49.629 424.987,49.341C424.987,49.155 424.912,48.893 424.763,48.549L422.765,44.285C422.581,43.861 422.264,43.656 421.811,43.656C421.627,43.656 421.371,43.715 421.037,43.816L410.456,47.208C409.549,47.496 408.933,47.792 408.613,48.096C408.299,48.4 408.139,48.797 408.139,49.301C408.139,49.773 408.251,50.12 408.477,50.344C408.709,50.568 409.032,50.773 409.459,50.955C409.848,51.117 410.139,51.277 410.323,51.453C410.501,51.621 410.592,51.877 410.592,52.221C410.592,52.64 410.288,52.853 409.683,52.853L401.963,52.853C401.299,52.853 400.963,52.605 400.963,52.104C400.963,51.787 401.077,51.525 401.304,51.315C401.531,51.101 401.885,50.867 402.373,50.603C402.917,50.288 403.379,49.984 403.757,49.693C404.136,49.405 404.443,49.024 404.688,48.549C405.413,47.237 406.28,45.648 407.275,43.795C408.275,41.939 409.221,40.168 410.115,38.485C411.008,36.803 411.877,35.117 412.725,33.435C413.576,31.744 414.363,30.141 415.088,28.619C414.875,28.408 414.573,28.141 414.181,27.829C413.787,27.464 413.499,27.179 413.317,26.981C413.136,26.781 413.043,26.563 413.043,26.331C413.043,26.144 413.104,26 413.224,25.891C413.347,25.789 413.525,25.669 413.773,25.539L413.955,25.464C414.224,25.299 414.747,25.069 415.52,24.768C416.291,24.467 417.139,24.163 418.061,23.861C418.987,23.557 419.904,23.301 420.813,23.091C421.72,22.885 422.488,22.776 423.125,22.776C424.125,22.776 424.624,23.067 424.624,23.645L424.624,24.435C424.595,24.829 424.579,25.064 424.579,25.147C424.579,25.592 424.733,26.144 425.032,26.803L435.477,48.904ZM398.888,49.813C398.587,50.392 398.115,50.955 397.48,51.509C396.813,52.061 396.029,52.517 395.123,52.872C394.211,53.224 393.091,53.403 391.755,53.403C389.184,53.403 387.24,52.635 385.92,51.099C384.603,49.557 383.824,47.459 383.584,44.797C383.429,42.853 382.736,41.235 381.493,39.944C380.981,39.395 380.424,38.971 379.837,38.683C379.245,38.395 378.709,38.251 378.221,38.251C377.227,38.251 376.728,38.813 376.728,39.944L376.728,48.904C376.728,49.432 376.869,49.84 377.157,50.125C377.445,50.419 377.861,50.704 378.403,50.995C378.827,51.237 379.133,51.432 379.312,51.589C379.493,51.747 379.587,51.96 379.587,52.221C379.587,52.64 379.328,52.853 378.813,52.853L365.187,52.853C364.675,52.853 364.416,52.733 364.416,52.499C364.416,52.128 364.541,51.843 364.781,51.632C365.024,51.419 365.384,51.197 365.872,50.955C366.419,50.693 366.832,50.429 367.117,50.171C367.405,49.909 367.552,49.509 367.552,48.987L367.552,32.88C367.552,31.939 367.405,31.163 367.117,30.573C366.832,29.979 366.464,29.533 366.008,29.232C365.555,28.928 365.085,28.725 364.6,28.619C364.117,28.515 363.571,28.435 362.965,28.381C362.419,28.328 362.037,28.264 361.805,28.181C361.579,28.104 361.467,27.976 361.467,27.789C361.467,27.344 361.8,26.893 362.464,26.448C364.189,25.312 366.331,24.432 368.888,23.781C371.451,23.139 374.179,22.813 377.088,22.813C383.597,22.813 388.472,23.541 391.709,24.981C394.952,26.435 396.573,28.448 396.573,31.021C396.573,32.997 395.72,34.643 394.027,35.96C392.336,37.277 390.168,37.928 387.533,37.928C386.141,37.928 385.4,38.064 385.309,38.328C385.309,38.64 385.869,39.021 386.989,39.472C387.96,39.867 388.827,40.296 389.6,40.755C390.371,41.216 391.045,41.76 391.621,42.395C392.048,42.867 392.608,43.504 393.301,44.331C394.211,45.456 394.965,46.267 395.573,46.755C396.179,47.243 396.904,47.485 397.752,47.485C398.235,47.485 398.613,47.536 398.888,47.643C399.163,47.747 399.312,47.984 399.344,48.355C399.344,48.747 399.187,49.237 398.888,49.813M376.768,35.901C376.803,36.28 376.875,36.579 377,36.787C377.117,36.997 377.299,37.128 377.541,37.184C377.787,37.237 378.179,37.256 378.725,37.256C380.901,37.256 382.616,36.704 383.856,35.584C385.096,34.469 385.717,33.083 385.717,31.419C385.717,30.365 385.432,29.429 384.856,28.619C384.28,27.803 383.477,27.133 382.448,26.603C381.416,26.08 380.243,25.68 378.931,25.416C377.611,25.163 376.197,25.027 374.68,25.027C374.195,25.027 373.747,25.051 373.32,25.107C372.896,25.163 372.667,25.208 372.637,25.261C372.637,25.291 372.653,25.299 372.683,25.299C372.984,25.381 373.592,25.488 374.501,25.616C375.501,25.752 376.251,25.88 376.747,26.011C377.248,26.144 377.496,26.341 377.496,26.603C377.496,27.077 377.376,27.643 377.133,28.301C377.013,28.645 376.915,28.968 376.84,29.269C376.763,29.573 376.728,29.947 376.728,30.395L376.728,34.027C376.728,34.893 376.739,35.52 376.768,35.901M313.131,23.107C314.667,20.347 316.811,17.989 319.555,16.032C322.299,14.08 325.435,12.573 328.963,11.52C332.488,10.469 336.176,9.944 340.024,9.944C340.803,9.944 342.013,10 343.659,10.112C345.168,10.221 346.293,10.283 347.032,10.283C347.851,10.283 348.632,10.16 349.365,9.917C350.101,9.672 350.944,9.304 351.896,8.816C352.939,8.325 353.627,8.08 353.973,8.08C354.448,8.08 354.827,8.344 355.109,8.869C355.389,9.397 355.531,10.037 355.531,10.789C355.531,10.939 355.512,11.125 355.467,11.355C355.421,11.576 355.333,12.125 355.205,12.987C354.989,13.963 354.883,14.528 354.883,14.68C354.883,15.504 354.816,16.259 354.691,16.936C354.555,17.611 354.275,18.267 353.845,18.907C353.411,19.547 352.752,20.061 351.864,20.459C350.976,20.856 349.821,21.051 348.392,21.051C347.096,21.051 345.981,20.805 345.053,20.317C344.125,19.827 343.072,19.109 341.907,18.176C340.565,17.083 339.344,16.259 338.24,15.693C337.139,15.128 335.741,14.851 334.056,14.851C330.467,14.851 327.547,16.021 325.299,18.371C323.048,20.723 321.923,23.723 321.923,27.365C321.923,29.923 322.379,32.232 323.285,34.301C324.195,36.373 325.491,38.128 327.179,39.571C328.864,41.021 330.856,42.12 333.149,42.875C335.44,43.621 337.949,43.995 340.675,43.995C341.971,43.995 343.379,43.872 344.891,43.629C346.405,43.387 347.949,43.04 349.531,42.589C351.107,42.139 352.568,41.627 353.909,41.04C355.248,40.459 356.395,39.867 357.349,39.264C357.52,39.152 357.803,38.925 358.195,38.587C358.621,38.251 358.968,37.987 359.229,37.797C359.488,37.608 359.704,37.517 359.88,37.517C360.179,37.517 360.331,37.797 360.331,38.363C360.331,40.467 359.616,42.467 358.195,44.368C356.763,46.264 354.816,47.947 352.352,49.413C349.885,50.88 347.163,52.019 344.176,52.824C341.192,53.632 338.227,54.037 335.288,54.037C331.483,54.037 328.043,53.475 324.973,52.344C321.899,51.219 319.317,49.637 317.221,47.608C315.12,45.576 313.533,43.248 312.448,40.613C311.371,37.987 310.829,35.187 310.829,32.213C310.829,28.907 311.597,25.875 313.131,23.107M262.048,36.275C261.411,35.512 260.92,34.92 260.571,34.499C260.224,34.075 259.989,33.867 259.867,33.867C259.627,33.92 259.504,34.197 259.504,34.696L259.504,37.696C259.504,39.515 259.701,41.427 260.093,43.44C260.485,45.451 261.003,47.115 261.64,48.432C261.941,49.064 262.272,49.597 262.637,50.032C263,50.467 263.395,50.88 263.819,51.275C264.275,51.696 264.501,51.984 264.501,52.141C264.501,52.619 264.243,52.853 263.731,52.853L252.645,52.853C252.253,52.853 252.056,52.619 252.056,52.141C252.056,51.8 252.376,51.339 253.008,50.76C253.496,50.339 253.909,49.92 254.259,49.496C254.608,49.072 254.917,48.549 255.189,47.92C255.461,47.315 255.696,46.576 255.893,45.709C256.091,44.84 256.243,43.928 256.347,42.968C256.451,42.005 256.531,41.027 256.576,40.021C256.621,39.027 256.643,38.104 256.643,37.256L256.643,32.091C256.643,31.333 256.568,30.749 256.419,30.352C256.264,29.96 255.869,29.629 255.235,29.368C254.629,29.104 253.811,28.8 252.787,28.461C251.997,28.195 251.443,27.987 251.123,27.829C250.808,27.672 250.648,27.501 250.648,27.315C250.648,27.184 250.709,27.064 250.829,26.957C251.405,26.355 252.149,25.776 253.056,25.227C253.963,24.669 254.952,24.197 256.029,23.803C257.101,23.405 258.2,23.099 259.32,22.875C260.443,22.653 261.517,22.541 262.549,22.541C262.699,22.541 262.859,22.629 263.021,22.816C263.192,23 263.469,23.395 263.864,24C264.741,25.312 265.725,26.701 266.816,28.163C267.907,29.627 269.419,31.483 271.36,33.747C273.384,36.144 275.461,38.301 277.581,40.224C277.912,40.536 278.184,40.699 278.397,40.699C278.579,40.64 278.669,40.403 278.669,39.984L278.669,38.405C278.669,36.773 278.512,35 278.189,33.083C277.875,31.155 277.411,29.565 276.808,28.301C276.533,27.723 276.232,27.224 275.899,26.803C275.565,26.379 275.155,25.917 274.672,25.416C274.005,24.712 273.672,24.2 273.672,23.88C273.672,23.432 273.933,23.211 274.445,23.211L284.893,23.211C285.557,23.211 285.888,23.485 285.888,24.037C285.888,24.248 285.664,24.589 285.211,25.064C284.725,25.592 284.277,26.144 283.869,26.723C283.459,27.301 283.045,28.136 282.619,29.232C282.197,30.32 281.845,31.757 281.576,33.552C281.304,35.339 281.168,37.483 281.168,39.984L281.168,42.08C281.168,43 281.437,43.597 281.987,43.856C283.317,44.507 284.232,45.011 284.731,45.355C285.232,45.699 285.483,45.971 285.483,46.181C285.483,46.443 285.307,46.765 284.957,47.131C284.611,47.496 284.056,48.011 283.301,48.669C282.395,49.459 281.789,50.029 281.483,50.365C281.213,50.68 280.819,51.261 280.304,52.104C279.821,52.941 279.387,53.584 279.008,54.019C278.629,54.445 278.213,54.667 277.763,54.667C277.608,54.667 277.243,54.373 276.672,53.779C276.093,53.189 275.376,52.381 274.515,51.352C273.651,50.323 272.765,49.264 271.856,48.176C270.949,47.08 269.827,45.723 268.496,44.093C267.315,42.619 266.277,41.349 265.387,40.28C264.491,39.213 263.771,38.368 263.229,37.733C263.045,37.528 262.651,37.037 262.048,36.275M237.173,29.565C236.539,29.619 235.883,29.725 235.219,29.88C234.552,30.04 233.987,30.264 233.517,30.552C233.045,30.843 232.813,31.216 232.813,31.659C232.813,32.184 232.957,32.549 233.243,32.76C233.533,32.976 233.931,33.155 234.451,33.317C234.781,33.392 235.016,33.472 235.149,33.552C235.285,33.629 235.357,33.747 235.357,33.907C235.357,34.248 235.189,34.549 234.859,34.816C234.523,35.08 234.109,35.296 233.608,35.469C233.109,35.64 232.587,35.763 232.04,35.843C231.496,35.923 230.981,35.96 230.496,35.96C229.373,35.853 228.448,35.6 227.704,35.189C226.96,34.781 226.395,34.301 226,33.747C225.605,33.197 225.325,32.661 225.16,32.152C224.992,31.635 224.867,31.115 224.776,30.592C224.712,30.195 224.653,29.997 224.595,29.997C224.259,29.997 223.979,30.157 223.755,30.472C223.525,30.784 223.36,31.195 223.253,31.677C223.149,32.165 223.08,32.661 223.048,33.179C223.016,33.688 223.005,34.184 223.005,34.659C223.005,35.869 223.299,37.157 223.891,38.523C224.48,39.896 225.317,41.176 226.408,42.373C227.501,43.573 228.808,44.544 230.339,45.293C231.867,46.043 233.541,46.421 235.357,46.421C239.019,46.421 241.827,45.656 243.779,44.128C245.731,42.603 246.712,40.605 246.712,38.131C246.712,35.659 246.008,33.595 244.597,31.955C243.192,30.309 241.229,29.485 238.717,29.485C238.325,29.485 237.808,29.515 237.173,29.565M240.533,23.957C242.592,24.747 244.376,25.856 245.893,27.275C247.405,28.696 248.571,30.331 249.392,32.192C250.205,34.045 250.616,36.024 250.616,38.131C250.616,40.184 250.101,42.157 249.072,44.051C248.04,45.944 246.632,47.611 244.848,49.045C243.064,50.477 241.027,51.603 238.739,52.416C236.451,53.235 234.115,53.637 231.725,53.637C229.328,53.637 227.107,53.277 225.048,52.557C222.989,51.832 221.203,50.8 219.685,49.459C218.171,48.112 217.008,46.552 216.192,44.76C215.373,42.973 214.963,41.037 214.963,38.957C214.963,37.173 215.296,35.483 215.963,33.907C216.629,32.328 217.517,30.947 218.621,29.76C219.723,28.576 220.891,27.661 222.12,27.021C223.344,26.373 224.485,26.053 225.544,26.053C225.821,26.053 226.045,25.979 226.227,25.835C226.408,25.691 226.667,25.408 227,24.981C227.152,24.779 227.467,24.547 227.952,24.299C228.437,24.048 229.029,23.803 229.723,23.568C230.424,23.325 231.133,23.139 231.859,22.995C232.587,22.848 233.253,22.776 233.859,22.776C236.248,22.776 238.472,23.171 240.533,23.957M195.288,38.957C194.792,39.168 194.285,39.459 193.768,39.827C193.405,40.093 193.171,40.347 193.064,40.597C192.96,40.845 192.907,41.171 192.907,41.563L192.907,48.904C192.907,49.723 192.989,50.283 193.155,50.581C193.323,50.885 193.661,51.035 194.179,51.035C195.208,51.035 196.296,50.917 197.445,50.68C198.595,50.443 199.723,50.12 200.829,49.717C201.936,49.307 202.981,48.84 203.965,48.315C204.947,47.784 205.805,47.248 206.531,46.696C207.107,46.248 207.597,45.8 208.005,45.355C208.416,44.904 208.832,44.389 209.256,43.816C209.861,43.051 210.283,42.667 210.525,42.667C210.891,42.667 211.109,42.781 211.187,43.008C211.261,43.232 211.299,43.605 211.299,44.123C211.299,44.656 211.245,45.101 211.141,45.475C211.032,45.843 210.856,46.288 210.621,46.813C210.344,47.416 210.163,47.904 210.075,48.275C210.013,48.643 209.92,49.104 209.803,49.653C209.56,51.021 209.323,52.037 209.099,52.693C208.872,53.352 208.517,53.68 208.029,53.68C207.997,53.68 207.891,53.637 207.712,53.563C207.224,53.325 206.696,53.195 206.12,53.168C205.515,53.141 204.683,53.101 203.621,53.048C202.565,52.997 201.603,52.957 200.739,52.928C199.875,52.904 198.877,52.885 197.744,52.872C196.611,52.859 195.691,52.853 194.997,52.853L181.371,52.853C180.856,52.853 180.597,52.733 180.597,52.499C180.597,52.128 180.72,51.843 180.963,51.632C181.205,51.419 181.568,51.197 182.053,50.955C182.597,50.693 183.011,50.429 183.301,50.171C183.587,49.909 183.731,49.509 183.731,48.987L183.731,27.395C183.731,26.869 183.573,26.464 183.253,26.189C182.939,25.912 182.491,25.645 181.917,25.381C181.461,25.197 181.128,25.027 180.917,24.864C180.704,24.712 180.597,24.499 180.597,24.235C180.597,23.763 180.856,23.528 181.371,23.528L203.76,23.528C204.277,23.528 204.704,23.477 205.056,23.368C205.403,23.267 205.776,23.117 206.168,22.936C206.712,22.672 207.152,22.541 207.485,22.541C207.939,22.541 208.28,22.867 208.507,23.528C208.731,24.187 208.968,25.184 209.211,26.528C209.269,26.923 209.315,27.213 209.347,27.395C209.528,28.259 209.68,28.955 209.803,29.467C209.92,29.979 210.075,30.512 210.256,31.069C210.437,31.672 210.525,32.144 210.525,32.485C210.525,33.013 210.227,33.277 209.619,33.277C209.285,33.277 208.907,33.091 208.483,32.725C208.061,32.355 207.515,31.773 206.848,30.987C206.243,30.304 205.728,29.749 205.301,29.331C204.88,28.907 204.456,28.565 204.032,28.301C202.576,27.408 201.088,26.715 199.56,26.229C198.032,25.741 196.419,25.499 194.725,25.499C193.963,25.499 193.475,25.6 193.248,25.795C193.021,25.995 192.907,26.397 192.907,27L192.907,36.312C192.907,36.709 192.941,36.979 193.021,37.123C193.096,37.267 193.269,37.341 193.541,37.341C193.755,37.341 194.056,37.011 194.451,36.355C194.72,35.907 194.987,35.512 195.245,35.168C195.501,34.829 195.84,34.485 196.267,34.144C196.691,33.803 197.203,33.525 197.811,33.317C198.416,33.104 199.125,32.997 199.944,32.997C201.52,32.997 202.861,33.32 203.965,33.965C205.072,34.611 205.624,35.291 205.624,35.995C205.624,36.237 205.539,36.445 205.371,36.632C205.205,36.816 204.939,37.064 204.579,37.376C204.093,37.776 203.728,38.104 203.488,38.368C203.243,38.656 202.915,39.077 202.488,39.632C202.035,40.235 201.68,40.669 201.419,40.933C201.163,41.192 200.931,41.325 200.717,41.325C200.472,41.325 200.269,41.248 200.101,41.088C199.936,40.933 199.733,40.669 199.493,40.301C199.125,39.776 198.771,39.365 198.427,39.077C198.077,38.784 197.584,38.64 196.949,38.64C196.341,38.64 195.789,38.749 195.288,38.957M174.707,45.709C174.707,45.971 174.829,46.325 175.069,46.773C175.28,47.139 175.389,47.416 175.389,47.605C175.389,47.784 175.184,47.984 174.776,48.195C174.365,48.405 174.011,48.536 173.712,48.589C172.499,48.776 171.421,49.035 170.485,49.376C169.544,49.723 168.411,50.197 167.077,50.8C165.32,51.589 163.768,52.181 162.421,52.576C161.075,52.968 159.448,53.168 157.541,53.168C155.085,53.168 152.795,52.816 150.659,52.12C148.523,51.424 146.664,50.419 145.072,49.104C143.485,47.784 142.248,46.213 141.373,44.381C140.493,42.557 140.053,40.552 140.053,38.368C140.053,36.104 140.541,34.013 141.509,32.091C142.48,30.171 143.835,28.515 145.573,27.12C147.315,25.723 149.349,24.651 151.68,23.901C154.013,23.149 156.509,22.776 159.176,22.776C160.355,22.776 161.413,22.835 162.355,22.955C163.293,23.072 164.445,23.251 165.805,23.485C166.896,23.696 167.84,23.859 168.645,23.957C169.448,24.067 170.288,24.117 171.168,24.117C171.709,24.117 172.168,24.08 172.528,24C172.888,23.92 173.283,23.803 173.712,23.645C174.344,23.405 174.901,23.288 175.389,23.288C175.752,23.288 175.933,23.448 175.933,23.763C175.691,24.816 175.456,25.723 175.229,26.485C175.003,27.248 174.683,27.968 174.277,28.64C173.869,29.307 173.344,29.848 172.709,30.259C172.072,30.664 171.301,30.867 170.395,30.867C169.363,30.867 168.509,30.651 167.827,30.216C167.147,29.781 166.352,29.12 165.443,28.221C164.445,27.224 163.517,26.464 162.675,25.955C161.824,25.437 160.72,25.184 159.355,25.184C157.845,25.184 156.491,25.432 155.291,25.936C154.093,26.435 153.115,27.107 152.341,27.947C151.568,28.789 150.987,29.763 150.592,30.867C150.197,31.973 150.003,33.128 150.003,34.339C150.003,36.368 150.32,38.237 150.957,39.944C151.589,41.656 152.515,43.131 153.725,44.381C154.936,45.635 156.44,46.6 158.245,47.288C160.048,47.973 162.083,48.315 164.355,48.315C164.504,48.315 164.627,48.277 164.715,48.195C164.805,48.112 164.856,47.944 164.856,47.68L164.856,40.224C164.856,39.275 164.451,38.512 163.648,37.928C162.848,37.352 161.917,37.064 160.856,37.064C160.067,37.064 159.379,37.277 158.792,37.696C158.2,38.117 157.845,38.723 157.723,39.515C157.659,39.904 157.579,40.224 157.472,40.459C157.365,40.699 157.208,40.816 156.992,40.816C156.509,40.816 155.973,40.733 155.384,40.576C154.795,40.419 154.224,40.211 153.683,39.944C153.133,39.685 152.696,39.405 152.363,39.117C152.029,38.829 151.864,38.552 151.864,38.288C151.864,37.549 152.075,36.928 152.499,36.413C152.92,35.901 153.499,35.488 154.224,35.189C154.952,34.888 155.795,34.672 156.747,34.539C157.699,34.408 158.752,34.339 159.904,34.339C160.931,34.339 161.877,34.392 162.741,34.499C163.605,34.605 164.643,34.76 165.848,34.973C167.152,35.211 168.28,35.389 169.235,35.504C170.187,35.621 171.256,35.683 172.437,35.683C173.221,35.683 173.965,35.605 174.661,35.469C175.357,35.32 176.176,35.117 177.117,34.856C177.779,34.672 178.189,34.576 178.339,34.576C178.643,34.576 178.896,34.712 179.091,34.973C179.283,35.237 179.387,35.512 179.387,35.8C179.387,35.987 179.272,36.171 179.048,36.355C178.816,36.539 178.448,36.787 177.931,37.104C176.933,37.709 176.147,38.301 175.571,38.88C174.995,39.459 174.707,40.157 174.707,40.971L174.707,45.709ZM114.411,36.275C113.771,35.512 113.283,34.92 112.931,34.499C112.587,34.075 112.349,33.867 112.229,33.867C111.987,33.92 111.867,34.197 111.867,34.696L111.867,37.696C111.867,39.515 112.064,41.427 112.459,43.44C112.848,45.451 113.365,47.115 114.003,48.432C114.301,49.064 114.637,49.597 115.003,50.032C115.363,50.467 115.757,50.88 116.179,51.275C116.635,51.696 116.861,51.984 116.861,52.141C116.861,52.619 116.603,52.853 116.091,52.853L105.008,52.853C104.619,52.853 104.421,52.619 104.421,52.141C104.421,51.8 104.736,51.339 105.373,50.76C105.856,50.339 106.272,49.92 106.619,49.496C106.968,49.072 107.28,48.549 107.549,47.92C107.821,47.315 108.059,46.576 108.256,45.709C108.453,44.84 108.605,43.928 108.707,42.968C108.816,42.005 108.891,41.027 108.939,40.021C108.981,39.027 109.005,38.104 109.005,37.256L109.005,32.091C109.005,31.333 108.931,30.749 108.779,30.352C108.627,29.96 108.232,29.629 107.597,29.368C106.992,29.104 106.176,28.8 105.147,28.461C104.357,28.195 103.805,27.987 103.488,27.829C103.168,27.672 103.011,27.501 103.011,27.315C103.011,27.184 103.072,27.064 103.189,26.957C103.765,26.355 104.509,25.776 105.419,25.227C106.328,24.669 107.32,24.197 108.392,23.803C109.464,23.405 110.565,23.099 111.685,22.875C112.803,22.653 113.88,22.541 114.909,22.541C115.061,22.541 115.221,22.629 115.387,22.816C115.555,23 115.829,23.395 116.224,24C117.107,25.312 118.088,26.701 119.181,28.163C120.269,29.627 121.779,31.483 123.72,33.747C125.747,36.144 127.821,38.301 129.944,40.224C130.275,40.536 130.547,40.699 130.76,40.699C130.941,40.64 131.032,40.403 131.032,39.984L131.032,38.405C131.032,36.773 130.872,35 130.555,33.083C130.235,31.155 129.773,29.565 129.171,28.301C128.893,27.723 128.595,27.224 128.264,26.803C127.931,26.379 127.52,25.917 127.032,25.416C126.371,24.712 126.035,24.2 126.035,23.88C126.035,23.432 126.293,23.211 126.805,23.211L137.253,23.211C137.92,23.211 138.253,23.485 138.253,24.037C138.253,24.248 138.027,24.589 137.573,25.064C137.088,25.592 136.637,26.144 136.232,26.723C135.821,27.301 135.408,28.136 134.987,29.232C134.557,30.32 134.208,31.757 133.936,33.552C133.667,35.339 133.528,37.483 133.528,39.984L133.528,42.08C133.528,43 133.803,43.597 134.347,43.856C135.68,44.507 136.592,45.011 137.096,45.355C137.592,45.699 137.845,45.971 137.845,46.181C137.845,46.443 137.669,46.765 137.323,47.131C136.971,47.496 136.419,48.011 135.664,48.669C134.755,49.459 134.149,50.029 133.848,50.365C133.576,50.68 133.181,51.261 132.667,52.104C132.181,52.941 131.749,53.584 131.373,54.019C130.992,54.445 130.576,54.667 130.123,54.667C129.971,54.667 129.608,54.373 129.035,53.779C128.456,53.189 127.736,52.381 126.875,51.352C126.011,50.323 125.125,49.264 124.219,48.176C123.309,47.08 122.187,45.723 120.856,44.093C119.677,42.619 118.64,41.349 117.747,40.28C116.853,39.213 116.136,38.368 115.595,37.733C115.411,37.528 115.016,37.037 114.411,36.275M79.592,40.536C79.592,42.931 80.2,44.821 81.429,46.2C82.656,47.581 84.403,48.275 86.675,48.275C89.611,48.275 91.776,47.424 93.168,45.728C94.563,44.029 95.256,41.667 95.256,38.64C95.256,36.829 95.024,35.355 94.552,34.221C94.083,33.091 93.411,32.043 92.533,31.069C92.261,30.749 91.776,30.317 91.08,29.76C90.355,29.157 89.808,28.645 89.445,28.221C89.08,27.803 88.899,27.328 88.899,26.803C88.899,26.563 89.117,26.219 89.56,25.757C89.997,25.296 90.549,24.816 91.216,24.317C91.883,23.816 92.536,23.4 93.192,23.072C93.84,22.744 94.376,22.581 94.805,22.581C95.075,22.581 95.272,22.629 95.395,22.733C96.149,23.683 96.763,24.552 97.232,25.344C97.704,26.131 98.072,26.968 98.344,27.848C98.619,28.728 98.816,29.736 98.933,30.867C99.059,31.997 99.117,33.392 99.117,35.051C99.117,37.632 98.816,40.037 98.211,42.275C97.603,44.507 96.659,46.483 95.373,48.195C94.083,49.909 92.411,51.251 90.355,52.221C88.293,53.195 85.859,53.68 83.043,53.68C80.981,53.68 79.141,53.392 77.52,52.832C75.904,52.267 74.571,51.515 73.528,50.581C72.48,49.648 71.693,48.637 71.168,47.544C70.635,46.451 70.371,45.392 70.371,44.368L70.371,29.211C70.371,28.683 70.219,28.272 69.915,27.968C69.616,27.661 69.157,27.355 68.555,27.04C68.131,26.776 67.811,26.552 67.6,26.368C67.387,26.184 67.28,25.963 67.28,25.699C67.28,25.411 67.347,25.184 67.485,25.027C67.624,24.864 67.979,24.779 68.555,24.747C69.221,24.699 69.84,24.597 70.416,24.453C70.989,24.309 71.685,24.104 72.504,23.843C73.776,23.445 74.941,23.139 76.003,22.915C77.061,22.691 78.347,22.581 79.861,22.581C80.133,22.581 80.395,22.624 80.635,22.717C80.877,22.808 80.997,22.973 80.997,23.211C80.997,23.528 80.947,23.768 80.837,23.941C80.733,24.109 80.573,24.288 80.36,24.475C80.117,24.683 79.931,24.901 79.795,25.123C79.659,25.352 79.592,25.68 79.592,26.131L79.592,40.536ZM16.157,21.024C15.747,20.176 15.216,19.539 14.571,19.104C13.92,18.675 13.251,18.379 12.555,18.232C11.864,18.08 11.085,17.968 10.221,17.891C9.443,17.819 8.891,17.72 8.568,17.611C8.243,17.499 8.08,17.309 8.08,17.048C8.08,16.403 8.555,15.771 9.509,15.128C11.973,13.515 15.032,12.245 18.685,11.325C22.341,10.403 26.248,9.944 30.397,9.944C34.291,9.944 38.131,10.328 41.917,11.096C45.701,11.867 49.181,13.155 52.36,14.963C55.539,16.768 58.093,19.184 60.013,22.205C61.941,25.232 62.904,28.907 62.904,33.232C62.904,35.256 62.52,37.381 61.765,39.603C61.011,41.819 59.757,43.947 58.005,45.973C56.253,48.003 53.872,49.656 50.867,50.936C47.864,52.213 44.195,52.853 39.869,52.853L13.4,52.853C12.664,52.853 12.296,52.683 12.296,52.344C12.296,51.819 12.469,51.405 12.819,51.104C13.16,50.803 13.68,50.485 14.373,50.147C15.152,49.768 15.747,49.392 16.157,49.016C16.565,48.645 16.773,48.08 16.773,47.328L16.773,24.323C16.773,22.968 16.565,21.869 16.157,21.024M29.88,48.677C29.88,49.317 30.149,49.752 30.691,49.979C31.232,50.2 31.803,50.315 32.411,50.315C34.051,50.315 35.784,50.013 37.6,49.413C39.419,48.811 41.139,47.853 42.76,46.539C44.381,45.219 45.701,43.504 46.717,41.405C47.731,39.301 48.24,36.821 48.24,33.963C48.24,30.091 47.624,26.84 46.392,24.205C45.157,21.573 43.581,19.515 41.653,18.032C39.731,16.549 37.728,15.461 35.653,14.765C33.576,14.067 31.437,13.587 29.229,13.328C28.363,13.251 27.653,13.213 27.091,13.213C26.267,13.213 25.565,13.232 24.981,13.267C24.4,13.307 24.083,13.363 24.037,13.44C24.037,13.475 24.061,13.493 24.104,13.493C24.536,13.605 25.403,13.76 26.699,13.944C28.128,14.136 29.197,14.32 29.912,14.509C30.627,14.699 30.981,14.979 30.981,15.357C30.981,16.032 30.808,16.843 30.464,17.781C30.291,18.267 30.149,18.728 30.04,19.16C29.933,19.592 29.88,20.131 29.88,20.765L29.88,48.677Z" style="fill:rgb(35,31,32);fill-rule:nonzero;stroke:rgb(35,31,32);stroke-width:16.16px;"/>
        <path d="M824.491,47.149C823.341,48.267 821.819,49.256 819.925,50.109C818.032,50.968 815.965,51.637 813.725,52.12C811.485,52.611 809.339,52.853 807.277,52.853C806.432,52.853 805.627,52.792 804.869,52.675C804.115,52.557 803.187,52.365 802.099,52.104C801.067,51.864 800.2,51.691 799.491,51.568C798.776,51.453 798.011,51.389 797.195,51.389C796.648,51.389 795.907,51.536 794.968,51.827C794.061,52.115 793.352,52.261 792.837,52.261C792.533,52.261 792.325,52.197 792.221,52.083C792.115,51.963 792.064,51.787 792.064,51.552C792.064,51.496 792.075,51.419 792.109,51.315L792.109,50.995C792.2,50.157 792.517,49.208 793.061,48.155C793.605,47.107 794.288,46.077 795.104,45.077C795.923,44.08 796.731,43.248 797.536,42.589C798.339,41.931 798.995,41.549 799.512,41.448C799.664,41.448 799.765,41.528 799.829,41.683C799.888,41.84 799.917,42.011 799.917,42.2C799.917,42.275 799.904,42.445 799.877,42.709C799.845,42.893 799.832,43.037 799.832,43.139C799.832,44.245 800.064,45.269 800.531,46.203C801,47.136 801.621,47.925 802.395,48.568C803.168,49.219 804.005,49.717 804.912,50.069C805.824,50.427 806.717,50.603 807.595,50.603C809.653,50.603 811.395,50.125 812.816,49.184C814.24,48.237 814.952,46.904 814.952,45.195C814.952,44.539 814.784,43.869 814.453,43.203C814.12,42.531 813.635,41.907 813.003,41.325C812.365,40.747 811.611,40.261 810.728,39.867C809.851,39.472 808.896,39.208 807.864,39.077C805.597,38.816 803.635,38.531 801.987,38.229C800.333,37.925 798.765,37.496 797.288,36.947C795.8,36.392 794.608,35.677 793.701,34.795C792.789,33.912 792.336,32.827 792.336,31.536C792.336,30.352 792.715,29.245 793.469,28.203C794.227,27.163 795.301,26.248 796.696,25.464C798.088,24.669 799.715,24.061 801.576,23.627C803.437,23.187 805.429,22.973 807.549,22.973C808.912,22.973 810.837,23.157 813.317,23.528C815.651,23.867 817.448,24.037 818.723,24.037C819.267,24.037 820.024,23.904 820.992,23.645C822.112,23.357 822.989,23.211 823.627,23.211C823.899,23.211 824.035,23.368 824.035,23.683C824.035,24.317 823.877,25.027 823.557,25.819C823.24,26.603 822.8,27.357 822.24,28.085C821.68,28.808 821.069,29.395 820.403,29.84C819.733,30.291 819.067,30.509 818.403,30.509C817.616,30.509 816.872,30.296 816.179,29.861C815.48,29.424 814.603,28.776 813.544,27.907L812.816,27.275C811.936,26.563 811.091,25.987 810.275,25.539C809.456,25.093 808.747,24.864 808.141,24.864C806.869,24.864 805.731,25.197 804.731,25.856C803.736,26.515 803.232,27.501 803.232,28.813C803.232,29.549 803.507,30.181 804.051,30.709C804.597,31.232 805.331,31.677 806.256,32.035C807.179,32.389 808.192,32.683 809.299,32.917C810.403,33.155 811.803,33.419 813.499,33.707C815.405,34.051 816.816,34.317 817.723,34.499C820.296,35.051 822.355,36.131 823.899,37.733C825.443,39.341 826.213,41.312 826.213,43.656C826.213,44.864 825.64,46.029 824.491,47.149M755.131,32.035C756.205,30.096 757.704,28.448 759.629,27.077C761.547,25.709 763.747,24.656 766.211,23.92C768.68,23.187 771.259,22.813 773.955,22.813C774.501,22.813 775.347,22.853 776.499,22.936C777.56,23.016 778.347,23.053 778.861,23.053C779.435,23.053 779.979,22.968 780.491,22.795C781.011,22.624 781.6,22.368 782.264,22.024C782.992,21.683 783.477,21.515 783.72,21.515C784.051,21.515 784.317,21.696 784.515,22.067C784.709,22.435 784.808,22.885 784.808,23.405C784.808,23.512 784.795,23.645 784.763,23.803C784.733,23.957 784.672,24.341 784.581,24.947C784.429,25.629 784.355,26.024 784.355,26.131C784.355,26.712 784.312,27.237 784.221,27.709C784.125,28.181 783.931,28.645 783.629,29.093C783.325,29.536 782.864,29.904 782.24,30.179C781.621,30.453 780.813,30.592 779.813,30.592C778.907,30.592 778.125,30.421 777.475,30.077C776.824,29.736 776.088,29.237 775.275,28.576C774.333,27.816 773.477,27.237 772.709,26.84C771.936,26.448 770.96,26.248 769.776,26.248C767.264,26.248 765.221,27.072 763.645,28.715C762.072,30.36 761.285,32.459 761.285,35.011C761.285,36.803 761.603,38.419 762.237,39.867C762.872,41.312 763.779,42.547 764.963,43.56C766.144,44.573 767.536,45.339 769.141,45.867C770.747,46.389 772.501,46.659 774.411,46.659C775.32,46.659 776.301,46.565 777.363,46.4C778.421,46.229 779.507,45.987 780.611,45.669C781.715,45.355 782.739,44.997 783.675,44.587C784.616,44.179 785.416,43.757 786.08,43.341C786.203,43.256 786.4,43.104 786.672,42.867C786.976,42.629 787.213,42.445 787.397,42.315C787.579,42.179 787.731,42.115 787.853,42.115C788.064,42.115 788.171,42.315 788.171,42.709C788.171,44.184 787.672,45.584 786.669,46.915C785.672,48.24 784.309,49.419 782.584,50.44C780.861,51.469 778.947,52.267 776.859,52.832C774.771,53.392 772.699,53.68 770.64,53.68C767.979,53.68 765.568,53.285 763.419,52.499C761.269,51.704 759.461,50.603 757.992,49.184C756.52,47.76 755.411,46.131 754.656,44.285C753.899,42.445 753.52,40.488 753.52,38.405C753.52,36.088 754.056,33.965 755.131,32.035M749.171,27L749.171,48.904C749.171,49.432 749.315,49.84 749.603,50.125C749.888,50.419 750.307,50.704 750.853,50.995C751.277,51.237 751.579,51.432 751.763,51.589C751.941,51.747 752.032,51.96 752.032,52.221C752.032,52.64 751.776,52.853 751.259,52.853L737.637,52.853C737.12,52.853 736.864,52.733 736.864,52.499C736.864,52.128 736.984,51.843 737.227,51.632C737.469,51.419 737.835,51.197 738.32,50.955C738.861,50.693 739.28,50.429 739.568,50.171C739.856,49.909 739.997,49.509 739.997,48.987L739.997,27.395C739.997,26.869 739.84,26.464 739.52,26.189C739.2,25.912 738.755,25.645 738.179,25.381C737.728,25.197 737.389,25.027 737.181,24.864C736.968,24.712 736.864,24.499 736.864,24.235C736.864,23.763 737.12,23.528 737.637,23.528L751.669,23.528C752.093,23.528 752.304,23.709 752.304,24.077C752.304,24.392 752.187,24.64 751.941,24.808C751.699,24.979 751.336,25.163 750.853,25.344C750.307,25.584 749.888,25.8 749.603,26.011C749.315,26.221 749.171,26.552 749.171,27ZM732.971,47.149C731.819,48.267 730.299,49.256 728.405,50.109C726.517,50.968 724.448,51.637 722.208,52.12C719.968,52.611 717.819,52.853 715.76,52.853C714.912,52.853 714.109,52.792 713.349,52.675C712.595,52.557 711.669,52.365 710.581,52.104C709.552,51.864 708.683,51.691 707.968,51.568C707.259,51.453 706.493,51.389 705.675,51.389C705.133,51.389 704.389,51.536 703.453,51.827C702.547,52.115 701.832,52.261 701.32,52.261C701.016,52.261 700.811,52.197 700.704,52.083C700.6,51.963 700.547,51.787 700.547,51.552C700.547,51.496 700.56,51.419 700.592,51.315L700.592,50.995C700.683,50.157 701,49.208 701.547,48.155C702.088,47.107 702.768,46.077 703.587,45.077C704.405,44.08 705.213,43.248 706.019,42.589C706.819,41.931 707.48,41.549 707.992,41.448C708.147,41.448 708.248,41.528 708.309,41.683C708.371,41.84 708.4,42.011 708.4,42.2C708.4,42.275 708.387,42.445 708.357,42.709C708.328,42.893 708.309,43.037 708.309,43.139C708.309,44.245 708.544,45.269 709.016,46.203C709.485,47.136 710.104,47.925 710.877,48.568C711.648,49.219 712.488,49.717 713.397,50.069C714.304,50.427 715.197,50.603 716.077,50.603C718.136,50.603 719.877,50.125 721.299,49.184C722.723,48.237 723.435,46.904 723.435,45.195C723.435,44.539 723.269,43.869 722.936,43.203C722.603,42.531 722.117,41.907 721.48,41.325C720.845,40.747 720.088,40.261 719.211,39.867C718.333,39.472 717.379,39.208 716.349,39.077C714.08,38.816 712.117,38.531 710.467,38.229C708.819,37.925 707.251,37.496 705.771,36.947C704.285,36.392 703.091,35.677 702.179,34.795C701.269,33.912 700.819,32.827 700.819,31.536C700.819,30.352 701.197,29.245 701.955,28.203C702.709,27.163 703.784,26.248 705.179,25.464C706.573,24.669 708.197,24.061 710.059,23.627C711.92,23.187 713.909,22.973 716.029,22.973C717.395,22.973 719.317,23.157 721.8,23.528C724.128,23.867 725.931,24.037 727.203,24.037C727.752,24.037 728.504,23.904 729.475,23.645C730.595,23.357 731.472,23.211 732.112,23.211C732.381,23.211 732.517,23.368 732.517,23.683C732.517,24.317 732.36,25.027 732.04,25.819C731.723,26.603 731.283,27.357 730.723,28.085C730.165,28.808 729.549,29.395 728.885,29.84C728.216,30.291 727.552,30.509 726.888,30.509C726.099,30.509 725.357,30.296 724.661,29.861C723.963,29.424 723.088,28.776 722.027,27.907L721.299,27.275C720.421,26.563 719.573,25.987 718.755,25.539C717.939,25.093 717.227,24.864 716.621,24.864C715.352,24.864 714.216,25.197 713.216,25.856C712.216,26.515 711.717,27.501 711.717,28.813C711.717,29.549 711.989,30.181 712.536,30.709C713.08,31.232 713.813,31.677 714.739,32.035C715.659,32.389 716.675,32.683 717.779,32.917C718.885,33.155 720.283,33.419 721.981,33.707C723.891,34.051 725.296,34.317 726.205,34.499C728.776,35.051 730.837,36.131 732.381,37.733C733.925,39.341 734.693,41.312 734.693,43.656C734.693,44.864 734.12,46.029 732.971,47.149M695.941,47.149C694.792,48.267 693.269,49.256 691.376,50.109C689.483,50.968 687.413,51.637 685.176,52.12C682.939,52.611 680.787,52.853 678.725,52.853C677.88,52.853 677.077,52.792 676.32,52.675C675.563,52.557 674.64,52.365 673.549,52.104C672.52,51.864 671.648,51.691 670.939,51.568C670.229,51.453 669.461,51.389 668.643,51.389C668.101,51.389 667.357,51.536 666.419,51.827C665.512,52.115 664.8,52.261 664.285,52.261C663.984,52.261 663.776,52.197 663.672,52.083C663.565,51.963 663.512,51.787 663.512,51.552C663.512,51.496 663.525,51.419 663.56,51.315L663.56,50.995C663.651,50.157 663.968,49.208 664.512,48.155C665.056,47.107 665.739,46.077 666.557,45.077C667.371,44.08 668.181,43.248 668.987,42.589C669.787,41.931 670.445,41.549 670.963,41.448C671.112,41.448 671.213,41.528 671.277,41.683C671.339,41.84 671.371,42.011 671.371,42.2C671.371,42.275 671.357,42.445 671.325,42.709C671.293,42.893 671.28,43.037 671.28,43.139C671.28,44.245 671.515,45.269 671.984,46.203C672.451,47.136 673.072,47.925 673.845,48.568C674.616,49.219 675.456,49.717 676.365,50.069C677.272,50.427 678.165,50.603 679.045,50.603C681.101,50.603 682.845,50.125 684.267,49.184C685.688,48.237 686.403,46.904 686.403,45.195C686.403,44.539 686.235,43.869 685.904,43.203C685.571,42.531 685.083,41.907 684.453,41.325C683.816,40.747 683.059,40.261 682.179,39.867C681.299,39.472 680.347,39.208 679.317,39.077C677.045,38.816 675.085,38.531 673.437,38.229C671.787,37.925 670.219,37.496 668.736,36.947C667.251,36.392 666.059,35.677 665.149,34.795C664.24,33.912 663.787,32.827 663.787,31.536C663.787,30.352 664.165,29.245 664.92,28.203C665.675,27.163 666.755,26.248 668.144,25.464C669.539,24.669 671.165,24.061 673.027,23.627C674.888,23.187 676.88,22.973 679,22.973C680.363,22.973 682.285,23.157 684.768,23.528C687.099,23.867 688.904,24.037 690.173,24.037C690.717,24.037 691.475,23.904 692.44,23.645C693.56,23.357 694.443,23.211 695.077,23.211C695.349,23.211 695.485,23.368 695.485,23.683C695.485,24.317 695.328,25.027 695.008,25.819C694.688,26.603 694.253,27.357 693.693,28.085C693.133,28.808 692.52,29.395 691.853,29.84C691.184,30.291 690.517,30.509 689.856,30.509C689.069,30.509 688.323,30.296 687.627,29.861C686.931,29.424 686.053,28.776 684.995,27.907L684.267,27.275C683.387,26.563 682.544,25.987 681.725,25.539C680.904,25.093 680.195,24.864 679.592,24.864C678.323,24.864 677.181,25.197 676.184,25.856C675.184,26.515 674.683,27.501 674.683,28.813C674.683,29.549 674.955,30.181 675.501,30.709C676.048,31.232 676.784,31.677 677.707,32.035C678.629,32.389 679.643,32.683 680.747,32.917C681.851,33.155 683.253,33.419 684.949,33.707C686.856,34.051 688.267,34.317 689.173,34.499C691.747,35.051 693.805,36.131 695.349,37.733C696.891,39.341 697.664,41.312 697.664,43.656C697.664,44.864 697.088,46.029 695.941,47.149M634.488,41.131L634.533,41.131L640.163,39.197C640.677,39.037 640.936,38.784 640.936,38.445C640.936,38.288 640.891,38.117 640.803,37.928L638.483,32.96C638.304,32.565 638.107,32.368 637.896,32.368C637.68,32.368 637.44,32.619 637.165,33.115L633.581,39.944L633.395,40.339C633.187,40.707 633.08,40.957 633.08,41.088C633.08,41.299 633.197,41.405 633.44,41.405C633.592,41.405 633.941,41.312 634.488,41.131M656.424,48.904C656.544,49.115 656.733,49.288 656.987,49.419C657.248,49.549 657.664,49.709 658.24,49.893C659.088,50.181 659.747,50.485 660.216,50.8C660.683,51.117 660.92,51.589 660.92,52.221C660.92,52.64 660.616,52.853 660.011,52.853L646.84,52.853C646.565,52.853 646.272,52.845 645.955,52.832C645.635,52.816 645.285,52.792 644.907,52.755C644.528,52.715 644.213,52.651 643.955,52.557C643.701,52.461 643.571,52.336 643.571,52.181C643.571,51.813 643.677,51.525 643.888,51.315C644.099,51.101 644.403,50.88 644.795,50.643C645.189,50.429 645.475,50.235 645.656,50.051C645.837,49.864 645.933,49.629 645.933,49.341C645.933,49.155 645.853,48.893 645.704,48.549L643.704,44.285C643.523,43.861 643.208,43.656 642.752,43.656C642.571,43.656 642.312,43.715 641.979,43.816L631.397,47.208C630.491,47.496 629.875,47.792 629.56,48.096C629.24,48.4 629.08,48.797 629.08,49.301C629.08,49.773 629.195,50.12 629.424,50.344C629.651,50.568 629.976,50.773 630.4,50.955C630.795,51.117 631.08,51.277 631.261,51.453C631.443,51.621 631.533,51.877 631.533,52.221C631.533,52.64 631.232,52.853 630.624,52.853L622.907,52.853C622.237,52.853 621.907,52.605 621.907,52.104C621.907,51.787 622.019,51.525 622.248,51.315C622.475,51.101 622.829,50.867 623.315,50.603C623.859,50.288 624.32,49.984 624.699,49.693C625.075,49.405 625.387,49.024 625.632,48.549C626.357,47.237 627.219,45.648 628.219,43.795C629.221,41.939 630.165,40.168 631.059,38.485C631.952,36.803 632.819,35.117 633.672,33.435C634.515,31.744 635.304,30.141 636.029,28.619C635.819,28.408 635.515,28.141 635.12,27.829C634.728,27.464 634.44,27.179 634.261,26.981C634.077,26.781 633.987,26.563 633.987,26.331C633.987,26.144 634.048,26 634.168,25.891C634.291,25.789 634.472,25.669 634.712,25.539L634.893,25.464C635.168,25.299 635.691,25.069 636.461,24.768C637.235,24.467 638.083,24.163 639.005,23.861C639.928,23.557 640.843,23.301 641.755,23.091C642.661,22.885 643.435,22.776 644.069,22.776C645.069,22.776 645.568,23.067 645.568,23.645L645.568,24.435C645.539,24.829 645.523,25.064 645.523,25.147C645.523,25.592 645.672,26.144 645.979,26.803L656.424,48.904ZM619.757,43.32C619.859,43.411 619.915,43.672 619.915,44.093C619.915,44.616 619.859,45.064 619.757,45.429C619.651,45.8 619.475,46.248 619.232,46.773C618.96,47.379 618.781,47.864 618.688,48.235C618.629,48.603 618.536,49.064 618.416,49.616C618.173,50.987 617.939,51.995 617.715,52.653C617.485,53.312 617.131,53.637 616.643,53.637C616.616,53.637 616.509,53.6 616.328,53.523C615.843,53.283 615.312,53.155 614.739,53.131C613.525,53.048 612.019,52.984 610.221,52.928C608.419,52.877 606.731,52.853 605.155,52.853L591.533,52.853C591.016,52.853 590.76,52.733 590.76,52.499C590.76,52.128 590.877,51.843 591.123,51.632C591.365,51.419 591.731,51.197 592.213,50.955C592.755,50.693 593.173,50.429 593.461,50.171C593.749,49.909 593.891,49.509 593.891,48.987L593.891,27.395C593.891,26.869 593.733,26.464 593.416,26.189C593.096,25.912 592.651,25.645 592.075,25.381C591.621,25.197 591.288,25.027 591.075,24.864C590.864,24.712 590.76,24.499 590.76,24.235C590.76,23.763 591.016,23.528 591.533,23.528L605.565,23.528C605.987,23.528 606.2,23.709 606.2,24.077C606.2,24.392 606.077,24.64 605.837,24.808C605.595,24.979 605.232,25.163 604.747,25.344C604.2,25.584 603.784,25.8 603.496,26.011C603.208,26.221 603.067,26.552 603.067,27L603.067,48.904C603.067,49.723 603.149,50.283 603.315,50.581C603.483,50.885 603.824,51.035 604.336,51.035C605.608,51.035 606.827,50.856 607.992,50.485C609.16,50.112 610.227,49.635 611.195,49.045C612.163,48.453 613.011,47.864 613.739,47.288C614.464,46.709 615.312,45.987 616.283,45.117C617.067,44.405 617.653,43.904 618.032,43.611C618.408,43.331 618.733,43.181 619.008,43.181C619.403,43.181 619.651,43.232 619.757,43.32M540.803,23.107C542.336,20.347 544.48,17.989 547.227,16.032C549.973,14.08 553.104,12.573 556.632,11.52C560.16,10.469 563.848,9.944 567.696,9.944C568.477,9.944 569.683,10 571.328,10.112C572.84,10.221 573.965,10.283 574.701,10.283C575.523,10.283 576.304,10.16 577.04,9.917C577.773,9.672 578.616,9.304 579.565,8.816C580.605,8.325 581.299,8.08 581.645,8.08C582.12,8.08 582.499,8.344 582.779,8.869C583.061,9.397 583.203,10.037 583.203,10.789C583.203,10.939 583.179,11.125 583.136,11.355C583.091,11.576 583.005,12.125 582.877,12.987C582.659,13.963 582.552,14.528 582.552,14.68C582.552,15.504 582.491,16.259 582.357,16.936C582.227,17.611 581.947,18.267 581.515,18.907C581.083,19.547 580.421,20.061 579.533,20.459C578.651,20.856 577.493,21.051 576.061,21.051C574.768,21.051 573.653,20.805 572.723,20.317C571.792,19.827 570.744,19.109 569.576,18.176C568.235,17.083 567.013,16.259 565.912,15.693C564.811,15.128 563.413,14.851 561.725,14.851C558.133,14.851 555.216,16.021 552.965,18.371C550.717,20.723 549.595,23.723 549.595,27.365C549.595,29.923 550.048,32.232 550.957,34.301C551.867,36.373 553.16,38.128 554.848,39.571C556.536,41.021 558.525,42.12 560.816,42.875C563.109,43.621 565.619,43.995 568.344,43.995C569.64,43.995 571.048,43.872 572.557,43.629C574.075,43.387 575.619,43.04 577.2,42.589C578.779,42.139 580.237,41.627 581.579,41.04C582.917,40.459 584.067,39.867 585.019,39.264C585.192,39.152 585.472,38.925 585.861,38.587C586.293,38.251 586.637,37.987 586.901,37.797C587.157,37.608 587.373,37.517 587.549,37.517C587.851,37.517 588.003,37.797 588.003,38.363C588.003,40.467 587.288,42.467 585.861,44.368C584.435,46.264 582.491,47.947 580.021,49.413C577.557,50.88 574.829,52.019 571.848,52.824C568.861,53.632 565.899,54.037 562.957,54.037C559.152,54.037 555.715,53.475 552.645,52.344C549.571,51.219 546.989,49.637 544.891,47.608C542.792,45.576 541.203,43.248 540.12,40.613C539.04,37.987 538.499,35.187 538.499,32.213C538.499,28.907 539.267,25.875 540.803,23.107M519.843,43.32C519.952,43.411 520,43.672 520,44.093C520,44.616 519.952,45.064 519.843,45.429C519.739,45.8 519.563,46.248 519.323,46.773C519.045,47.379 518.867,47.864 518.776,48.235C518.715,48.603 518.627,49.064 518.504,49.616C518.261,50.987 518.027,51.995 517.8,52.653C517.576,53.312 517.219,53.637 516.736,53.637C516.704,53.637 516.595,53.6 516.413,53.523C515.931,53.283 515.397,53.155 514.824,53.131C513.616,53.048 512.109,52.984 510.307,52.928C508.504,52.877 506.819,52.853 505.243,52.853L491.619,52.853C491.104,52.853 490.845,52.733 490.845,52.499C490.845,52.128 490.968,51.843 491.211,51.632C491.451,51.419 491.816,51.197 492.299,50.955C492.843,50.693 493.259,50.429 493.549,50.171C493.835,49.909 493.981,49.509 493.981,48.987L493.981,27.395C493.981,26.869 493.821,26.464 493.501,26.189C493.187,25.912 492.739,25.645 492.163,25.381C491.709,25.197 491.376,25.027 491.16,24.864C490.952,24.712 490.845,24.499 490.845,24.235C490.845,23.763 491.104,23.528 491.619,23.528L505.653,23.528C506.075,23.528 506.288,23.709 506.288,24.077C506.288,24.392 506.165,24.64 505.925,24.808C505.68,24.979 505.32,25.163 504.832,25.344C504.288,25.584 503.872,25.8 503.587,26.011C503.299,26.221 503.152,26.552 503.152,27L503.152,48.904C503.152,49.723 503.24,50.283 503.403,50.581C503.571,50.885 503.909,51.035 504.424,51.035C505.696,51.035 506.915,50.856 508.083,50.485C509.245,50.112 510.317,49.635 511.285,49.045C512.253,48.453 513.101,47.864 513.827,47.288C514.555,46.709 515.397,45.987 516.368,45.117C517.157,44.405 517.739,43.904 518.117,43.611C518.493,43.331 518.824,43.181 519.093,43.181C519.488,43.181 519.739,43.232 519.843,43.32M486.069,33.155C485.477,34.816 484.699,36.373 483.728,37.832C482.76,39.296 481.744,40.624 480.688,41.819C479.627,43.016 478.307,44.421 476.733,46.024L476.552,46.221C476.493,46.304 476.355,46.435 476.141,46.613C475.72,46.984 475.512,47.275 475.512,47.485C475.512,47.563 475.568,47.675 475.693,47.821C475.811,47.963 475.979,48.155 476.192,48.395C476.552,48.763 476.733,48.987 476.733,49.061C476.733,49.355 476.707,49.563 476.645,49.693C476.584,49.829 476.432,49.947 476.192,50.051C476.037,50.101 475.675,50.261 475.101,50.525C474.315,50.893 473.611,51.211 472.989,51.469C472.368,51.733 471.715,51.995 471.037,52.261C470.352,52.525 469.672,52.741 468.992,52.909C468.309,53.083 467.709,53.168 467.197,53.168C466.136,53.168 465.611,52.747 465.611,51.907C465.611,51.747 465.64,51.509 465.701,51.197C465.757,50.88 465.792,50.643 465.792,50.485C465.792,50.352 465.744,50.181 465.651,49.973C465.651,49.947 465.64,49.92 465.611,49.893L462.384,42.115C462.2,41.643 461.973,41.405 461.701,41.405C461.579,41.405 461.213,41.696 460.589,42.275C459.971,42.853 459.288,43.52 458.547,44.285C457.805,45.053 457.168,45.744 456.64,46.36C456.109,46.976 455.843,47.355 455.843,47.485C455.843,47.563 455.907,47.675 456.029,47.821C456.147,47.963 456.315,48.155 456.525,48.395C456.891,48.763 457.072,48.987 457.072,49.061C457.072,49.355 457.04,49.563 456.979,49.693C456.92,49.829 456.768,49.947 456.525,50.051C456.373,50.101 456.011,50.261 455.437,50.525C454.648,50.893 453.944,51.211 453.323,51.469C452.701,51.733 452.053,51.995 451.368,52.261C450.691,52.525 450.008,52.741 449.328,52.909C448.645,53.083 448.045,53.168 447.533,53.168C446.475,53.168 445.944,52.747 445.944,51.907C445.944,51.747 445.971,51.509 446.035,51.197C446.096,50.88 446.125,50.643 446.125,50.485C446.125,50.352 446.08,50.181 445.987,49.973C445.987,49.947 445.971,49.92 445.944,49.893L436.36,26.803C436.147,26.331 435.853,25.947 435.475,25.656C435.099,25.368 434.576,25.051 433.907,24.712C433.304,24.392 432.864,24.125 432.592,23.901C432.317,23.675 432.181,23.381 432.181,23.016C432.181,22.776 432.365,22.656 432.728,22.656L446.76,22.656C447.701,22.656 448.312,22.749 448.6,22.936C448.888,23.117 449.032,23.357 449.032,23.645C449.032,24.013 448.933,24.269 448.736,24.416C448.539,24.557 448.259,24.669 447.896,24.747C447.472,24.853 447.155,24.995 446.941,25.165C446.728,25.336 446.627,25.656 446.627,26.131L446.627,27.04C446.627,27.565 446.715,28.051 446.896,28.504L454.163,44.448C454.467,45.101 454.725,45.429 454.936,45.429C455.24,45.429 455.661,45.101 456.208,44.448C456.749,43.789 457.325,42.968 457.933,41.979C458.539,40.989 459.035,40.045 459.429,39.133C459.824,38.229 460.021,37.539 460.021,37.064C460.021,36.563 459.84,35.907 459.48,35.091L456.029,26.803C455.813,26.331 455.517,25.947 455.139,25.656C454.763,25.368 454.24,25.051 453.576,24.712C452.968,24.392 452.528,24.125 452.259,23.901C451.984,23.675 451.848,23.381 451.848,23.016C451.848,22.776 452.029,22.656 452.392,22.656L466.424,22.656C467.365,22.656 467.976,22.749 468.261,22.936C468.552,23.117 468.696,23.357 468.696,23.645C468.696,24.013 468.6,24.269 468.403,24.416C468.205,24.557 467.923,24.669 467.563,24.747C467.139,24.853 466.819,24.995 466.611,25.165C466.397,25.336 466.291,25.656 466.291,26.131L466.291,27.04C466.291,27.565 466.379,28.051 466.56,28.504L473.829,44.448C474.131,45.101 474.389,45.429 474.6,45.429C474.784,45.429 475.117,45.133 475.6,44.52L475.645,44.485C477.157,42.749 478.339,40.845 479.189,38.779C480.035,36.717 480.459,34.632 480.459,32.525C480.459,30.997 480.171,29.755 479.595,28.795C479.019,27.835 478.157,26.987 477.005,26.248C476.947,26.197 476.915,26.131 476.915,26.053C476.915,25.819 477.187,25.472 477.733,25.008C478.28,24.547 478.968,24.067 479.803,23.568C480.632,23.064 481.445,22.653 482.229,22.323C483.019,21.995 483.624,21.829 484.045,21.829C484.229,21.829 484.365,21.853 484.456,21.909C485.485,22.568 486.157,23.395 486.477,24.392C486.797,25.397 486.955,26.603 486.955,28.024C486.955,29.792 486.656,31.491 486.069,33.155M413.544,41.131L413.589,41.131L419.221,39.197C419.736,39.037 419.992,38.784 419.992,38.445C419.992,38.288 419.947,38.117 419.859,37.928L417.541,32.96C417.357,32.565 417.163,32.368 416.949,32.368C416.736,32.368 416.493,32.619 416.221,33.115L412.635,39.944L412.453,40.339C412.24,40.707 412.136,40.957 412.136,41.088C412.136,41.299 412.256,41.405 412.499,41.405C412.648,41.405 413.003,41.312 413.544,41.131M435.477,48.904C435.6,49.115 435.789,49.288 436.048,49.419C436.304,49.549 436.72,49.709 437.293,49.893C438.144,50.181 438.803,50.485 439.269,50.8C439.744,51.117 439.976,51.589 439.976,52.221C439.976,52.64 439.675,52.853 439.067,52.853L425.896,52.853C425.624,52.853 425.331,52.845 425.011,52.832C424.693,52.816 424.344,52.792 423.965,52.755C423.589,52.715 423.269,52.651 423.013,52.557C422.755,52.461 422.629,52.336 422.629,52.181C422.629,51.813 422.731,51.525 422.944,51.315C423.157,51.101 423.459,50.88 423.853,50.643C424.248,50.429 424.533,50.235 424.717,50.051C424.896,49.864 424.987,49.629 424.987,49.341C424.987,49.155 424.912,48.893 424.763,48.549L422.765,44.285C422.581,43.861 422.264,43.656 421.811,43.656C421.627,43.656 421.371,43.715 421.037,43.816L410.456,47.208C409.549,47.496 408.933,47.792 408.613,48.096C408.299,48.4 408.139,48.797 408.139,49.301C408.139,49.773 408.251,50.12 408.477,50.344C408.709,50.568 409.032,50.773 409.459,50.955C409.848,51.117 410.139,51.277 410.323,51.453C410.501,51.621 410.592,51.877 410.592,52.221C410.592,52.64 410.288,52.853 409.683,52.853L401.963,52.853C401.299,52.853 400.963,52.605 400.963,52.104C400.963,51.787 401.077,51.525 401.304,51.315C401.531,51.101 401.885,50.867 402.373,50.603C402.917,50.288 403.379,49.984 403.757,49.693C404.136,49.405 404.443,49.024 404.688,48.549C405.413,47.237 406.28,45.648 407.275,43.795C408.275,41.939 409.221,40.168 410.115,38.485C411.008,36.803 411.877,35.117 412.725,33.435C413.576,31.744 414.363,30.141 415.088,28.619C414.875,28.408 414.573,28.141 414.181,27.829C413.787,27.464 413.499,27.179 413.317,26.981C413.136,26.781 413.043,26.563 413.043,26.331C413.043,26.144 413.104,26 413.224,25.891C413.347,25.789 413.525,25.669 413.773,25.539L413.955,25.464C414.224,25.299 414.747,25.069 415.52,24.768C416.291,24.467 417.139,24.163 418.061,23.861C418.987,23.557 419.904,23.301 420.813,23.091C421.72,22.885 422.488,22.776 423.125,22.776C424.125,22.776 424.624,23.067 424.624,23.645L424.624,24.435C424.595,24.829 424.579,25.064 424.579,25.147C424.579,25.592 424.733,26.144 425.032,26.803L435.477,48.904ZM398.888,49.813C398.587,50.392 398.115,50.955 397.48,51.509C396.813,52.061 396.029,52.517 395.123,52.872C394.211,53.224 393.091,53.403 391.755,53.403C389.184,53.403 387.24,52.635 385.92,51.099C384.603,49.557 383.824,47.459 383.584,44.797C383.429,42.853 382.736,41.235 381.493,39.944C380.981,39.395 380.424,38.971 379.837,38.683C379.245,38.395 378.709,38.251 378.221,38.251C377.227,38.251 376.728,38.813 376.728,39.944L376.728,48.904C376.728,49.432 376.869,49.84 377.157,50.125C377.445,50.419 377.861,50.704 378.403,50.995C378.827,51.237 379.133,51.432 379.312,51.589C379.493,51.747 379.587,51.96 379.587,52.221C379.587,52.64 379.328,52.853 378.813,52.853L365.187,52.853C364.675,52.853 364.416,52.733 364.416,52.499C364.416,52.128 364.541,51.843 364.781,51.632C365.024,51.419 365.384,51.197 365.872,50.955C366.419,50.693 366.832,50.429 367.117,50.171C367.405,49.909 367.552,49.509 367.552,48.987L367.552,32.88C367.552,31.939 367.405,31.163 367.117,30.573C366.832,29.979 366.464,29.533 366.008,29.232C365.555,28.928 365.085,28.725 364.6,28.619C364.117,28.515 363.571,28.435 362.965,28.381C362.419,28.328 362.037,28.264 361.805,28.181C361.579,28.104 361.467,27.976 361.467,27.789C361.467,27.344 361.8,26.893 362.464,26.448C364.189,25.312 366.331,24.432 368.888,23.781C371.451,23.139 374.179,22.813 377.088,22.813C383.597,22.813 388.472,23.541 391.709,24.981C394.952,26.435 396.573,28.448 396.573,31.021C396.573,32.997 395.72,34.643 394.027,35.96C392.336,37.277 390.168,37.928 387.533,37.928C386.141,37.928 385.4,38.064 385.309,38.328C385.309,38.64 385.869,39.021 386.989,39.472C387.96,39.867 388.827,40.296 389.6,40.755C390.371,41.216 391.045,41.76 391.621,42.395C392.048,42.867 392.608,43.504 393.301,44.331C394.211,45.456 394.965,46.267 395.573,46.755C396.179,47.243 396.904,47.485 397.752,47.485C398.235,47.485 398.613,47.536 398.888,47.643C399.163,47.747 399.312,47.984 399.344,48.355C399.344,48.747 399.187,49.237 398.888,49.813M376.768,35.901C376.803,36.28 376.875,36.579 377,36.787C377.117,36.997 377.299,37.128 377.541,37.184C377.787,37.237 378.179,37.256 378.725,37.256C380.901,37.256 382.616,36.704 383.856,35.584C385.096,34.469 385.717,33.083 385.717,31.419C385.717,30.365 385.432,29.429 384.856,28.619C384.28,27.803 383.477,27.133 382.448,26.603C381.416,26.08 380.243,25.68 378.931,25.416C377.611,25.163 376.197,25.027 374.68,25.027C374.195,25.027 373.747,25.051 373.32,25.107C372.896,25.163 372.667,25.208 372.637,25.261C372.637,25.291 372.653,25.299 372.683,25.299C372.984,25.381 373.592,25.488 374.501,25.616C375.501,25.752 376.251,25.88 376.747,26.011C377.248,26.144 377.496,26.341 377.496,26.603C377.496,27.077 377.376,27.643 377.133,28.301C377.013,28.645 376.915,28.968 376.84,29.269C376.763,29.573 376.728,29.947 376.728,30.395L376.728,34.027C376.728,34.893 376.739,35.52 376.768,35.901M313.131,23.107C314.667,20.347 316.811,17.989 319.555,16.032C322.299,14.08 325.435,12.573 328.963,11.52C332.488,10.469 336.176,9.944 340.024,9.944C340.803,9.944 342.013,10 343.659,10.112C345.168,10.221 346.293,10.283 347.032,10.283C347.851,10.283 348.632,10.16 349.365,9.917C350.101,9.672 350.944,9.304 351.896,8.816C352.939,8.325 353.627,8.08 353.973,8.08C354.448,8.08 354.827,8.344 355.109,8.869C355.389,9.397 355.531,10.037 355.531,10.789C355.531,10.939 355.512,11.125 355.467,11.355C355.421,11.576 355.333,12.125 355.205,12.987C354.989,13.963 354.883,14.528 354.883,14.68C354.883,15.504 354.816,16.259 354.691,16.936C354.555,17.611 354.275,18.267 353.845,18.907C353.411,19.547 352.752,20.061 351.864,20.459C350.976,20.856 349.821,21.051 348.392,21.051C347.096,21.051 345.981,20.805 345.053,20.317C344.125,19.827 343.072,19.109 341.907,18.176C340.565,17.083 339.344,16.259 338.24,15.693C337.139,15.128 335.741,14.851 334.056,14.851C330.467,14.851 327.547,16.021 325.299,18.371C323.048,20.723 321.923,23.723 321.923,27.365C321.923,29.923 322.379,32.232 323.285,34.301C324.195,36.373 325.491,38.128 327.179,39.571C328.864,41.021 330.856,42.12 333.149,42.875C335.44,43.621 337.949,43.995 340.675,43.995C341.971,43.995 343.379,43.872 344.891,43.629C346.405,43.387 347.949,43.04 349.531,42.589C351.107,42.139 352.568,41.627 353.909,41.04C355.248,40.459 356.395,39.867 357.349,39.264C357.52,39.152 357.803,38.925 358.195,38.587C358.621,38.251 358.968,37.987 359.229,37.797C359.488,37.608 359.704,37.517 359.88,37.517C360.179,37.517 360.331,37.797 360.331,38.363C360.331,40.467 359.616,42.467 358.195,44.368C356.763,46.264 354.816,47.947 352.352,49.413C349.885,50.88 347.163,52.019 344.176,52.824C341.192,53.632 338.227,54.037 335.288,54.037C331.483,54.037 328.043,53.475 324.973,52.344C321.899,51.219 319.317,49.637 317.221,47.608C315.12,45.576 313.533,43.248 312.448,40.613C311.371,37.987 310.829,35.187 310.829,32.213C310.829,28.907 311.597,25.875 313.131,23.107M262.048,36.275C261.411,35.512 260.92,34.92 260.571,34.499C260.224,34.075 259.989,33.867 259.867,33.867C259.627,33.92 259.504,34.197 259.504,34.696L259.504,37.696C259.504,39.515 259.701,41.427 260.093,43.44C260.485,45.451 261.003,47.115 261.64,48.432C261.941,49.064 262.272,49.597 262.637,50.032C263,50.467 263.395,50.88 263.819,51.275C264.275,51.696 264.501,51.984 264.501,52.141C264.501,52.619 264.243,52.853 263.731,52.853L252.645,52.853C252.253,52.853 252.056,52.619 252.056,52.141C252.056,51.8 252.376,51.339 253.008,50.76C253.496,50.339 253.909,49.92 254.259,49.496C254.608,49.072 254.917,48.549 255.189,47.92C255.461,47.315 255.696,46.576 255.893,45.709C256.091,44.84 256.243,43.928 256.347,42.968C256.451,42.005 256.531,41.027 256.576,40.021C256.621,39.027 256.643,38.104 256.643,37.256L256.643,32.091C256.643,31.333 256.568,30.749 256.419,30.352C256.264,29.96 255.869,29.629 255.235,29.368C254.629,29.104 253.811,28.8 252.787,28.461C251.997,28.195 251.443,27.987 251.123,27.829C250.808,27.672 250.648,27.501 250.648,27.315C250.648,27.184 250.709,27.064 250.829,26.957C251.405,26.355 252.149,25.776 253.056,25.227C253.963,24.669 254.952,24.197 256.029,23.803C257.101,23.405 258.2,23.099 259.32,22.875C260.443,22.653 261.517,22.541 262.549,22.541C262.699,22.541 262.859,22.629 263.021,22.816C263.192,23 263.469,23.395 263.864,24C264.741,25.312 265.725,26.701 266.816,28.163C267.907,29.627 269.419,31.483 271.36,33.747C273.384,36.144 275.461,38.301 277.581,40.224C277.912,40.536 278.184,40.699 278.397,40.699C278.579,40.64 278.669,40.403 278.669,39.984L278.669,38.405C278.669,36.773 278.512,35 278.189,33.083C277.875,31.155 277.411,29.565 276.808,28.301C276.533,27.723 276.232,27.224 275.899,26.803C275.565,26.379 275.155,25.917 274.672,25.416C274.005,24.712 273.672,24.2 273.672,23.88C273.672,23.432 273.933,23.211 274.445,23.211L284.893,23.211C285.557,23.211 285.888,23.485 285.888,24.037C285.888,24.248 285.664,24.589 285.211,25.064C284.725,25.592 284.277,26.144 283.869,26.723C283.459,27.301 283.045,28.136 282.619,29.232C282.197,30.32 281.845,31.757 281.576,33.552C281.304,35.339 281.168,37.483 281.168,39.984L281.168,42.08C281.168,43 281.437,43.597 281.987,43.856C283.317,44.507 284.232,45.011 284.731,45.355C285.232,45.699 285.483,45.971 285.483,46.181C285.483,46.443 285.307,46.765 284.957,47.131C284.611,47.496 284.056,48.011 283.301,48.669C282.395,49.459 281.789,50.029 281.483,50.365C281.213,50.68 280.819,51.261 280.304,52.104C279.821,52.941 279.387,53.584 279.008,54.019C278.629,54.445 278.213,54.667 277.763,54.667C277.608,54.667 277.243,54.373 276.672,53.779C276.093,53.189 275.376,52.381 274.515,51.352C273.651,50.323 272.765,49.264 271.856,48.176C270.949,47.08 269.827,45.723 268.496,44.093C267.315,42.619 266.277,41.349 265.387,40.28C264.491,39.213 263.771,38.368 263.229,37.733C263.045,37.528 262.651,37.037 262.048,36.275M237.173,29.565C236.539,29.619 235.883,29.725 235.219,29.88C234.552,30.04 233.987,30.264 233.517,30.552C233.045,30.843 232.813,31.216 232.813,31.659C232.813,32.184 232.957,32.549 233.243,32.76C233.533,32.976 233.931,33.155 234.451,33.317C234.781,33.392 235.016,33.472 235.149,33.552C235.285,33.629 235.357,33.747 235.357,33.907C235.357,34.248 235.189,34.549 234.859,34.816C234.523,35.08 234.109,35.296 233.608,35.469C233.109,35.64 232.587,35.763 232.04,35.843C231.496,35.923 230.981,35.96 230.496,35.96C229.373,35.853 228.448,35.6 227.704,35.189C226.96,34.781 226.395,34.301 226,33.747C225.605,33.197 225.325,32.661 225.16,32.152C224.992,31.635 224.867,31.115 224.776,30.592C224.712,30.195 224.653,29.997 224.595,29.997C224.259,29.997 223.979,30.157 223.755,30.472C223.525,30.784 223.36,31.195 223.253,31.677C223.149,32.165 223.08,32.661 223.048,33.179C223.016,33.688 223.005,34.184 223.005,34.659C223.005,35.869 223.299,37.157 223.891,38.523C224.48,39.896 225.317,41.176 226.408,42.373C227.501,43.573 228.808,44.544 230.339,45.293C231.867,46.043 233.541,46.421 235.357,46.421C239.019,46.421 241.827,45.656 243.779,44.128C245.731,42.603 246.712,40.605 246.712,38.131C246.712,35.659 246.008,33.595 244.597,31.955C243.192,30.309 241.229,29.485 238.717,29.485C238.325,29.485 237.808,29.515 237.173,29.565M240.533,23.957C242.592,24.747 244.376,25.856 245.893,27.275C247.405,28.696 248.571,30.331 249.392,32.192C250.205,34.045 250.616,36.024 250.616,38.131C250.616,40.184 250.101,42.157 249.072,44.051C248.04,45.944 246.632,47.611 244.848,49.045C243.064,50.477 241.027,51.603 238.739,52.416C236.451,53.235 234.115,53.637 231.725,53.637C229.328,53.637 227.107,53.277 225.048,52.557C222.989,51.832 221.203,50.8 219.685,49.459C218.171,48.112 217.008,46.552 216.192,44.76C215.373,42.973 214.963,41.037 214.963,38.957C214.963,37.173 215.296,35.483 215.963,33.907C216.629,32.328 217.517,30.947 218.621,29.76C219.723,28.576 220.891,27.661 222.12,27.021C223.344,26.373 224.485,26.053 225.544,26.053C225.821,26.053 226.045,25.979 226.227,25.835C226.408,25.691 226.667,25.408 227,24.981C227.152,24.779 227.467,24.547 227.952,24.299C228.437,24.048 229.029,23.803 229.723,23.568C230.424,23.325 231.133,23.139 231.859,22.995C232.587,22.848 233.253,22.776 233.859,22.776C236.248,22.776 238.472,23.171 240.533,23.957M195.288,38.957C194.792,39.168 194.285,39.459 193.768,39.827C193.405,40.093 193.171,40.347 193.064,40.597C192.96,40.845 192.907,41.171 192.907,41.563L192.907,48.904C192.907,49.723 192.989,50.283 193.155,50.581C193.323,50.885 193.661,51.035 194.179,51.035C195.208,51.035 196.296,50.917 197.445,50.68C198.595,50.443 199.723,50.12 200.829,49.717C201.936,49.307 202.981,48.84 203.965,48.315C204.947,47.784 205.805,47.248 206.531,46.696C207.107,46.248 207.597,45.8 208.005,45.355C208.416,44.904 208.832,44.389 209.256,43.816C209.861,43.051 210.283,42.667 210.525,42.667C210.891,42.667 211.109,42.781 211.187,43.008C211.261,43.232 211.299,43.605 211.299,44.123C211.299,44.656 211.245,45.101 211.141,45.475C211.032,45.843 210.856,46.288 210.621,46.813C210.344,47.416 210.163,47.904 210.075,48.275C210.013,48.643 209.92,49.104 209.803,49.653C209.56,51.021 209.323,52.037 209.099,52.693C208.872,53.352 208.517,53.68 208.029,53.68C207.997,53.68 207.891,53.637 207.712,53.563C207.224,53.325 206.696,53.195 206.12,53.168C205.515,53.141 204.683,53.101 203.621,53.048C202.565,52.997 201.603,52.957 200.739,52.928C199.875,52.904 198.877,52.885 197.744,52.872C196.611,52.859 195.691,52.853 194.997,52.853L181.371,52.853C180.856,52.853 180.597,52.733 180.597,52.499C180.597,52.128 180.72,51.843 180.963,51.632C181.205,51.419 181.568,51.197 182.053,50.955C182.597,50.693 183.011,50.429 183.301,50.171C183.587,49.909 183.731,49.509 183.731,48.987L183.731,27.395C183.731,26.869 183.573,26.464 183.253,26.189C182.939,25.912 182.491,25.645 181.917,25.381C181.461,25.197 181.128,25.027 180.917,24.864C180.704,24.712 180.597,24.499 180.597,24.235C180.597,23.763 180.856,23.528 181.371,23.528L203.76,23.528C204.277,23.528 204.704,23.477 205.056,23.368C205.403,23.267 205.776,23.117 206.168,22.936C206.712,22.672 207.152,22.541 207.485,22.541C207.939,22.541 208.28,22.867 208.507,23.528C208.731,24.187 208.968,25.184 209.211,26.528C209.269,26.923 209.315,27.213 209.347,27.395C209.528,28.259 209.68,28.955 209.803,29.467C209.92,29.979 210.075,30.512 210.256,31.069C210.437,31.672 210.525,32.144 210.525,32.485C210.525,33.013 210.227,33.277 209.619,33.277C209.285,33.277 208.907,33.091 208.483,32.725C208.061,32.355 207.515,31.773 206.848,30.987C206.243,30.304 205.728,29.749 205.301,29.331C204.88,28.907 204.456,28.565 204.032,28.301C202.576,27.408 201.088,26.715 199.56,26.229C198.032,25.741 196.419,25.499 194.725,25.499C193.963,25.499 193.475,25.6 193.248,25.795C193.021,25.995 192.907,26.397 192.907,27L192.907,36.312C192.907,36.709 192.941,36.979 193.021,37.123C193.096,37.267 193.269,37.341 193.541,37.341C193.755,37.341 194.056,37.011 194.451,36.355C194.72,35.907 194.987,35.512 195.245,35.168C195.501,34.829 195.84,34.485 196.267,34.144C196.691,33.803 197.203,33.525 197.811,33.317C198.416,33.104 199.125,32.997 199.944,32.997C201.52,32.997 202.861,33.32 203.965,33.965C205.072,34.611 205.624,35.291 205.624,35.995C205.624,36.237 205.539,36.445 205.371,36.632C205.205,36.816 204.939,37.064 204.579,37.376C204.093,37.776 203.728,38.104 203.488,38.368C203.243,38.656 202.915,39.077 202.488,39.632C202.035,40.235 201.68,40.669 201.419,40.933C201.163,41.192 200.931,41.325 200.717,41.325C200.472,41.325 200.269,41.248 200.101,41.088C199.936,40.933 199.733,40.669 199.493,40.301C199.125,39.776 198.771,39.365 198.427,39.077C198.077,38.784 197.584,38.64 196.949,38.64C196.341,38.64 195.789,38.749 195.288,38.957M174.707,45.709C174.707,45.971 174.829,46.325 175.069,46.773C175.28,47.139 175.389,47.416 175.389,47.605C175.389,47.784 175.184,47.984 174.776,48.195C174.365,48.405 174.011,48.536 173.712,48.589C172.499,48.776 171.421,49.035 170.485,49.376C169.544,49.723 168.411,50.197 167.077,50.8C165.32,51.589 163.768,52.181 162.421,52.576C161.075,52.968 159.448,53.168 157.541,53.168C155.085,53.168 152.795,52.816 150.659,52.12C148.523,51.424 146.664,50.419 145.072,49.104C143.485,47.784 142.248,46.213 141.373,44.381C140.493,42.557 140.053,40.552 140.053,38.368C140.053,36.104 140.541,34.013 141.509,32.091C142.48,30.171 143.835,28.515 145.573,27.12C147.315,25.723 149.349,24.651 151.68,23.901C154.013,23.149 156.509,22.776 159.176,22.776C160.355,22.776 161.413,22.835 162.355,22.955C163.293,23.072 164.445,23.251 165.805,23.485C166.896,23.696 167.84,23.859 168.645,23.957C169.448,24.067 170.288,24.117 171.168,24.117C171.709,24.117 172.168,24.08 172.528,24C172.888,23.92 173.283,23.803 173.712,23.645C174.344,23.405 174.901,23.288 175.389,23.288C175.752,23.288 175.933,23.448 175.933,23.763C175.691,24.816 175.456,25.723 175.229,26.485C175.003,27.248 174.683,27.968 174.277,28.64C173.869,29.307 173.344,29.848 172.709,30.259C172.072,30.664 171.301,30.867 170.395,30.867C169.363,30.867 168.509,30.651 167.827,30.216C167.147,29.781 166.352,29.12 165.443,28.221C164.445,27.224 163.517,26.464 162.675,25.955C161.824,25.437 160.72,25.184 159.355,25.184C157.845,25.184 156.491,25.432 155.291,25.936C154.093,26.435 153.115,27.107 152.341,27.947C151.568,28.789 150.987,29.763 150.592,30.867C150.197,31.973 150.003,33.128 150.003,34.339C150.003,36.368 150.32,38.237 150.957,39.944C151.589,41.656 152.515,43.131 153.725,44.381C154.936,45.635 156.44,46.6 158.245,47.288C160.048,47.973 162.083,48.315 164.355,48.315C164.504,48.315 164.627,48.277 164.715,48.195C164.805,48.112 164.856,47.944 164.856,47.68L164.856,40.224C164.856,39.275 164.451,38.512 163.648,37.928C162.848,37.352 161.917,37.064 160.856,37.064C160.067,37.064 159.379,37.277 158.792,37.696C158.2,38.117 157.845,38.723 157.723,39.515C157.659,39.904 157.579,40.224 157.472,40.459C157.365,40.699 157.208,40.816 156.992,40.816C156.509,40.816 155.973,40.733 155.384,40.576C154.795,40.419 154.224,40.211 153.683,39.944C153.133,39.685 152.696,39.405 152.363,39.117C152.029,38.829 151.864,38.552 151.864,38.288C151.864,37.549 152.075,36.928 152.499,36.413C152.92,35.901 153.499,35.488 154.224,35.189C154.952,34.888 155.795,34.672 156.747,34.539C157.699,34.408 158.752,34.339 159.904,34.339C160.931,34.339 161.877,34.392 162.741,34.499C163.605,34.605 164.643,34.76 165.848,34.973C167.152,35.211 168.28,35.389 169.235,35.504C170.187,35.621 171.256,35.683 172.437,35.683C173.221,35.683 173.965,35.605 174.661,35.469C175.357,35.32 176.176,35.117 177.117,34.856C177.779,34.672 178.189,34.576 178.339,34.576C178.643,34.576 178.896,34.712 179.091,34.973C179.283,35.237 179.387,35.512 179.387,35.8C179.387,35.987 179.272,36.171 179.048,36.355C178.816,36.539 178.448,36.787 177.931,37.104C176.933,37.709 176.147,38.301 175.571,38.88C174.995,39.459 174.707,40.157 174.707,40.971L174.707,45.709ZM114.411,36.275C113.771,35.512 113.283,34.92 112.931,34.499C112.587,34.075 112.349,33.867 112.229,33.867C111.987,33.92 111.867,34.197 111.867,34.696L111.867,37.696C111.867,39.515 112.064,41.427 112.459,43.44C112.848,45.451 113.365,47.115 114.003,48.432C114.301,49.064 114.637,49.597 115.003,50.032C115.363,50.467 115.757,50.88 116.179,51.275C116.635,51.696 116.861,51.984 116.861,52.141C116.861,52.619 116.603,52.853 116.091,52.853L105.008,52.853C104.619,52.853 104.421,52.619 104.421,52.141C104.421,51.8 104.736,51.339 105.373,50.76C105.856,50.339 106.272,49.92 106.619,49.496C106.968,49.072 107.28,48.549 107.549,47.92C107.821,47.315 108.059,46.576 108.256,45.709C108.453,44.84 108.605,43.928 108.707,42.968C108.816,42.005 108.891,41.027 108.939,40.021C108.981,39.027 109.005,38.104 109.005,37.256L109.005,32.091C109.005,31.333 108.931,30.749 108.779,30.352C108.627,29.96 108.232,29.629 107.597,29.368C106.992,29.104 106.176,28.8 105.147,28.461C104.357,28.195 103.805,27.987 103.488,27.829C103.168,27.672 103.011,27.501 103.011,27.315C103.011,27.184 103.072,27.064 103.189,26.957C103.765,26.355 104.509,25.776 105.419,25.227C106.328,24.669 107.32,24.197 108.392,23.803C109.464,23.405 110.565,23.099 111.685,22.875C112.803,22.653 113.88,22.541 114.909,22.541C115.061,22.541 115.221,22.629 115.387,22.816C115.555,23 115.829,23.395 116.224,24C117.107,25.312 118.088,26.701 119.181,28.163C120.269,29.627 121.779,31.483 123.72,33.747C125.747,36.144 127.821,38.301 129.944,40.224C130.275,40.536 130.547,40.699 130.76,40.699C130.941,40.64 131.032,40.403 131.032,39.984L131.032,38.405C131.032,36.773 130.872,35 130.555,33.083C130.235,31.155 129.773,29.565 129.171,28.301C128.893,27.723 128.595,27.224 128.264,26.803C127.931,26.379 127.52,25.917 127.032,25.416C126.371,24.712 126.035,24.2 126.035,23.88C126.035,23.432 126.293,23.211 126.805,23.211L137.253,23.211C137.92,23.211 138.253,23.485 138.253,24.037C138.253,24.248 138.027,24.589 137.573,25.064C137.088,25.592 136.637,26.144 136.232,26.723C135.821,27.301 135.408,28.136 134.987,29.232C134.557,30.32 134.208,31.757 133.936,33.552C133.667,35.339 133.528,37.483 133.528,39.984L133.528,42.08C133.528,43 133.803,43.597 134.347,43.856C135.68,44.507 136.592,45.011 137.096,45.355C137.592,45.699 137.845,45.971 137.845,46.181C137.845,46.443 137.669,46.765 137.323,47.131C136.971,47.496 136.419,48.011 135.664,48.669C134.755,49.459 134.149,50.029 133.848,50.365C133.576,50.68 133.181,51.261 132.667,52.104C132.181,52.941 131.749,53.584 131.373,54.019C130.992,54.445 130.576,54.667 130.123,54.667C129.971,54.667 129.608,54.373 129.035,53.779C128.456,53.189 127.736,52.381 126.875,51.352C126.011,50.323 125.125,49.264 124.219,48.176C123.309,47.08 122.187,45.723 120.856,44.093C119.677,42.619 118.64,41.349 117.747,40.28C116.853,39.213 116.136,38.368 115.595,37.733C115.411,37.528 115.016,37.037 114.411,36.275M79.592,40.536C79.592,42.931 80.2,44.821 81.429,46.2C82.656,47.581 84.403,48.275 86.675,48.275C89.611,48.275 91.776,47.424 93.168,45.728C94.563,44.029 95.256,41.667 95.256,38.64C95.256,36.829 95.024,35.355 94.552,34.221C94.083,33.091 93.411,32.043 92.533,31.069C92.261,30.749 91.776,30.317 91.08,29.76C90.355,29.157 89.808,28.645 89.445,28.221C89.08,27.803 88.899,27.328 88.899,26.803C88.899,26.563 89.117,26.219 89.56,25.757C89.997,25.296 90.549,24.816 91.216,24.317C91.883,23.816 92.536,23.4 93.192,23.072C93.84,22.744 94.376,22.581 94.805,22.581C95.075,22.581 95.272,22.629 95.395,22.733C96.149,23.683 96.763,24.552 97.232,25.344C97.704,26.131 98.072,26.968 98.344,27.848C98.619,28.728 98.816,29.736 98.933,30.867C99.059,31.997 99.117,33.392 99.117,35.051C99.117,37.632 98.816,40.037 98.211,42.275C97.603,44.507 96.659,46.483 95.373,48.195C94.083,49.909 92.411,51.251 90.355,52.221C88.293,53.195 85.859,53.68 83.043,53.68C80.981,53.68 79.141,53.392 77.52,52.832C75.904,52.267 74.571,51.515 73.528,50.581C72.48,49.648 71.693,48.637 71.168,47.544C70.635,46.451 70.371,45.392 70.371,44.368L70.371,29.211C70.371,28.683 70.219,28.272 69.915,27.968C69.616,27.661 69.157,27.355 68.555,27.04C68.131,26.776 67.811,26.552 67.6,26.368C67.387,26.184 67.28,25.963 67.28,25.699C67.28,25.411 67.347,25.184 67.485,25.027C67.624,24.864 67.979,24.779 68.555,24.747C69.221,24.699 69.84,24.597 70.416,24.453C70.989,24.309 71.685,24.104 72.504,23.843C73.776,23.445 74.941,23.139 76.003,22.915C77.061,22.691 78.347,22.581 79.861,22.581C80.133,22.581 80.395,22.624 80.635,22.717C80.877,22.808 80.997,22.973 80.997,23.211C80.997,23.528 80.947,23.768 80.837,23.941C80.733,24.109 80.573,24.288 80.36,24.475C80.117,24.683 79.931,24.901 79.795,25.123C79.659,25.352 79.592,25.68 79.592,26.131L79.592,40.536ZM16.157,21.024C15.747,20.176 15.216,19.539 14.571,19.104C13.92,18.675 13.251,18.379 12.555,18.232C11.864,18.08 11.085,17.968 10.221,17.891C9.443,17.819 8.891,17.72 8.568,17.611C8.243,17.499 8.08,17.309 8.08,17.048C8.08,16.403 8.555,15.771 9.509,15.128C11.973,13.515 15.032,12.245 18.685,11.325C22.341,10.403 26.248,9.944 30.397,9.944C34.291,9.944 38.131,10.328 41.917,11.096C45.701,11.867 49.181,13.155 52.36,14.963C55.539,16.768 58.093,19.184 60.013,22.205C61.941,25.232 62.904,28.907 62.904,33.232C62.904,35.256 62.52,37.381 61.765,39.603C61.011,41.819 59.757,43.947 58.005,45.973C56.253,48.003 53.872,49.656 50.867,50.936C47.864,52.213 44.195,52.853 39.869,52.853L13.4,52.853C12.664,52.853 12.296,52.683 12.296,52.344C12.296,51.819 12.469,51.405 12.819,51.104C13.16,50.803 13.68,50.485 14.373,50.147C15.152,49.768 15.747,49.392 16.157,49.016C16.565,48.645 16.773,48.08 16.773,47.328L16.773,24.323C16.773,22.968 16.565,21.869 16.157,21.024M29.88,48.677C29.88,49.317 30.149,49.752 30.691,49.979C31.232,50.2 31.803,50.315 32.411,50.315C34.051,50.315 35.784,50.013 37.6,49.413C39.419,48.811 41.139,47.853 42.76,46.539C44.381,45.219 45.701,43.504 46.717,41.405C47.731,39.301 48.24,36.821 48.24,33.963C48.24,30.091 47.624,26.84 46.392,24.205C45.157,21.573 43.581,19.515 41.653,18.032C39.731,16.549 37.728,15.461 35.653,14.765C33.576,14.067 31.437,13.587 29.229,13.328C28.363,13.251 27.653,13.213 27.091,13.213C26.267,13.213 25.565,13.232 24.981,13.267C24.4,13.307 24.083,13.363 24.037,13.44C24.037,13.475 24.061,13.493 24.104,13.493C24.536,13.605 25.403,13.76 26.699,13.944C28.128,14.136 29.197,14.32 29.912,14.509C30.627,14.699 30.981,14.979 30.981,15.357C30.981,16.032 30.808,16.843 30.464,17.781C30.291,18.267 30.149,18.728 30.04,19.16C29.933,19.592 29.88,20.131 29.88,20.765L29.88,48.677Z" style="fill:white;fill-rule:nonzero;"/>
    </g>
</svg>
