<?xml version="1.0" encoding="UTF-8" standalone="no"?>
<!DOCTYPE svg PUBLIC "-//W3C//DTD SVG 1.1//EN" "http://www.w3.org/Graphics/SVG/1.1/DTD/svg11.dtd">
<svg width="100%" height="100%" viewBox="0 0 247 69" version="1.1" xmlns="http://www.w3.org/2000/svg" xmlns:xlink="http://www.w3.org/1999/xlink" xml:space="preserve" xmlns:serif="http://www.serif.com/" style="fill-rule:evenodd;clip-rule:evenodd;stroke-linejoin:round;">
    <path d="M10.4,25.216C12,22.101 14.197,19.413 16.992,17.152C19.787,14.891 22.987,13.152 26.592,11.936C30.197,10.72 33.984,10.112 37.952,10.112C38.805,10.112 40.107,10.176 41.856,10.304C43.264,10.389 44.224,10.432 44.736,10.432C45.419,10.432 46.485,10.048 47.936,9.28C49.515,8.427 50.709,8 51.52,8C52.587,8 53.365,8.352 53.856,9.056C54.347,9.76 54.592,10.539 54.592,11.392C54.592,11.648 54.485,12.395 54.272,13.632C54.059,14.827 53.952,15.531 53.952,15.744C53.952,16.683 53.877,17.547 53.728,18.336C53.579,19.125 53.237,19.893 52.704,20.64C52.171,21.387 51.36,22.005 50.272,22.496C49.184,22.987 47.787,23.232 46.08,23.232C44.331,23.232 42.88,22.912 41.728,22.272C40.576,21.632 39.339,20.672 38.016,19.392C36.907,18.368 35.936,17.6 35.104,17.088C34.272,16.576 33.28,16.32 32.128,16.32C29.184,16.32 26.752,17.568 24.832,20.064C22.912,22.56 21.952,25.856 21.952,29.952C21.952,35.712 23.488,40.192 26.56,43.392C29.632,46.592 33.643,48.192 38.592,48.192C40.981,48.192 43.605,47.691 46.464,46.688C49.323,45.685 51.776,44.437 53.824,42.944C53.867,42.944 53.931,42.88 54.016,42.752C54.485,42.24 54.987,41.803 55.52,41.44C56.053,41.077 56.64,40.896 57.28,40.896C57.92,40.896 58.411,41.045 58.752,41.344C59.093,41.643 59.264,41.941 59.264,42.24C59.264,44.544 58.517,46.784 57.024,48.96C55.531,51.136 53.515,53.067 50.976,54.752C48.437,56.437 45.621,57.76 42.528,58.72C39.435,59.68 36.373,60.16 33.344,60.16C29.376,60.16 25.803,59.499 22.624,58.176C19.445,56.853 16.768,55.04 14.592,52.736C12.416,50.432 10.773,47.787 9.664,44.8C8.555,41.813 8,38.677 8,35.392C8,31.723 8.8,28.331 10.4,25.216Z" style="fill:none;fill-rule:nonzero;stroke:rgb(35,31,32);stroke-width:16px;"/>
    <path d="M83.296,53.824C83.658,54.208 84.181,54.635 84.864,55.104C85.504,55.488 85.973,55.851 86.272,56.192C86.57,56.533 86.72,56.96 86.72,57.472C86.72,57.771 86.474,58.069 85.984,58.368C85.493,58.667 84.864,58.816 84.096,58.816L66.624,58.816C65.898,58.816 65.29,58.688 64.8,58.432C64.309,58.176 64.064,57.984 64.064,57.856C64.064,57.045 64.288,56.427 64.736,56C65.184,55.573 65.813,55.168 66.624,54.784C67.392,54.4 67.957,54.037 68.32,53.696C68.682,53.355 68.864,52.885 68.864,52.288L68.864,23.296C68.864,21.376 68.618,20 68.128,19.168C67.637,18.336 66.965,17.6 66.112,16.96C65.557,16.576 65.152,16.224 64.896,15.904C64.64,15.584 64.512,15.104 64.512,14.464C64.512,14.123 64.65,13.813 64.928,13.536C65.205,13.259 65.813,12.949 66.752,12.608C67.05,12.523 67.605,12.309 68.416,11.968C70.336,11.157 72.181,10.485 73.952,9.952C75.722,9.419 77.461,9.152 79.168,9.152C80.704,9.152 81.685,9.589 82.112,10.464C82.538,11.339 82.752,12.629 82.752,14.336L82.752,52.224C82.752,52.907 82.933,53.44 83.296,53.824Z" style="fill:none;fill-rule:nonzero;stroke:rgb(35,31,32);stroke-width:16px;"/>
    <path d="M108.096,29.824C107.029,29.824 106.176,30.133 105.536,30.752C104.896,31.371 104.426,32.149 104.128,33.088C103.829,34.027 103.637,34.955 103.552,35.872C103.466,36.789 103.424,37.781 103.424,38.848C103.424,40.213 103.509,41.259 103.68,41.984C103.808,42.539 103.872,42.901 103.872,43.072C105.834,42.091 107.445,41.195 108.704,40.384C109.962,39.573 111.232,38.528 112.512,37.248C112.682,37.035 112.768,36.715 112.768,36.288C112.768,36.032 112.704,35.712 112.576,35.328L112.512,35.136C111.957,33.6 111.328,32.331 110.624,31.328C109.92,30.325 109.098,29.824 108.16,29.824L108.096,29.824ZM127.744,34.176C127.872,34.475 127.936,34.709 127.936,34.88C127.936,35.093 127.786,35.307 127.488,35.52C127.189,35.733 126.762,35.968 126.208,36.224L125.504,36.608L107.328,46.4C106.986,46.571 106.816,46.784 106.816,47.04C106.816,47.125 106.837,47.232 106.88,47.36L106.88,47.488C106.88,47.531 106.837,47.552 106.752,47.552C108.202,48.363 109.621,48.96 111.008,49.344C112.394,49.728 113.984,49.92 115.776,49.92C116.458,49.92 117.546,49.664 119.04,49.152C120.533,48.64 122.24,47.723 124.16,46.4C124.33,46.315 124.437,46.251 124.48,46.208C125.589,45.568 126.528,45.248 127.296,45.248C127.936,45.248 128.416,45.365 128.736,45.6C129.056,45.835 129.216,46.016 129.216,46.144C129.216,46.357 129.066,46.848 128.768,47.616C128.085,49.152 127.146,50.624 125.952,52.032C124.757,53.44 123.36,54.688 121.76,55.776C120.16,56.864 118.378,57.717 116.416,58.336C114.453,58.955 112.384,59.264 110.208,59.264C107.562,59.264 105.077,58.891 102.752,58.144C100.426,57.397 98.389,56.341 96.64,54.976C94.89,53.611 93.525,52.011 92.544,50.176C91.562,48.341 91.072,46.357 91.072,44.224C91.072,41.664 91.648,39.189 92.8,36.8C93.952,34.411 95.53,32.277 97.536,30.4C99.541,28.523 101.813,27.051 104.352,25.984C106.89,24.917 109.482,24.384 112.128,24.384C115.456,24.384 118.442,25.195 121.088,26.816C123.733,28.437 125.717,30.421 127.04,32.768C127.381,33.408 127.616,33.877 127.744,34.176Z" style="fill:none;fill-rule:nonzero;stroke:rgb(35,31,32);stroke-width:16px;"/>
    <path d="M153.344,53.824C153.685,54.208 154.197,54.635 154.88,55.104C155.52,55.488 155.989,55.84 156.288,56.16C156.586,56.48 156.736,56.917 156.736,57.472C156.736,57.771 156.49,58.069 156,58.368C155.509,58.667 154.88,58.816 154.112,58.816L136.832,58.816C136.064,58.816 135.434,58.688 134.944,58.432C134.453,58.176 134.208,57.984 134.208,57.856C134.208,57.088 134.421,56.491 134.848,56.064C135.274,55.637 135.893,55.189 136.704,54.72C137.472,54.293 138.048,53.899 138.432,53.536C138.816,53.173 139.008,52.672 139.008,52.032L139.008,38.976C139.008,37.099 138.762,35.744 138.272,34.912C137.781,34.08 137.088,33.365 136.192,32.768C135.637,32.341 135.232,31.968 134.976,31.648C134.72,31.328 134.592,30.848 134.592,30.208C134.592,29.867 134.741,29.557 135.04,29.28C135.338,29.003 135.957,28.715 136.896,28.416C137.109,28.331 137.621,28.117 138.432,27.776C140.352,27.008 142.197,26.347 143.968,25.792C145.738,25.237 147.477,24.96 149.184,24.96C150.336,24.96 151.189,25.237 151.744,25.792C152.298,26.347 152.64,27.115 152.768,28.096C153.877,27.115 155.2,26.315 156.736,25.696C158.272,25.077 159.978,24.768 161.856,24.768C164.672,24.768 166.858,25.451 168.416,26.816C169.973,28.181 170.752,29.888 170.752,31.936C170.752,33.429 170.165,34.667 168.992,35.648C167.818,36.629 166.186,37.12 164.096,37.12C162.773,37.12 161.696,36.875 160.864,36.384C160.032,35.893 159.168,35.2 158.272,34.304C157.802,33.749 157.397,33.355 157.056,33.12C156.714,32.885 156.352,32.768 155.968,32.768C155.413,32.768 154.976,32.811 154.656,32.896C154.336,32.981 153.941,33.131 153.472,33.344C153.045,33.557 152.832,35.584 152.832,39.424L152.832,52.224C152.832,52.907 153.002,53.44 153.344,53.824Z" style="fill:none;fill-rule:nonzero;stroke:rgb(35,31,32);stroke-width:16px;"/>
    <path d="M194.783,53.824C195.146,54.208 195.668,54.635 196.351,55.104C196.991,55.488 197.46,55.851 197.759,56.192C198.058,56.533 198.207,56.96 198.207,57.472C198.207,57.771 197.962,58.069 197.471,58.368C196.98,58.667 196.351,58.816 195.583,58.816L178.111,58.816C177.386,58.816 176.778,58.688 176.287,58.432C175.796,58.176 175.551,57.984 175.551,57.856C175.551,57.088 175.764,56.48 176.191,56.032C176.618,55.584 177.258,55.147 178.111,54.72C178.836,54.293 179.391,53.899 179.775,53.536C180.159,53.173 180.351,52.672 180.351,52.032L180.351,38.848C180.351,36.928 180.106,35.552 179.615,34.72C179.124,33.888 178.431,33.173 177.535,32.576C176.98,32.149 176.575,31.776 176.319,31.456C176.063,31.136 175.935,30.656 175.935,30.016C175.935,29.675 176.074,29.365 176.351,29.088C176.628,28.811 177.236,28.523 178.175,28.224C178.474,28.139 179.05,27.904 179.903,27.52C181.78,26.752 183.604,26.091 185.375,25.536C187.146,24.981 188.884,24.704 190.591,24.704C192.127,24.704 193.119,25.184 193.567,26.144C194.015,27.104 194.239,28.395 194.239,30.016L194.239,52.224C194.239,52.907 194.42,53.44 194.783,53.824ZM193.055,12.096C194.57,13.419 195.327,14.891 195.327,16.512C195.327,18.176 194.57,19.669 193.055,20.992C191.54,22.315 189.695,22.976 187.519,22.976C185.343,22.976 183.498,22.315 181.983,20.992C180.468,19.669 179.711,18.176 179.711,16.512C179.711,14.891 180.468,13.419 181.983,12.096C183.498,10.773 185.343,10.112 187.519,10.112C189.695,10.112 191.54,10.773 193.055,12.096Z" style="fill:none;fill-rule:nonzero;stroke:rgb(35,31,32);stroke-width:16px;"/>
    <path d="M238.239,44.512C238.687,44.875 238.911,45.205 238.911,45.504C238.911,46.613 238.399,48.128 237.375,50.048C236.735,51.115 235.85,52.224 234.719,53.376C233.588,54.528 232.266,55.584 230.751,56.544C229.236,57.504 227.594,58.283 225.823,58.88C224.052,59.477 222.25,59.776 220.415,59.776C217.684,59.776 215.199,59.317 212.959,58.4C210.719,57.483 208.831,56.213 207.295,54.592C205.759,52.971 204.586,51.104 203.775,48.992C202.964,46.88 202.559,44.672 202.559,42.368C202.559,40.192 203.156,38.016 204.351,35.84C205.546,33.664 207.124,31.712 209.087,29.984C211.05,28.256 213.151,26.88 215.391,25.856C217.631,24.832 219.732,24.32 221.695,24.32C223.103,24.32 224.362,24.235 225.471,24.064C226.58,23.893 227.348,23.659 227.775,23.36C227.818,23.317 227.882,23.275 227.967,23.232C228.65,22.848 229.29,22.517 229.887,22.24C230.484,21.963 231.082,21.824 231.679,21.824L231.743,21.824C232.98,21.824 233.823,22.261 234.271,23.136C234.719,24.011 234.943,24.939 234.943,25.92C234.943,28.693 234.26,30.891 232.895,32.512C231.53,34.133 230.186,34.944 228.863,34.944C228.095,34.944 227.444,34.773 226.911,34.432C226.378,34.091 226.004,33.749 225.791,33.408C224.938,30.421 223.764,28.928 222.271,28.928C221.247,28.928 220.255,29.205 219.295,29.76C218.335,30.315 217.492,31.061 216.767,32C216.042,32.939 215.476,34.005 215.071,35.2C214.666,36.395 214.463,37.611 214.463,38.848C214.463,40.128 214.687,41.397 215.135,42.656C215.583,43.915 216.234,45.067 217.087,46.112C217.94,47.157 218.954,47.989 220.127,48.608C221.3,49.227 222.591,49.536 223.999,49.536C225.279,49.536 226.655,49.301 228.127,48.832C229.599,48.363 231.402,47.296 233.535,45.632L233.599,45.504C233.855,45.163 234.186,44.821 234.591,44.48C234.996,44.139 235.604,43.968 236.415,43.968C237.183,43.968 237.791,44.149 238.239,44.512Z" style="fill:none;fill-rule:nonzero;stroke:rgb(35,31,32);stroke-width:16px;"/>
    <path d="M8,35.392C8,38.677 8.555,41.813 9.664,44.8C10.773,47.787 12.416,50.432 14.592,52.736C16.768,55.04 19.445,56.853 22.624,58.176C25.803,59.499 29.376,60.16 33.344,60.16C36.373,60.16 39.435,59.68 42.528,58.72C45.621,57.76 48.437,56.437 50.976,54.752C53.515,53.067 55.531,51.136 57.024,48.96C58.517,46.784 59.264,44.544 59.264,42.24C59.264,41.941 59.093,41.643 58.752,41.344C58.411,41.045 57.92,40.896 57.28,40.896C56.64,40.896 56.053,41.077 55.52,41.44C54.987,41.803 54.485,42.24 54.016,42.752C53.931,42.88 53.867,42.944 53.824,42.944C51.776,44.437 49.323,45.685 46.464,46.688C43.605,47.691 40.981,48.192 38.592,48.192C33.643,48.192 29.632,46.592 26.56,43.392C23.488,40.192 21.952,35.712 21.952,29.952C21.952,25.856 22.912,22.56 24.832,20.064C26.752,17.568 29.184,16.32 32.128,16.32C33.28,16.32 34.272,16.576 35.104,17.088C35.936,17.6 36.907,18.368 38.016,19.392C39.339,20.672 40.576,21.632 41.728,22.272C42.88,22.912 44.331,23.232 46.08,23.232C47.787,23.232 49.184,22.987 50.272,22.496C51.36,22.005 52.171,21.387 52.704,20.64C53.237,19.893 53.579,19.125 53.728,18.336C53.877,17.547 53.952,16.683 53.952,15.744C53.952,15.531 54.059,14.827 54.272,13.632C54.485,12.395 54.592,11.648 54.592,11.392C54.592,10.539 54.347,9.76 53.856,9.056C53.365,8.352 52.587,8 51.52,8C50.709,8 49.515,8.427 47.936,9.28C46.485,10.048 45.419,10.432 44.736,10.432C44.224,10.432 43.264,10.389 41.856,10.304C40.107,10.176 38.805,10.112 37.952,10.112C33.984,10.112 30.197,10.72 26.592,11.936C22.987,13.152 19.787,14.891 16.992,17.152C14.197,19.413 12,22.101 10.4,25.216C8.8,28.331 8,31.723 8,35.392Z" style="fill:white;fill-rule:nonzero;"/>
    <path d="M82.752,52.224L82.752,14.336C82.752,12.629 82.539,11.339 82.112,10.464C81.685,9.589 80.704,9.152 79.168,9.152C77.461,9.152 75.723,9.419 73.952,9.952C72.181,10.485 70.336,11.157 68.416,11.968C67.605,12.309 67.051,12.523 66.752,12.608C65.813,12.949 65.205,13.259 64.928,13.536C64.651,13.813 64.512,14.123 64.512,14.464C64.512,15.104 64.64,15.584 64.896,15.904C65.152,16.224 65.557,16.576 66.112,16.96C66.965,17.6 67.637,18.336 68.128,19.168C68.619,20 68.864,21.376 68.864,23.296L68.864,52.288C68.864,52.885 68.683,53.355 68.32,53.696C67.957,54.037 67.392,54.4 66.624,54.784C65.813,55.168 65.184,55.573 64.736,56C64.288,56.427 64.064,57.045 64.064,57.856C64.064,57.984 64.309,58.176 64.8,58.432C65.291,58.688 65.899,58.816 66.624,58.816L84.096,58.816C84.864,58.816 85.493,58.667 85.984,58.368C86.475,58.069 86.72,57.771 86.72,57.472C86.72,56.96 86.571,56.533 86.272,56.192C85.973,55.851 85.504,55.488 84.864,55.104C84.181,54.635 83.659,54.208 83.296,53.824C82.933,53.44 82.752,52.907 82.752,52.224Z" style="fill:white;fill-rule:nonzero;"/>
    <path d="M108.16,29.824C109.099,29.824 109.92,30.325 110.624,31.328C111.328,32.331 111.957,33.6 112.512,35.136C112.512,35.136 112.533,35.2 112.576,35.328C112.704,35.712 112.768,36.032 112.768,36.288C112.768,36.715 112.683,37.035 112.512,37.248C111.232,38.528 109.963,39.573 108.704,40.384C107.445,41.195 105.835,42.091 103.872,43.072C103.872,42.901 103.808,42.539 103.68,41.984C103.509,41.259 103.424,40.213 103.424,38.848C103.424,37.781 103.467,36.789 103.552,35.872C103.637,34.955 103.829,34.027 104.128,33.088C104.427,32.149 104.896,31.371 105.536,30.752C106.176,30.133 107.029,29.824 108.096,29.824L108.16,29.824ZM127.04,32.768C125.717,30.421 123.733,28.437 121.088,26.816C118.443,25.195 115.456,24.384 112.128,24.384C109.483,24.384 106.891,24.917 104.352,25.984C101.813,27.051 99.541,28.523 97.536,30.4C95.531,32.277 93.952,34.411 92.8,36.8C91.648,39.189 91.072,41.664 91.072,44.224C91.072,46.357 91.563,48.341 92.544,50.176C93.525,52.011 94.891,53.611 96.64,54.976C98.389,56.341 100.427,57.397 102.752,58.144C105.077,58.891 107.563,59.264 110.208,59.264C112.384,59.264 114.453,58.955 116.416,58.336C118.379,57.717 120.16,56.864 121.76,55.776C123.36,54.688 124.757,53.44 125.952,52.032C127.147,50.624 128.085,49.152 128.768,47.616C129.067,46.848 129.216,46.357 129.216,46.144C129.216,46.016 129.056,45.835 128.736,45.6C128.416,45.365 127.936,45.248 127.296,45.248C126.528,45.248 125.589,45.568 124.48,46.208C124.437,46.251 124.331,46.315 124.16,46.4C122.24,47.723 120.533,48.64 119.04,49.152C117.547,49.664 116.459,49.92 115.776,49.92C113.984,49.92 112.395,49.728 111.008,49.344C109.621,48.96 108.203,48.363 106.752,47.552C106.837,47.552 106.88,47.531 106.88,47.488L106.88,47.36C106.837,47.232 106.816,47.125 106.816,47.04C106.816,46.784 106.987,46.571 107.328,46.4L125.504,36.608C125.504,36.608 125.739,36.48 126.208,36.224C126.763,35.968 127.189,35.733 127.488,35.52C127.787,35.307 127.936,35.093 127.936,34.88C127.936,34.709 127.872,34.475 127.744,34.176C127.616,33.877 127.381,33.408 127.04,32.768Z" style="fill:white;fill-rule:nonzero;"/>
    <path d="M152.832,52.224L152.832,39.424C152.832,35.584 153.045,33.557 153.472,33.344C153.941,33.131 154.336,32.981 154.656,32.896C154.976,32.811 155.413,32.768 155.968,32.768C156.352,32.768 156.715,32.885 157.056,33.12C157.397,33.355 157.803,33.749 158.272,34.304C159.168,35.2 160.032,35.893 160.864,36.384C161.696,36.875 162.773,37.12 164.096,37.12C166.187,37.12 167.819,36.629 168.992,35.648C170.165,34.667 170.752,33.429 170.752,31.936C170.752,29.888 169.973,28.181 168.416,26.816C166.859,25.451 164.672,24.768 161.856,24.768C159.979,24.768 158.272,25.077 156.736,25.696C155.2,26.315 153.877,27.115 152.768,28.096C152.64,27.115 152.299,26.347 151.744,25.792C151.189,25.237 150.336,24.96 149.184,24.96C147.477,24.96 145.739,25.237 143.968,25.792C142.197,26.347 140.352,27.008 138.432,27.776C137.621,28.117 137.109,28.331 136.896,28.416C135.957,28.715 135.339,29.003 135.04,29.28C134.741,29.557 134.592,29.867 134.592,30.208C134.592,30.848 134.72,31.328 134.976,31.648C135.232,31.968 135.637,32.341 136.192,32.768C137.088,33.365 137.781,34.08 138.272,34.912C138.763,35.744 139.008,37.099 139.008,38.976L139.008,52.032C139.008,52.672 138.816,53.173 138.432,53.536C138.048,53.899 137.472,54.293 136.704,54.72C135.893,55.189 135.275,55.637 134.848,56.064C134.421,56.491 134.208,57.088 134.208,57.856C134.208,57.984 134.453,58.176 134.944,58.432C135.435,58.688 136.064,58.816 136.832,58.816L154.112,58.816C154.88,58.816 155.509,58.667 156,58.368C156.491,58.069 156.736,57.771 156.736,57.472C156.736,56.917 156.587,56.48 156.288,56.16C155.989,55.84 155.52,55.488 154.88,55.104C154.197,54.635 153.685,54.208 153.344,53.824C153.003,53.44 152.832,52.907 152.832,52.224Z" style="fill:white;fill-rule:nonzero;"/>
    <path d="M194.24,52.224L194.24,30.016C194.24,28.395 194.016,27.104 193.568,26.144C193.12,25.184 192.128,24.704 190.592,24.704C188.885,24.704 187.147,24.981 185.376,25.536C183.605,26.091 181.781,26.752 179.904,27.52C179.051,27.904 178.475,28.139 178.176,28.224C177.237,28.523 176.629,28.811 176.352,29.088C176.075,29.365 175.936,29.675 175.936,30.016C175.936,30.656 176.064,31.136 176.32,31.456C176.576,31.776 176.981,32.149 177.536,32.576C178.432,33.173 179.125,33.888 179.616,34.72C180.107,35.552 180.352,36.928 180.352,38.848L180.352,52.032C180.352,52.672 180.16,53.173 179.776,53.536C179.392,53.899 178.837,54.293 178.112,54.72C177.259,55.147 176.619,55.584 176.192,56.032C175.765,56.48 175.552,57.088 175.552,57.856C175.552,57.984 175.797,58.176 176.288,58.432C176.779,58.688 177.387,58.816 178.112,58.816L195.584,58.816C196.352,58.816 196.981,58.667 197.472,58.368C197.963,58.069 198.208,57.771 198.208,57.472C198.208,56.96 198.059,56.533 197.76,56.192C197.461,55.851 196.992,55.488 196.352,55.104C195.669,54.635 195.147,54.208 194.784,53.824C194.421,53.44 194.24,52.907 194.24,52.224ZM187.52,10.112C185.344,10.112 183.499,10.773 181.984,12.096C180.469,13.419 179.712,14.891 179.712,16.512C179.712,18.176 180.469,19.669 181.984,20.992C183.499,22.315 185.344,22.976 187.52,22.976C189.696,22.976 191.541,22.315 193.056,20.992C194.571,19.669 195.328,18.176 195.328,16.512C195.328,14.891 194.571,13.419 193.056,12.096C191.541,10.773 189.696,10.112 187.52,10.112Z" style="fill:white;fill-rule:nonzero;"/>
    <path d="M236.416,43.968C235.605,43.968 234.997,44.139 234.592,44.48C234.187,44.821 233.856,45.163 233.6,45.504C233.557,45.589 233.536,45.632 233.536,45.632C231.403,47.296 229.6,48.363 228.128,48.832C226.656,49.301 225.28,49.536 224,49.536C222.592,49.536 221.301,49.227 220.128,48.608C218.955,47.989 217.941,47.157 217.088,46.112C216.235,45.067 215.584,43.915 215.136,42.656C214.688,41.397 214.464,40.128 214.464,38.848C214.464,37.611 214.667,36.395 215.072,35.2C215.477,34.005 216.043,32.939 216.768,32C217.493,31.061 218.336,30.315 219.296,29.76C220.256,29.205 221.248,28.928 222.272,28.928C223.765,28.928 224.939,30.421 225.792,33.408C226.005,33.749 226.379,34.091 226.912,34.432C227.445,34.773 228.096,34.944 228.864,34.944C230.187,34.944 231.531,34.133 232.896,32.512C234.261,30.891 234.944,28.693 234.944,25.92C234.944,24.939 234.72,24.011 234.272,23.136C233.824,22.261 232.981,21.824 231.744,21.824L231.68,21.824C231.083,21.824 230.485,21.963 229.888,22.24C229.291,22.517 228.651,22.848 227.968,23.232C227.883,23.275 227.819,23.317 227.776,23.36C227.349,23.659 226.581,23.893 225.472,24.064C224.363,24.235 223.104,24.32 221.696,24.32C219.733,24.32 217.632,24.832 215.392,25.856C213.152,26.88 211.051,28.256 209.088,29.984C207.125,31.712 205.547,33.664 204.352,35.84C203.157,38.016 202.56,40.192 202.56,42.368C202.56,44.672 202.965,46.88 203.776,48.992C204.587,51.104 205.76,52.971 207.296,54.592C208.832,56.213 210.72,57.483 212.96,58.4C215.2,59.317 217.685,59.776 220.416,59.776C222.251,59.776 224.053,59.477 225.824,58.88C227.595,58.283 229.237,57.504 230.752,56.544C232.267,55.584 233.589,54.528 234.72,53.376C235.851,52.224 236.736,51.115 237.376,50.048C238.4,48.128 238.912,46.613 238.912,45.504C238.912,45.205 238.688,44.875 238.24,44.512C237.792,44.149 237.184,43.968 236.416,43.968Z" style="fill:white;fill-rule:nonzero;"/>
</svg>
