<?xml version="1.0" encoding="UTF-8" standalone="no"?>
<!DOCTYPE svg PUBLIC "-//W3C//DTD SVG 1.1//EN" "http://www.w3.org/Graphics/SVG/1.1/DTD/svg11.dtd">
<svg width="100%" height="100%" viewBox="0 0 127 68" version="1.1" xmlns="http://www.w3.org/2000/svg" xmlns:xlink="http://www.w3.org/1999/xlink" xml:space="preserve" xmlns:serif="http://www.serif.com/" style="fill-rule:evenodd;clip-rule:evenodd;stroke-linejoin:round;">
    <path d="M30.816,35.392C30.325,35.648 29.675,36.117 28.864,36.8C28.48,37.184 28.288,38.016 28.288,39.296L28.288,51.008C28.288,52.16 28.309,52.949 28.352,53.376C28.395,53.803 28.437,54.016 28.48,54.016C31.083,54.016 33.845,53.376 36.768,52.096C39.691,50.816 42.304,49.173 44.608,47.168C45.376,46.485 46.293,45.355 47.36,43.776C48.128,42.709 48.779,41.92 49.312,41.408C49.845,40.896 50.453,40.64 51.136,40.64C52.331,40.64 53.077,40.864 53.376,41.312C53.675,41.76 53.824,42.453 53.824,43.392C53.824,44.117 53.749,44.768 53.6,45.344C53.451,45.92 53.227,46.592 52.928,47.36C52.501,48.469 52.224,49.365 52.096,50.048C52.096,50.133 52.011,50.688 51.84,51.712C51.413,54.144 50.933,55.968 50.4,57.184C49.867,58.4 48.96,59.008 47.68,59.008C47.125,59.008 46.485,58.837 45.76,58.496C45.376,58.283 45.099,58.176 44.928,58.176C44.117,58.133 42.965,58.069 41.472,57.984C39.979,57.899 38.645,57.835 37.472,57.792C36.299,57.749 34.933,57.717 33.376,57.696C31.819,57.675 30.549,57.664 29.568,57.664L10.688,57.664C9.963,57.664 9.333,57.547 8.8,57.312C8.267,57.077 8,56.896 8,56.768C8,55.915 8.203,55.275 8.608,54.848C9.013,54.421 9.6,53.995 10.368,53.568C11.051,53.184 11.552,52.832 11.872,52.512C12.192,52.192 12.352,51.733 12.352,51.136L12.352,16.64C12.352,16 12.171,15.509 11.808,15.168C11.445,14.827 10.901,14.464 10.176,14.08C9.451,13.696 8.907,13.333 8.544,12.992C8.181,12.651 8,12.181 8,11.584C8,11.243 8.224,10.912 8.672,10.592C9.12,10.272 9.792,10.112 10.688,10.112L41.728,10.112C42.155,10.112 42.731,9.899 43.456,9.472C44.011,9.173 44.533,8.939 45.024,8.768C45.515,8.597 46.144,8.512 46.912,8.512C48.192,8.512 49.088,9.12 49.6,10.336C50.112,11.552 50.56,13.376 50.944,15.808C50.987,16.021 51.029,16.277 51.072,16.576C51.328,18.112 51.541,19.296 51.712,20.128C51.883,20.96 52.096,21.867 52.352,22.848C52.608,23.701 52.736,24.341 52.736,24.768C52.736,25.152 52.48,25.525 51.968,25.888C51.456,26.251 50.773,26.432 49.92,26.432C48.981,26.432 48.064,26.005 47.168,25.152C46.272,24.299 45.227,23.083 44.032,21.504C42.752,19.84 41.835,18.816 41.28,18.432C39.189,16.939 37.184,15.829 35.264,15.104C33.344,14.379 31.317,14.016 29.184,14.016C28.757,14.016 28.501,14.112 28.416,14.304C28.331,14.496 28.288,15.061 28.288,16L28.288,29.568C28.885,28.331 29.835,27.296 31.136,26.464C32.437,25.632 34.219,25.216 36.48,25.216C37.803,25.216 39.04,25.387 40.192,25.728C41.344,26.069 42.347,26.517 43.2,27.072C44.053,27.627 44.715,28.203 45.184,28.8C45.653,29.397 45.888,29.931 45.888,30.4C45.888,30.869 45.397,31.573 44.416,32.512C43.648,33.237 43.051,33.877 42.624,34.432C42.411,34.688 42.112,35.093 41.728,35.648C40.96,36.8 40.267,37.696 39.648,38.336C39.029,38.976 38.315,39.296 37.504,39.296C36.651,39.296 35.979,39.061 35.488,38.592C34.997,38.123 34.517,37.483 34.048,36.672C33.707,36.075 33.419,35.648 33.184,35.392C32.949,35.136 32.661,35.008 32.32,35.008C31.808,35.008 31.307,35.136 30.816,35.392Z" style="fill:none;fill-rule:nonzero;stroke:rgb(35,31,32);stroke-width:16px;"/>
    <path d="M77.92,52.672C78.282,53.056 78.805,53.483 79.488,53.952C80.128,54.336 80.597,54.699 80.896,55.04C81.194,55.381 81.344,55.808 81.344,56.32C81.344,56.619 81.098,56.917 80.608,57.216C80.117,57.515 79.488,57.664 78.72,57.664L61.248,57.664C60.522,57.664 59.914,57.536 59.424,57.28C58.933,57.024 58.688,56.832 58.688,56.704C58.688,55.893 58.912,55.275 59.36,54.848C59.808,54.421 60.437,54.016 61.248,53.632C62.016,53.248 62.581,52.885 62.944,52.544C63.306,52.203 63.488,51.733 63.488,51.136L63.488,22.144C63.488,20.224 63.242,18.848 62.752,18.016C62.261,17.184 61.589,16.448 60.736,15.808C60.181,15.424 59.776,15.072 59.52,14.752C59.264,14.432 59.136,13.952 59.136,13.312C59.136,12.971 59.274,12.661 59.552,12.384C59.829,12.107 60.437,11.797 61.376,11.456C61.674,11.371 62.229,11.157 63.04,10.816C64.96,10.005 66.805,9.333 68.576,8.8C70.346,8.267 72.085,8 73.792,8C75.328,8 76.309,8.437 76.736,9.312C77.162,10.187 77.376,11.477 77.376,13.184L77.376,51.072C77.376,51.755 77.557,52.288 77.92,52.672Z" style="fill:none;fill-rule:nonzero;stroke:rgb(35,31,32);stroke-width:16px;"/>
    <path d="M94.528,24.064C94.485,24.021 94.464,23.893 94.464,23.68C94.464,22.869 94.357,21.76 94.144,20.352C94.016,19.541 93.952,19.008 93.952,18.752C93.952,17.259 94.283,15.861 94.944,14.56C95.605,13.259 96.512,12.107 97.664,11.104C98.816,10.101 100.117,9.333 101.568,8.8C103.019,8.267 104.512,8 106.048,8C107.285,8 108.619,8.181 110.048,8.544C111.477,8.907 112.821,9.408 114.08,10.048C115.339,10.688 116.363,11.392 117.152,12.16C117.941,12.928 118.336,13.696 118.336,14.464C118.336,15.36 117.781,16.235 116.672,17.088C115.563,17.941 114.283,18.368 112.832,18.368C111.339,18.368 110.048,17.952 108.96,17.12C107.872,16.288 107.328,15.403 107.328,14.464L107.328,13.824C107.285,13.013 107.243,12.544 107.2,12.416C107.157,12.288 107.008,12.224 106.752,12.224C106.667,12.224 106.603,12.288 106.56,12.416C106.517,12.544 106.496,12.843 106.496,13.312C106.496,14.208 106.773,15.552 107.328,17.344C107.669,18.539 107.936,19.595 108.128,20.512C108.32,21.429 108.416,22.443 108.416,23.552C108.416,23.851 108.395,24.021 108.352,24.064L111.808,24.064C112.533,24.064 113.152,24.245 113.664,24.608C114.176,24.971 114.432,25.28 114.432,25.536L114.432,27.84C114.432,28.096 114.176,28.405 113.664,28.768C113.152,29.131 112.533,29.312 111.808,29.312L108.352,29.312C108.395,29.355 108.416,29.525 108.416,29.824L108.416,51.072C108.416,51.755 108.597,52.288 108.96,52.672C109.323,53.056 109.845,53.483 110.528,53.952C111.168,54.336 111.637,54.699 111.936,55.04C112.235,55.381 112.384,55.808 112.384,56.32C112.384,56.619 112.128,56.917 111.616,57.216C111.104,57.515 110.464,57.664 109.696,57.664L92.288,57.664C91.52,57.664 90.891,57.536 90.4,57.28C89.909,57.024 89.664,56.832 89.664,56.704C89.664,55.893 89.888,55.275 90.336,54.848C90.784,54.421 91.413,54.016 92.224,53.632C92.992,53.248 93.557,52.885 93.92,52.544C94.283,52.203 94.464,51.733 94.464,51.136L94.464,29.632C94.464,29.504 94.507,29.397 94.592,29.312L90.944,29.312C90.219,29.312 89.6,29.131 89.088,28.768C88.576,28.405 88.32,28.096 88.32,27.84L88.32,25.536C88.32,25.28 88.576,24.971 89.088,24.608C89.6,24.245 90.219,24.064 90.944,24.064L94.528,24.064Z" style="fill:none;fill-rule:nonzero;stroke:rgb(35,31,32);stroke-width:16px;"/>
    <path d="M32.32,35.008C32.661,35.008 32.949,35.136 33.184,35.392C33.419,35.648 33.707,36.075 34.048,36.672C34.517,37.483 34.997,38.123 35.488,38.592C35.979,39.061 36.651,39.296 37.504,39.296C38.315,39.296 39.029,38.976 39.648,38.336C40.267,37.696 40.96,36.8 41.728,35.648C42.112,35.093 42.411,34.688 42.624,34.432C43.051,33.877 43.648,33.237 44.416,32.512C45.397,31.573 45.888,30.869 45.888,30.4C45.888,29.931 45.653,29.397 45.184,28.8C44.715,28.203 44.053,27.627 43.2,27.072C42.347,26.517 41.344,26.069 40.192,25.728C39.04,25.387 37.803,25.216 36.48,25.216C34.219,25.216 32.437,25.632 31.136,26.464C29.835,27.296 28.885,28.331 28.288,29.568L28.288,16C28.288,15.061 28.331,14.496 28.416,14.304C28.501,14.112 28.757,14.016 29.184,14.016C31.317,14.016 33.344,14.379 35.264,15.104C37.184,15.829 39.189,16.939 41.28,18.432C41.835,18.816 42.752,19.84 44.032,21.504C45.227,23.083 46.272,24.299 47.168,25.152C48.064,26.005 48.981,26.432 49.92,26.432C50.773,26.432 51.456,26.251 51.968,25.888C52.48,25.525 52.736,25.152 52.736,24.768C52.736,24.341 52.608,23.701 52.352,22.848C52.096,21.867 51.883,20.96 51.712,20.128C51.541,19.296 51.328,18.112 51.072,16.576C51.029,16.277 50.987,16.021 50.944,15.808C50.56,13.376 50.112,11.552 49.6,10.336C49.088,9.12 48.192,8.512 46.912,8.512C46.144,8.512 45.515,8.597 45.024,8.768C44.533,8.939 44.011,9.173 43.456,9.472C42.731,9.899 42.155,10.112 41.728,10.112L10.688,10.112C9.792,10.112 9.12,10.272 8.672,10.592C8.224,10.912 8,11.243 8,11.584C8,12.181 8.181,12.651 8.544,12.992C8.907,13.333 9.451,13.696 10.176,14.08C10.901,14.464 11.445,14.827 11.808,15.168C12.171,15.509 12.352,16 12.352,16.64L12.352,51.136C12.352,51.733 12.192,52.192 11.872,52.512C11.552,52.832 11.051,53.184 10.368,53.568C9.6,53.995 9.013,54.421 8.608,54.848C8.203,55.275 8,55.915 8,56.768C8,56.896 8.267,57.077 8.8,57.312C9.333,57.547 9.963,57.664 10.688,57.664L29.568,57.664C30.549,57.664 31.819,57.675 33.376,57.696C34.933,57.717 36.299,57.749 37.472,57.792C38.645,57.835 39.979,57.899 41.472,57.984C42.965,58.069 44.117,58.133 44.928,58.176C45.099,58.176 45.376,58.283 45.76,58.496C46.485,58.837 47.125,59.008 47.68,59.008C48.96,59.008 49.867,58.4 50.4,57.184C50.933,55.968 51.413,54.144 51.84,51.712C52.011,50.688 52.096,50.133 52.096,50.048C52.224,49.365 52.501,48.469 52.928,47.36C53.227,46.592 53.451,45.92 53.6,45.344C53.749,44.768 53.824,44.117 53.824,43.392C53.824,42.453 53.675,41.76 53.376,41.312C53.077,40.864 52.331,40.64 51.136,40.64C50.453,40.64 49.845,40.896 49.312,41.408C48.779,41.92 48.128,42.709 47.36,43.776C46.293,45.355 45.376,46.485 44.608,47.168C42.304,49.173 39.691,50.816 36.768,52.096C33.845,53.376 31.083,54.016 28.48,54.016C28.437,54.016 28.395,53.803 28.352,53.376C28.309,52.949 28.288,52.16 28.288,51.008L28.288,39.296C28.288,38.016 28.48,37.184 28.864,36.8C29.675,36.117 30.325,35.648 30.816,35.392C31.307,35.136 31.808,35.008 32.32,35.008Z" style="fill:white;fill-rule:nonzero;"/>
    <path d="M77.376,51.072L77.376,13.184C77.376,11.477 77.163,10.187 76.736,9.312C76.309,8.437 75.328,8 73.792,8C72.085,8 70.347,8.267 68.576,8.8C66.805,9.333 64.96,10.005 63.04,10.816C62.229,11.157 61.675,11.371 61.376,11.456C60.437,11.797 59.829,12.107 59.552,12.384C59.275,12.661 59.136,12.971 59.136,13.312C59.136,13.952 59.264,14.432 59.52,14.752C59.776,15.072 60.181,15.424 60.736,15.808C61.589,16.448 62.261,17.184 62.752,18.016C63.243,18.848 63.488,20.224 63.488,22.144L63.488,51.136C63.488,51.733 63.307,52.203 62.944,52.544C62.581,52.885 62.016,53.248 61.248,53.632C60.437,54.016 59.808,54.421 59.36,54.848C58.912,55.275 58.688,55.893 58.688,56.704C58.688,56.832 58.933,57.024 59.424,57.28C59.915,57.536 60.523,57.664 61.248,57.664L78.72,57.664C79.488,57.664 80.117,57.515 80.608,57.216C81.099,56.917 81.344,56.619 81.344,56.32C81.344,55.808 81.195,55.381 80.896,55.04C80.597,54.699 80.128,54.336 79.488,53.952C78.805,53.483 78.283,53.056 77.92,52.672C77.557,52.288 77.376,51.755 77.376,51.072Z" style="fill:white;fill-rule:nonzero;"/>
    <path d="M90.944,24.064C90.219,24.064 89.6,24.245 89.088,24.608C88.576,24.971 88.32,25.28 88.32,25.536L88.32,27.84C88.32,28.096 88.576,28.405 89.088,28.768C89.6,29.131 90.219,29.312 90.944,29.312L94.592,29.312C94.507,29.397 94.464,29.504 94.464,29.632L94.464,51.136C94.464,51.733 94.283,52.203 93.92,52.544C93.557,52.885 92.992,53.248 92.224,53.632C91.413,54.016 90.784,54.421 90.336,54.848C89.888,55.275 89.664,55.893 89.664,56.704C89.664,56.832 89.909,57.024 90.4,57.28C90.891,57.536 91.52,57.664 92.288,57.664L109.696,57.664C110.464,57.664 111.104,57.515 111.616,57.216C112.128,56.917 112.384,56.619 112.384,56.32C112.384,55.808 112.235,55.381 111.936,55.04C111.637,54.699 111.168,54.336 110.528,53.952C109.845,53.483 109.323,53.056 108.96,52.672C108.597,52.288 108.416,51.755 108.416,51.072L108.416,29.824C108.416,29.525 108.395,29.355 108.352,29.312L111.808,29.312C112.533,29.312 113.152,29.131 113.664,28.768C114.176,28.405 114.432,28.096 114.432,27.84L114.432,25.536C114.432,25.28 114.176,24.971 113.664,24.608C113.152,24.245 112.533,24.064 111.808,24.064L108.352,24.064C108.395,24.021 108.416,23.851 108.416,23.552C108.416,22.443 108.32,21.429 108.128,20.512C107.936,19.595 107.669,18.539 107.328,17.344C106.773,15.552 106.496,14.208 106.496,13.312C106.496,12.843 106.517,12.544 106.56,12.416C106.603,12.288 106.667,12.224 106.752,12.224C107.008,12.224 107.157,12.288 107.2,12.416C107.243,12.544 107.285,13.013 107.328,13.824L107.328,14.464C107.328,15.403 107.872,16.288 108.96,17.12C110.048,17.952 111.339,18.368 112.832,18.368C114.283,18.368 115.563,17.941 116.672,17.088C117.781,16.235 118.336,15.36 118.336,14.464C118.336,13.696 117.941,12.928 117.152,12.16C116.363,11.392 115.339,10.688 114.08,10.048C112.821,9.408 111.477,8.907 110.048,8.544C108.619,8.181 107.285,8 106.048,8C104.512,8 103.019,8.267 101.568,8.8C100.117,9.333 98.816,10.101 97.664,11.104C96.512,12.107 95.605,13.259 94.944,14.56C94.283,15.861 93.952,17.259 93.952,18.752C93.952,19.008 94.016,19.541 94.144,20.352C94.357,21.76 94.464,22.869 94.464,23.68C94.464,23.893 94.485,24.021 94.528,24.064L90.944,24.064Z" style="fill:white;fill-rule:nonzero;"/>
</svg>
