<?xml version="1.0" encoding="UTF-8" standalone="no"?>
<!DOCTYPE svg PUBLIC "-//W3C//DTD SVG 1.1//EN" "http://www.w3.org/Graphics/SVG/1.1/DTD/svg11.dtd">
<svg width="100%" height="100%" viewBox="0 0 312 84" version="1.1" xmlns="http://www.w3.org/2000/svg" xmlns:xlink="http://www.w3.org/1999/xlink" xml:space="preserve" xmlns:serif="http://www.serif.com/" style="fill-rule:evenodd;clip-rule:evenodd;stroke-linejoin:round;">
    <path d="M28.8,52.608C29.141,52.992 29.653,53.419 30.336,53.888C30.976,54.272 31.445,54.624 31.744,54.944C32.043,55.264 32.192,55.701 32.192,56.256C32.192,56.555 31.957,56.864 31.488,57.184C31.019,57.504 30.379,57.664 29.568,57.664L10.688,57.664C9.963,57.664 9.333,57.536 8.8,57.28C8.267,57.024 8,56.832 8,56.704C8,55.893 8.203,55.275 8.608,54.848C9.013,54.421 9.6,53.995 10.368,53.568C11.093,53.184 11.616,52.832 11.936,52.512C12.256,52.192 12.416,51.733 12.416,51.136L12.416,19.392C12.416,18.709 12.224,18.155 11.84,17.728C11.456,17.301 10.859,16.853 10.048,16.384C9.365,15.957 8.853,15.563 8.512,15.2C8.171,14.837 8,14.4 8,13.888C8,13.376 8.181,12.96 8.544,12.64C8.907,12.32 9.792,12.096 11.2,11.968C12.181,11.883 13.611,11.477 15.488,10.752C17.28,10.069 19.019,9.525 20.704,9.12C22.389,8.715 24.512,8.512 27.072,8.512C27.627,8.512 28.288,8.64 29.056,8.896C29.824,9.152 30.208,9.493 30.208,9.92C30.208,10.859 30.101,11.552 29.888,12C29.675,12.448 29.376,12.843 28.992,13.184C28.523,13.611 28.288,14.08 28.288,14.592L28.288,26.432L39.744,26.432C39.701,26.389 39.68,26.24 39.68,25.984L39.68,19.264C39.68,18.581 39.477,18.027 39.072,17.6C38.667,17.173 38.08,16.725 37.312,16.256C36.587,15.829 36.053,15.435 35.712,15.072C35.371,14.709 35.2,14.272 35.2,13.76C35.2,13.163 35.381,12.715 35.744,12.416C36.107,12.117 36.949,11.925 38.272,11.84C39.253,11.755 40.661,11.349 42.496,10.624C44.288,9.941 46.037,9.397 47.744,8.992C49.451,8.587 51.563,8.384 54.08,8.384C54.677,8.384 55.349,8.512 56.096,8.768C56.843,9.024 57.216,9.365 57.216,9.792C57.216,10.773 57.131,11.488 56.96,11.936C56.789,12.384 56.512,12.8 56.128,13.184C55.744,13.611 55.552,14.059 55.552,14.528L55.552,49.216L55.488,49.216L55.488,50.88C55.488,51.563 55.669,52.096 56.032,52.48C56.395,52.864 56.917,53.291 57.6,53.76C58.24,54.144 58.709,54.507 59.008,54.848C59.307,55.189 59.456,55.616 59.456,56.128C59.456,56.469 59.232,56.811 58.784,57.152C58.336,57.493 57.664,57.664 56.768,57.664L37.888,57.664C37.12,57.664 36.491,57.515 36,57.216C35.509,56.917 35.264,56.704 35.264,56.576C35.264,55.765 35.467,55.147 35.872,54.72C36.277,54.293 36.864,53.867 37.632,53.44C38.315,53.056 38.816,52.704 39.136,52.384C39.456,52.064 39.616,51.605 39.616,51.008L39.616,46.848L39.68,46.848L39.68,36.48C39.68,35.797 39.616,35.285 39.488,34.944C39.36,34.603 39.232,34.432 39.104,34.432C37.696,34.261 36.011,34.176 34.048,34.176C31.829,34.176 29.909,34.304 28.288,34.56C28.331,34.56 28.352,34.603 28.352,34.688L28.352,34.88C28.309,35.307 28.288,35.84 28.288,36.48L28.288,51.008C28.288,51.691 28.459,52.224 28.8,52.608Z" style="fill:none;fill-rule:nonzero;stroke:rgb(35,31,32);stroke-width:16px;"/>
    <path d="M96.576,50.88C96.576,51.648 96.704,52.203 96.96,52.544C97.216,52.885 97.6,53.227 98.112,53.568C98.581,53.909 98.933,54.24 99.168,54.56C99.403,54.88 99.541,55.381 99.584,56.064C99.584,56.533 99.403,56.917 99.04,57.216C98.677,57.515 97.92,57.664 96.768,57.664L86.912,57.664C86.187,57.664 85.589,57.547 85.12,57.312C84.651,57.077 84.299,56.789 84.064,56.448C83.829,56.107 83.68,55.819 83.616,55.584C83.552,55.349 83.52,55.168 83.52,55.04C83.093,55.04 82.325,55.36 81.216,56C80.235,56.64 79.285,57.141 78.368,57.504C77.451,57.867 76.373,58.048 75.136,58.048C71.467,58.048 68.341,57.259 65.76,55.68C63.179,54.101 61.888,51.883 61.888,49.024C61.888,46.805 62.443,44.896 63.552,43.296C64.661,41.696 66.187,40.384 68.128,39.36C70.069,38.336 72.267,37.589 74.72,37.12C77.173,36.651 79.765,36.416 82.496,36.416L82.624,36.416C82.453,36.245 82.368,35.968 82.368,35.584C82.368,35.541 82.347,35.029 82.304,34.048C82.261,31.957 82.08,30.4 81.76,29.376C81.44,28.352 80.747,27.84 79.68,27.84C79.168,27.84 78.699,28.032 78.272,28.416C77.845,28.8 77.312,29.44 76.672,30.336C75.648,31.744 74.645,32.832 73.664,33.6C72.683,34.368 71.403,34.752 69.824,34.752C68.288,34.752 66.987,34.496 65.92,33.984C64.853,33.472 64.032,32.779 63.456,31.904C62.88,31.029 62.475,30.08 62.24,29.056C62.005,28.032 61.888,26.965 61.888,25.856C61.888,25.387 62.091,24.949 62.496,24.544C62.901,24.139 63.531,23.936 64.384,23.936C64.555,23.936 64.768,23.947 65.024,23.968C65.28,23.989 65.515,24.064 65.728,24.192C66.027,24.32 66.453,24.512 67.008,24.768C67.989,25.195 68.757,25.408 69.312,25.408C70.123,25.408 71.381,25.173 73.088,24.704C74.368,24.363 75.563,24.096 76.672,23.904C77.781,23.712 79.019,23.616 80.384,23.616C82.517,23.616 84.555,23.883 86.496,24.416C88.437,24.949 90.165,25.696 91.68,26.656C93.195,27.616 94.389,28.704 95.264,29.92C96.139,31.136 96.576,32.384 96.576,33.664L96.576,50.88ZM82.016,51.36C82.251,51.083 82.368,50.475 82.368,49.536L82.368,40.512C82.368,39.744 82.539,39.339 82.88,39.296C81.259,39.381 79.797,40.064 78.496,41.344C77.195,42.624 76.544,44.459 76.544,46.848C76.544,48.725 76.885,50.016 77.568,50.72C78.251,51.424 79.296,51.776 80.704,51.776C81.344,51.776 81.781,51.637 82.016,51.36Z" style="fill:none;fill-rule:nonzero;stroke:rgb(35,31,32);stroke-width:16px;"/>
    <path d="M123.615,52.672C123.978,53.056 124.501,53.483 125.183,53.952C125.823,54.336 126.293,54.699 126.591,55.04C126.89,55.381 127.039,55.808 127.039,56.32C127.039,56.619 126.794,56.917 126.303,57.216C125.813,57.515 125.183,57.664 124.415,57.664L106.943,57.664C106.218,57.664 105.61,57.536 105.119,57.28C104.629,57.024 104.383,56.832 104.383,56.704C104.383,55.893 104.607,55.275 105.055,54.848C105.503,54.421 106.133,54.016 106.943,53.632C107.711,53.248 108.277,52.885 108.639,52.544C109.002,52.203 109.183,51.733 109.183,51.136L109.183,22.144C109.183,20.224 108.938,18.848 108.447,18.016C107.957,17.184 107.285,16.448 106.431,15.808C105.877,15.424 105.471,15.072 105.215,14.752C104.959,14.432 104.831,13.952 104.831,13.312C104.831,12.971 104.97,12.661 105.247,12.384C105.525,12.107 106.133,11.797 107.071,11.456C107.37,11.371 107.925,11.157 108.735,10.816C110.655,10.005 112.501,9.333 114.271,8.8C116.042,8.267 117.781,8 119.487,8C121.023,8 122.005,8.437 122.431,9.312C122.858,10.187 123.071,11.477 123.071,13.184L123.071,51.072C123.071,51.755 123.253,52.288 123.615,52.672Z" style="fill:none;fill-rule:nonzero;stroke:rgb(35,31,32);stroke-width:16px;"/>
    <path d="M137.024,24.064C136.981,24.021 136.96,23.893 136.96,23.68C136.96,22.869 136.853,21.76 136.64,20.352C136.512,19.541 136.448,19.008 136.448,18.752C136.448,17.259 136.778,15.861 137.44,14.56C138.101,13.259 139.008,12.107 140.16,11.104C141.312,10.101 142.613,9.333 144.064,8.8C145.514,8.267 147.008,8 148.544,8C149.781,8 151.114,8.181 152.544,8.544C153.973,8.907 155.317,9.408 156.576,10.048C157.834,10.688 158.858,11.392 159.648,12.16C160.437,12.928 160.832,13.696 160.832,14.464C160.832,15.36 160.277,16.235 159.168,17.088C158.058,17.941 156.778,18.368 155.328,18.368C153.834,18.368 152.544,17.952 151.456,17.12C150.368,16.288 149.824,15.403 149.824,14.464L149.824,13.824C149.781,13.013 149.738,12.544 149.696,12.416C149.653,12.288 149.504,12.224 149.248,12.224C149.162,12.224 149.098,12.288 149.056,12.416C149.013,12.544 148.992,12.843 148.992,13.312C148.992,14.208 149.269,15.552 149.824,17.344C150.165,18.539 150.432,19.595 150.624,20.512C150.816,21.429 150.912,22.443 150.912,23.552C150.912,23.851 150.89,24.021 150.848,24.064L154.304,24.064C155.029,24.064 155.648,24.245 156.16,24.608C156.672,24.971 156.928,25.28 156.928,25.536L156.928,27.84C156.928,28.096 156.672,28.405 156.16,28.768C155.648,29.131 155.029,29.312 154.304,29.312L150.848,29.312C150.89,29.355 150.912,29.525 150.912,29.824L150.912,51.072C150.912,51.755 151.093,52.288 151.456,52.672C151.818,53.056 152.341,53.483 153.024,53.952C153.664,54.336 154.133,54.699 154.432,55.04C154.73,55.381 154.88,55.808 154.88,56.32C154.88,56.619 154.624,56.917 154.112,57.216C153.6,57.515 152.96,57.664 152.192,57.664L134.784,57.664C134.016,57.664 133.386,57.536 132.896,57.28C132.405,57.024 132.16,56.832 132.16,56.704C132.16,55.893 132.384,55.275 132.832,54.848C133.28,54.421 133.909,54.016 134.72,53.632C135.488,53.248 136.053,52.885 136.416,52.544C136.778,52.203 136.96,51.733 136.96,51.136L136.96,29.632C136.96,29.504 137.002,29.397 137.088,29.312L133.44,29.312C132.714,29.312 132.096,29.131 131.584,28.768C131.072,28.405 130.816,28.096 130.816,27.84L130.816,25.536C130.816,25.28 131.072,24.971 131.584,24.608C132.096,24.245 132.714,24.064 133.44,24.064L137.024,24.064Z" style="fill:none;fill-rule:nonzero;stroke:rgb(35,31,32);stroke-width:16px;"/>
    <path d="M184.863,52.672C185.226,53.056 185.749,53.483 186.431,53.952C187.071,54.336 187.541,54.699 187.839,55.04C188.138,55.381 188.287,55.808 188.287,56.32C188.287,56.619 188.042,56.917 187.551,57.216C187.061,57.515 186.431,57.664 185.663,57.664L168.191,57.664C167.466,57.664 166.858,57.536 166.367,57.28C165.877,57.024 165.631,56.832 165.631,56.704C165.631,55.893 165.855,55.275 166.303,54.848C166.751,54.421 167.381,54.016 168.191,53.632C168.959,53.248 169.525,52.885 169.887,52.544C170.25,52.203 170.431,51.733 170.431,51.136L170.431,22.144C170.431,20.224 170.186,18.848 169.695,18.016C169.205,17.184 168.533,16.448 167.679,15.808C167.125,15.424 166.719,15.072 166.463,14.752C166.207,14.432 166.079,13.952 166.079,13.312C166.079,12.971 166.218,12.661 166.495,12.384C166.773,12.107 167.381,11.797 168.319,11.456C168.618,11.371 169.173,11.157 169.983,10.816C171.903,10.005 173.749,9.333 175.519,8.8C177.29,8.267 179.029,8 180.735,8C182.271,8 183.253,8.437 183.679,9.312C184.106,10.187 184.319,11.477 184.319,13.184L184.319,51.072C184.319,51.755 184.501,52.288 184.863,52.672Z" style="fill:none;fill-rule:nonzero;stroke:rgb(35,31,32);stroke-width:16px;"/>
    <path d="M212.319,52.672C212.682,53.056 213.204,53.483 213.887,53.952C214.527,54.336 214.996,54.699 215.295,55.04C215.594,55.381 215.743,55.808 215.743,56.32C215.743,56.619 215.498,56.917 215.007,57.216C214.516,57.515 213.887,57.664 213.119,57.664L195.647,57.664C194.922,57.664 194.314,57.536 193.823,57.28C193.332,57.024 193.087,56.832 193.087,56.704C193.087,55.936 193.3,55.328 193.727,54.88C194.154,54.432 194.794,53.995 195.647,53.568C196.372,53.141 196.927,52.747 197.311,52.384C197.695,52.021 197.887,51.52 197.887,50.88L197.887,37.696C197.887,35.776 197.642,34.4 197.151,33.568C196.66,32.736 195.967,32.021 195.071,31.424C194.516,30.997 194.111,30.624 193.855,30.304C193.599,29.984 193.471,29.504 193.471,28.864C193.471,28.523 193.61,28.213 193.887,27.936C194.164,27.659 194.772,27.371 195.711,27.072C196.01,26.987 196.586,26.752 197.439,26.368C199.316,25.6 201.14,24.939 202.911,24.384C204.682,23.829 206.42,23.552 208.127,23.552C209.663,23.552 210.655,24.032 211.103,24.992C211.551,25.952 211.775,27.243 211.775,28.864L211.775,51.072C211.775,51.755 211.956,52.288 212.319,52.672ZM210.591,10.944C212.106,12.267 212.863,13.739 212.863,15.36C212.863,17.024 212.106,18.517 210.591,19.84C209.076,21.163 207.231,21.824 205.055,21.824C202.879,21.824 201.034,21.163 199.519,19.84C198.004,18.517 197.247,17.024 197.247,15.36C197.247,13.739 198.004,12.267 199.519,10.944C201.034,9.621 202.879,8.96 205.055,8.96C207.231,8.96 209.076,9.621 210.591,10.944Z" style="fill:none;fill-rule:nonzero;stroke:rgb(35,31,32);stroke-width:16px;"/>
    <path d="M239.742,52.64C240.084,53.003 240.596,53.419 241.278,53.888C242.089,54.4 242.622,54.827 242.878,55.168C243.22,54.187 243.86,52.821 244.798,51.072C245.822,49.195 246.58,47.541 247.07,46.112C247.561,44.683 247.806,42.965 247.806,40.96C247.806,38.315 247.326,36.288 246.366,34.88C245.406,33.472 244.052,32.768 242.302,32.768C241.364,32.768 240.617,32.939 240.062,33.28C239.508,33.621 239.23,34.24 239.23,35.136L239.23,51.264C239.23,51.819 239.401,52.277 239.742,52.64ZM242.174,57.664C241.62,57.792 240.788,57.856 239.678,57.856L222.91,57.856C221.972,57.856 221.342,57.749 221.022,57.536C220.702,57.323 220.542,57.109 220.542,56.896C220.542,56.128 220.756,55.52 221.182,55.072C221.609,54.624 222.228,54.187 223.038,53.76C223.806,53.333 224.372,52.939 224.734,52.576C225.097,52.213 225.278,51.712 225.278,51.072L225.278,37.888C225.278,35.968 225.033,34.603 224.542,33.792C224.052,32.981 223.38,32.256 222.526,31.616C221.972,31.232 221.566,30.88 221.31,30.56C221.054,30.24 220.926,29.76 220.926,29.12C220.926,28.821 221.406,28.373 222.366,27.776C223.326,27.179 224.553,26.581 226.046,25.984C227.54,25.387 229.14,24.875 230.846,24.448C232.553,24.021 234.132,23.808 235.582,23.808C237.033,23.808 238.004,24.256 238.494,25.152C238.985,26.048 239.23,27.264 239.23,28.8C240.937,27.349 242.505,26.155 243.934,25.216C245.364,24.277 246.676,23.808 247.87,23.808C250.174,23.808 252.244,24.203 254.078,24.992C255.913,25.781 257.46,26.88 258.718,28.288C259.977,29.696 260.937,31.328 261.598,33.184C262.26,35.04 262.59,37.013 262.59,39.104C262.59,41.152 262.377,42.997 261.95,44.64C261.524,46.283 260.948,47.744 260.222,49.024C259.497,50.304 258.729,51.413 257.918,52.352C257.108,53.291 256.062,54.443 254.782,55.808C253.118,57.515 251.785,59.019 250.782,60.32C249.78,61.621 248.98,63.104 248.382,64.768C248.34,64.768 248.318,64.875 248.318,65.088C248.318,65.216 248.404,65.387 248.574,65.6C248.788,65.899 248.894,66.155 248.894,66.368C248.894,66.752 248.596,67.168 247.998,67.616C247.401,68.064 246.74,68.288 246.014,68.288C244.777,68.288 243.774,67.509 243.006,65.952C242.238,64.395 241.854,62.656 241.854,60.736C241.854,59.755 241.961,58.731 242.174,57.664Z" style="fill:none;fill-rule:nonzero;stroke:rgb(35,31,32);stroke-width:16px;"/>
    <path d="M302.397,61.024C301.843,62.069 301.085,62.912 300.125,63.552C299.165,64.192 298.152,64.704 297.085,65.088C296.019,65.472 294.696,65.856 293.117,66.24C291.667,66.624 290.504,66.965 289.629,67.264C288.755,67.563 287.944,67.947 287.197,68.416C286.451,68.885 285.853,69.483 285.405,70.208C284.957,70.933 284.733,71.808 284.733,72.832C284.733,73.515 284.531,74.069 284.125,74.496C283.72,74.923 283.091,75.136 282.237,75.136C281.256,75.136 280.179,74.944 279.005,74.56C277.832,74.176 276.691,73.696 275.581,73.12C274.472,72.544 273.555,72.011 272.829,71.52C272.104,71.029 271.741,70.72 271.741,70.592C271.741,68.544 273.075,66.88 275.741,65.6C278.408,64.32 282.088,63.339 286.781,62.656C286.909,62.656 287.123,62.635 287.421,62.592C288.445,62.421 289.235,62.261 289.789,62.112C290.344,61.963 290.621,61.717 290.621,61.376C290.621,60.523 290.429,59.936 290.045,59.616C289.661,59.296 289.085,59.136 288.317,59.136L276.669,59.136C273.683,59.136 271.389,58.411 269.789,56.96C268.189,55.509 267.389,53.781 267.389,51.776C267.389,50.24 268.008,48.704 269.245,47.168C270.483,45.632 272.147,44.715 274.237,44.416C274.749,44.331 275.005,44.245 275.005,44.16C275.005,44.075 274.771,43.925 274.301,43.712C270.803,42.261 269.053,39.851 269.053,36.48C269.053,35.157 269.363,33.867 269.981,32.608C270.6,31.349 271.389,30.208 272.349,29.184C273.309,28.16 274.291,27.307 275.293,26.624C276.296,25.941 277.16,25.493 277.885,25.28C278.312,25.152 278.568,25.003 278.653,24.832C278.739,24.661 278.781,24.341 278.781,23.872C278.781,23.531 278.653,23.083 278.397,22.528C278.184,22.016 278.077,21.611 278.077,21.312C278.077,19.264 278.931,17.483 280.637,15.968C282.344,14.453 284.669,13.696 287.613,13.696C289.619,13.696 291.208,14.144 292.381,15.04C293.555,15.936 294.141,17.003 294.141,18.24C294.141,19.392 293.683,20.405 292.765,21.28C291.848,22.155 290.472,22.592 288.637,22.592L285.757,22.592C285.032,22.592 284.669,22.72 284.669,22.976L284.669,23.168C284.669,23.211 284.691,23.253 284.733,23.296C284.819,23.467 285.011,23.552 285.309,23.552C289.875,23.552 293.555,24.373 296.349,26.016C299.144,27.659 300.541,30.165 300.541,33.536C300.541,37.248 299.08,40.235 296.157,42.496C293.235,44.757 289.427,45.888 284.733,45.888C283.965,45.888 282.877,45.803 281.469,45.632C280.445,45.504 279.741,45.44 279.357,45.44C279.101,45.44 278.931,45.515 278.845,45.664C278.76,45.813 278.717,46.165 278.717,46.72C278.717,47.915 279.037,48.512 279.677,48.512L289.405,48.512C291.197,48.512 292.925,48.704 294.589,49.088C296.253,49.472 297.736,50.037 299.037,50.784C300.339,51.531 301.363,52.448 302.109,53.536C302.856,54.624 303.229,55.851 303.229,57.216C303.229,58.709 302.952,59.979 302.397,61.024ZM287.485,28.896C287.187,27.851 286.525,27.328 285.501,27.328C284.264,27.328 283.475,28.053 283.133,29.504C282.792,30.955 282.621,33.088 282.621,35.904C282.621,38.123 282.792,39.765 283.133,40.832C283.475,41.899 284.093,42.432 284.989,42.432C286.099,42.432 286.867,41.664 287.293,40.128C287.72,38.592 287.933,36.437 287.933,33.664C287.933,31.531 287.784,29.941 287.485,28.896Z" style="fill:none;fill-rule:nonzero;stroke:rgb(35,31,32);stroke-width:16px;"/>
    <text x="6.4px" y="57.664px" style="font-family:'Duvall-Bold', 'Duvall', fantasy;font-weight:700;font-size:64px;fill:white;">H<tspan x="60.288px 102.784px 129.216px 164.032px 191.488px 218.944px 265.792px " y="57.664px 57.664px 57.664px 57.664px 57.664px 57.664px 57.664px ">alfling</tspan></text>
</svg>
