<?xml version="1.0" encoding="UTF-8" standalone="no"?>
<!DOCTYPE svg PUBLIC "-//W3C//DTD SVG 1.1//EN" "http://www.w3.org/Graphics/SVG/1.1/DTD/svg11.dtd">
<svg width="100%" height="100%" viewBox="0 0 296 67" version="1.1" xmlns="http://www.w3.org/2000/svg" xmlns:xlink="http://www.w3.org/1999/xlink" xml:space="preserve" xmlns:serif="http://www.serif.com/" style="fill-rule:evenodd;clip-rule:evenodd;stroke-linejoin:round;">
    <path d="M85.952,26.56C85.099,29.205 83.979,31.701 82.592,34.048C81.205,36.395 79.776,38.539 78.304,40.48C76.832,42.421 74.987,44.693 72.768,47.296L72.384,47.744C72.341,47.787 72.235,47.893 72.064,48.064C71.552,48.576 71.296,49.045 71.296,49.472C71.296,49.685 71.413,49.963 71.648,50.304C71.883,50.645 72.171,51.008 72.512,51.392C72.853,51.776 73.024,51.989 73.024,52.032C73.024,52.459 72.939,52.779 72.768,52.992C72.597,53.205 72.128,53.504 71.36,53.888C71.317,53.888 71.147,53.973 70.848,54.144C70.08,54.571 69.195,55.04 68.192,55.552C67.189,56.064 66.101,56.576 64.928,57.088C63.755,57.6 62.571,58.037 61.376,58.4C60.181,58.763 59.136,58.944 58.24,58.944C57.173,58.944 56.267,58.709 55.52,58.24C54.773,57.771 54.4,57.216 54.4,56.576C54.4,56.405 54.443,56.085 54.528,55.616C54.613,55.019 54.656,54.571 54.656,54.272C54.656,54.016 54.613,53.76 54.528,53.504L54.528,53.44L49.984,41.024C49.643,41.536 48.875,42.56 47.68,44.096C46.571,45.547 45.685,46.741 45.024,47.68C44.363,48.619 44.032,49.216 44.032,49.472C44.032,49.685 44.139,49.952 44.352,50.272C44.565,50.592 44.843,50.965 45.184,51.392C45.525,51.733 45.696,51.947 45.696,52.032C45.696,52.459 45.611,52.779 45.44,52.992C45.269,53.205 44.821,53.504 44.096,53.888C43.968,53.931 43.712,54.059 43.328,54.272C42.432,54.784 41.525,55.275 40.608,55.744C39.691,56.213 38.645,56.693 37.472,57.184C36.299,57.675 35.125,58.091 33.952,58.432C32.779,58.773 31.765,58.944 30.912,58.944C29.845,58.944 28.949,58.709 28.224,58.24C27.499,57.771 27.136,57.216 27.136,56.576C27.136,56.405 27.179,56.085 27.264,55.616C27.349,55.019 27.392,54.571 27.392,54.272C27.392,54.016 27.349,53.76 27.264,53.504L27.264,53.44L13.952,16.576C13.696,15.936 13.312,15.392 12.8,14.944C12.288,14.496 11.605,14.037 10.752,13.568C9.813,13.013 9.12,12.512 8.672,12.064C8.224,11.616 8,11.051 8,10.368C8,10.24 8.245,10.059 8.736,9.824C9.227,9.589 9.771,9.472 10.368,9.472L29.824,9.472C31.829,9.472 33.12,9.653 33.696,10.016C34.272,10.379 34.56,10.837 34.56,11.392C34.56,12.715 34.347,13.589 33.92,14.016C33.493,14.443 32.917,14.699 32.192,14.784C31.552,14.869 31.232,15.061 31.232,15.36L31.232,16.832C31.232,17.771 31.317,18.496 31.488,19.008L41.536,44.48C41.664,44.736 41.749,44.928 41.792,45.056C42.176,44.501 42.645,43.669 43.2,42.56C43.755,41.451 44.299,40.267 44.832,39.008C45.365,37.749 45.803,36.565 46.144,35.456C46.485,34.347 46.656,33.472 46.656,32.832C46.656,32.32 46.613,31.893 46.528,31.552C46.443,31.211 46.315,30.741 46.144,30.144L46.016,29.824L41.28,16.576C41.024,15.936 40.64,15.392 40.128,14.944C39.616,14.496 38.933,14.037 38.08,13.568C37.141,13.013 36.448,12.512 36,12.064C35.552,11.616 35.328,11.051 35.328,10.368C35.328,10.24 35.573,10.059 36.064,9.824C36.555,9.589 37.077,9.472 37.632,9.472L57.152,9.472C59.157,9.472 60.448,9.653 61.024,10.016C61.6,10.379 61.888,10.837 61.888,11.392C61.888,12.757 61.664,13.643 61.216,14.048C60.768,14.453 60.181,14.699 59.456,14.784C58.816,14.869 58.496,15.061 58.496,15.36L58.496,16.832C58.496,17.771 58.581,18.496 58.752,19.008L68.8,44.288C70.677,41.771 72.192,38.859 73.344,35.552C74.496,32.245 75.072,28.928 75.072,25.6C75.072,23.083 74.709,21.077 73.984,19.584C73.259,18.091 72.235,16.853 70.912,15.872C70.784,15.744 70.72,15.595 70.72,15.424C70.72,14.955 71.125,14.315 71.936,13.504C72.747,12.693 73.792,11.861 75.072,11.008C76.352,10.155 77.621,9.44 78.88,8.864C80.139,8.288 81.195,8 82.048,8C82.517,8 82.88,8.107 83.136,8.32C84.843,9.6 85.952,11.029 86.464,12.608C86.976,14.187 87.232,16.128 87.232,18.432C87.232,21.205 86.805,23.915 85.952,26.56Z" style="fill:none;fill-rule:nonzero;stroke:rgb(35,31,32);stroke-width:16px;"/>
    <path d="M110.688,53.44C111.05,53.824 111.573,54.251 112.256,54.72C112.896,55.104 113.365,55.467 113.664,55.808C113.962,56.149 114.112,56.576 114.112,57.088C114.112,57.387 113.866,57.685 113.376,57.984C112.885,58.283 112.256,58.432 111.488,58.432L94.016,58.432C93.29,58.432 92.682,58.304 92.192,58.048C91.701,57.792 91.456,57.6 91.456,57.472C91.456,56.704 91.669,56.096 92.096,55.648C92.522,55.2 93.162,54.763 94.016,54.336C94.741,53.909 95.296,53.515 95.68,53.152C96.064,52.789 96.256,52.288 96.256,51.648L96.256,38.464C96.256,36.544 96.01,35.168 95.52,34.336C95.029,33.504 94.336,32.789 93.44,32.192C92.885,31.765 92.48,31.392 92.224,31.072C91.968,30.752 91.84,30.272 91.84,29.632C91.84,29.291 91.978,28.981 92.256,28.704C92.533,28.427 93.141,28.139 94.08,27.84C94.378,27.755 94.954,27.52 95.808,27.136C97.685,26.368 99.509,25.707 101.28,25.152C103.05,24.597 104.789,24.32 106.496,24.32C108.032,24.32 109.024,24.8 109.472,25.76C109.92,26.72 110.144,28.011 110.144,29.632L110.144,51.84C110.144,52.523 110.325,53.056 110.688,53.44ZM108.96,11.712C110.474,13.035 111.232,14.507 111.232,16.128C111.232,17.792 110.474,19.285 108.96,20.608C107.445,21.931 105.6,22.592 103.424,22.592C101.248,22.592 99.402,21.931 97.888,20.608C96.373,19.285 95.616,17.792 95.616,16.128C95.616,14.507 96.373,13.035 97.888,11.712C99.402,10.389 101.248,9.728 103.424,9.728C105.6,9.728 107.445,10.389 108.96,11.712Z" style="fill:none;fill-rule:nonzero;stroke:rgb(35,31,32);stroke-width:16px;"/>
    <path d="M135.679,46.272C135.509,46.4 135.423,46.635 135.423,46.976C135.423,47.189 135.359,47.339 135.231,47.424L143.167,47.424C144.106,47.424 144.874,47.232 145.471,46.848C146.069,46.464 146.709,45.888 147.391,45.12C148.117,44.352 148.789,43.765 149.407,43.36C150.026,42.955 150.847,42.752 151.871,42.752C152.597,42.752 153.205,42.901 153.695,43.2C154.186,43.499 154.431,43.733 154.431,43.904C154.431,44.8 154.314,45.717 154.079,46.656C153.845,47.595 153.45,48.789 152.895,50.24C151.999,52.8 151.509,54.699 151.423,55.936C151.338,56.704 150.997,57.387 150.399,57.984C149.802,58.581 149.055,58.88 148.159,58.88C147.434,58.88 146.837,58.837 146.367,58.752C145.898,58.667 145.343,58.539 144.703,58.368C143.679,58.069 142.559,57.835 141.343,57.664C140.127,57.493 138.261,57.408 135.743,57.408C134.293,57.408 132.01,57.643 128.895,58.112C125.653,58.624 123.157,58.88 121.407,58.88C120.639,58.88 120.063,58.741 119.679,58.464C119.295,58.187 119.039,57.963 118.911,57.792C118.954,57.664 119.125,57.408 119.423,57.024C119.722,56.64 120.021,56.256 120.319,55.872C120.405,55.787 120.469,55.723 120.511,55.68L138.047,35.712L138.047,35.328C138.09,35.072 138.111,34.88 138.111,34.752C138.111,34.624 138.133,34.539 138.175,34.496C137.578,34.453 136.639,34.432 135.359,34.432C134.25,34.432 132.778,34.475 130.943,34.56L130.751,34.56C129.77,34.603 128.949,34.837 128.287,35.264C127.626,35.691 126.869,36.288 126.015,37.056C125.375,37.653 124.842,38.101 124.415,38.4C123.989,38.699 123.519,38.848 123.007,38.848C122.282,38.848 121.695,38.656 121.247,38.272C120.799,37.888 120.575,37.568 120.575,37.312C120.575,36.928 120.725,36.203 121.023,35.136C121.322,34.069 121.685,32.747 122.111,31.168C122.495,29.888 122.815,28.789 123.071,27.872C123.327,26.955 123.519,26.219 123.647,25.664C123.69,25.28 123.957,24.832 124.447,24.32C124.938,23.808 125.567,23.552 126.335,23.552C126.762,23.552 127.573,23.723 128.767,24.064C130.517,24.619 131.882,24.896 132.863,24.896L145.407,24.896C145.919,24.896 146.517,24.747 147.199,24.448C147.797,24.149 148.426,23.925 149.087,23.776C149.749,23.627 150.698,23.552 151.935,23.552C152.49,23.552 153.066,23.68 153.663,23.936C154.261,24.192 154.559,24.384 154.559,24.512C154.389,24.683 154.111,25.003 153.727,25.472L137.471,44.224L135.679,46.272Z" style="fill:none;fill-rule:nonzero;stroke:rgb(35,31,32);stroke-width:16px;"/>
    <path d="M196.287,51.648C196.287,52.416 196.415,52.971 196.671,53.312C196.927,53.653 197.311,53.995 197.823,54.336C198.292,54.677 198.644,55.008 198.879,55.328C199.114,55.648 199.252,56.149 199.295,56.832C199.295,57.301 199.114,57.685 198.751,57.984C198.388,58.283 197.631,58.432 196.479,58.432L186.623,58.432C185.898,58.432 185.3,58.315 184.831,58.08C184.362,57.845 184.01,57.557 183.775,57.216C183.54,56.875 183.391,56.587 183.327,56.352C183.263,56.117 183.231,55.936 183.231,55.808C182.804,55.808 182.036,56.128 180.927,56.768C179.946,57.408 178.996,57.909 178.079,58.272C177.162,58.635 176.084,58.816 174.847,58.816C171.178,58.816 168.052,58.027 165.471,56.448C162.89,54.869 161.599,52.651 161.599,49.792C161.599,47.573 162.154,45.664 163.263,44.064C164.372,42.464 165.898,41.152 167.839,40.128C169.78,39.104 171.978,38.357 174.431,37.888C176.884,37.419 179.476,37.184 182.207,37.184L182.335,37.184C182.164,37.013 182.079,36.736 182.079,36.352C182.079,36.309 182.058,35.797 182.015,34.816C181.972,32.725 181.791,31.168 181.471,30.144C181.151,29.12 180.458,28.608 179.391,28.608C178.879,28.608 178.41,28.8 177.983,29.184C177.556,29.568 177.023,30.208 176.383,31.104C175.359,32.512 174.356,33.6 173.375,34.368C172.394,35.136 171.114,35.52 169.535,35.52C167.999,35.52 166.698,35.264 165.631,34.752C164.564,34.24 163.743,33.547 163.167,32.672C162.591,31.797 162.186,30.848 161.951,29.824C161.716,28.8 161.599,27.733 161.599,26.624C161.599,26.155 161.802,25.717 162.207,25.312C162.612,24.907 163.242,24.704 164.095,24.704C164.266,24.704 164.479,24.715 164.735,24.736C164.991,24.757 165.226,24.832 165.439,24.96C165.738,25.088 166.164,25.28 166.719,25.536C167.7,25.963 168.468,26.176 169.023,26.176C169.834,26.176 171.092,25.941 172.799,25.472C174.079,25.131 175.274,24.864 176.383,24.672C177.492,24.48 178.73,24.384 180.095,24.384C182.228,24.384 184.266,24.651 186.207,25.184C188.148,25.717 189.876,26.464 191.391,27.424C192.906,28.384 194.1,29.472 194.975,30.688C195.85,31.904 196.287,33.152 196.287,34.432L196.287,51.648ZM181.727,52.128C181.962,51.851 182.079,51.243 182.079,50.304L182.079,41.28C182.079,40.512 182.25,40.107 182.591,40.064C180.97,40.149 179.508,40.832 178.207,42.112C176.906,43.392 176.255,45.227 176.255,47.616C176.255,49.493 176.596,50.784 177.279,51.488C177.962,52.192 179.007,52.544 180.415,52.544C181.055,52.544 181.492,52.405 181.727,52.128Z" style="fill:none;fill-rule:nonzero;stroke:rgb(35,31,32);stroke-width:16px;"/>
    <path d="M223.23,53.44C223.572,53.824 224.084,54.251 224.766,54.72C225.406,55.104 225.876,55.456 226.174,55.776C226.473,56.096 226.622,56.533 226.622,57.088C226.622,57.387 226.377,57.685 225.886,57.984C225.396,58.283 224.766,58.432 223.998,58.432L206.718,58.432C205.95,58.432 205.321,58.304 204.83,58.048C204.34,57.792 204.094,57.6 204.094,57.472C204.094,56.704 204.308,56.107 204.734,55.68C205.161,55.253 205.78,54.805 206.59,54.336C207.358,53.909 207.934,53.515 208.318,53.152C208.702,52.789 208.894,52.288 208.894,51.648L208.894,38.592C208.894,36.715 208.649,35.36 208.158,34.528C207.668,33.696 206.974,32.981 206.078,32.384C205.524,31.957 205.118,31.584 204.862,31.264C204.606,30.944 204.478,30.464 204.478,29.824C204.478,29.483 204.628,29.173 204.926,28.896C205.225,28.619 205.844,28.331 206.782,28.032C206.996,27.947 207.508,27.733 208.318,27.392C210.238,26.624 212.084,25.963 213.854,25.408C215.625,24.853 217.364,24.576 219.07,24.576C220.222,24.576 221.076,24.853 221.63,25.408C222.185,25.963 222.526,26.731 222.654,27.712C223.764,26.731 225.086,25.931 226.622,25.312C228.158,24.693 229.865,24.384 231.742,24.384C234.558,24.384 236.745,25.067 238.302,26.432C239.86,27.797 240.638,29.504 240.638,31.552C240.638,33.045 240.052,34.283 238.878,35.264C237.705,36.245 236.073,36.736 233.982,36.736C232.66,36.736 231.582,36.491 230.75,36C229.918,35.509 229.054,34.816 228.158,33.92C227.689,33.365 227.284,32.971 226.942,32.736C226.601,32.501 226.238,32.384 225.854,32.384C225.3,32.384 224.862,32.427 224.542,32.512C224.222,32.597 223.828,32.747 223.358,32.96C222.932,33.173 222.718,35.2 222.718,39.04L222.718,51.84C222.718,52.523 222.889,53.056 223.23,53.44Z" style="fill:none;fill-rule:nonzero;stroke:rgb(35,31,32);stroke-width:16px;"/>
    <path d="M268.158,24.64C268.883,24.64 269.352,24.661 269.566,24.704C269.48,24.533 269.438,24.341 269.438,24.128L269.438,22.912C269.438,20.992 269.192,19.616 268.702,18.784C268.211,17.952 267.539,17.216 266.686,16.576C266.131,16.192 265.726,15.84 265.47,15.52C265.214,15.2 265.086,14.72 265.086,14.08C265.086,13.781 265.576,13.333 266.558,12.736C267.539,12.139 268.766,11.541 270.238,10.944C271.71,10.347 273.31,9.835 275.038,9.408C276.766,8.981 278.355,8.768 279.806,8.768C281.342,8.768 282.323,9.205 282.75,10.08C283.176,10.955 283.39,12.245 283.39,13.952L283.39,51.84C283.39,52.523 283.571,53.056 283.934,53.44C284.296,53.824 284.819,54.251 285.502,54.72C286.142,55.104 286.611,55.467 286.91,55.808C287.208,56.149 287.358,56.576 287.358,57.088C287.358,57.387 287.112,57.685 286.622,57.984C286.131,58.283 285.502,58.432 284.734,58.432L267.262,58.432C266.494,58.432 265.864,58.304 265.374,58.048C264.883,57.792 264.638,57.6 264.638,57.472C264.638,57.045 264.702,56.683 264.83,56.384C263.507,57.152 262.355,57.76 261.374,58.208C260.392,58.656 259.624,58.88 259.07,58.88C257.406,58.88 255.763,58.432 254.142,57.536C252.52,56.64 251.048,55.413 249.726,53.856C248.403,52.299 247.358,50.507 246.59,48.48C245.822,46.453 245.438,44.352 245.438,42.176C245.438,40 246.078,37.867 247.358,35.776C248.638,33.685 250.344,31.787 252.478,30.08C254.611,28.373 256.936,27.04 259.454,26.08C261.971,25.12 264.382,24.64 266.686,24.64L268.158,24.64ZM266.206,28.832C265.118,29.365 264.115,30.165 263.198,31.232C262.28,32.299 261.534,33.611 260.958,35.168C260.382,36.725 260.094,38.443 260.094,40.32C260.094,42.155 260.318,43.691 260.766,44.928C261.214,46.165 261.779,47.115 262.462,47.776C263.144,48.437 263.87,48.896 264.638,49.152C265.406,49.408 266.131,49.536 266.814,49.536C268.094,49.536 268.851,49.451 269.086,49.28C269.32,49.109 269.438,48.555 269.438,47.616L269.438,29.312C269.438,28.928 269.502,28.565 269.63,28.224C269.672,28.181 269.694,28.139 269.694,28.096C269.694,28.053 269.566,28.032 269.31,28.032C268.328,28.032 267.294,28.299 266.206,28.832Z" style="fill:none;fill-rule:nonzero;stroke:rgb(35,31,32);stroke-width:16px;"/>
    <path d="M87.232,18.432C87.232,16.128 86.976,14.187 86.464,12.608C85.952,11.029 84.843,9.6 83.136,8.32C82.88,8.107 82.517,8 82.048,8C81.195,8 80.139,8.288 78.88,8.864C77.621,9.44 76.352,10.155 75.072,11.008C73.792,11.861 72.747,12.693 71.936,13.504C71.125,14.315 70.72,14.955 70.72,15.424C70.72,15.595 70.784,15.744 70.912,15.872C72.235,16.853 73.259,18.091 73.984,19.584C74.709,21.077 75.072,23.083 75.072,25.6C75.072,28.928 74.496,32.245 73.344,35.552C72.192,38.859 70.677,41.771 68.8,44.288L58.752,19.008C58.581,18.496 58.496,17.771 58.496,16.832L58.496,15.36C58.496,15.061 58.816,14.869 59.456,14.784C60.181,14.699 60.768,14.453 61.216,14.048C61.664,13.643 61.888,12.757 61.888,11.392C61.888,10.837 61.6,10.379 61.024,10.016C60.448,9.653 59.157,9.472 57.152,9.472L37.632,9.472C37.077,9.472 36.555,9.589 36.064,9.824C35.573,10.059 35.328,10.24 35.328,10.368C35.328,11.051 35.552,11.616 36,12.064C36.448,12.512 37.141,13.013 38.08,13.568C38.933,14.037 39.616,14.496 40.128,14.944C40.64,15.392 41.024,15.936 41.28,16.576L46.016,29.824L46.144,30.144C46.315,30.741 46.443,31.211 46.528,31.552C46.613,31.893 46.656,32.32 46.656,32.832C46.656,33.472 46.485,34.347 46.144,35.456C45.803,36.565 45.365,37.749 44.832,39.008C44.299,40.267 43.755,41.451 43.2,42.56C42.645,43.669 42.176,44.501 41.792,45.056C41.749,44.928 41.664,44.736 41.536,44.48L31.488,19.008C31.317,18.496 31.232,17.771 31.232,16.832L31.232,15.36C31.232,15.061 31.552,14.869 32.192,14.784C32.917,14.699 33.493,14.443 33.92,14.016C34.347,13.589 34.56,12.715 34.56,11.392C34.56,10.837 34.272,10.379 33.696,10.016C33.12,9.653 31.829,9.472 29.824,9.472L10.368,9.472C9.771,9.472 9.227,9.589 8.736,9.824C8.245,10.059 8,10.24 8,10.368C8,11.051 8.224,11.616 8.672,12.064C9.12,12.512 9.813,13.013 10.752,13.568C11.605,14.037 12.288,14.496 12.8,14.944C13.312,15.392 13.696,15.936 13.952,16.576L27.264,53.44L27.264,53.504C27.349,53.76 27.392,54.016 27.392,54.272C27.392,54.571 27.349,55.019 27.264,55.616C27.179,56.085 27.136,56.405 27.136,56.576C27.136,57.216 27.499,57.771 28.224,58.24C28.949,58.709 29.845,58.944 30.912,58.944C31.765,58.944 32.779,58.773 33.952,58.432C35.125,58.091 36.299,57.675 37.472,57.184C38.645,56.693 39.691,56.213 40.608,55.744C41.525,55.275 42.432,54.784 43.328,54.272C43.712,54.059 43.968,53.931 44.096,53.888C44.821,53.504 45.269,53.205 45.44,52.992C45.611,52.779 45.696,52.459 45.696,52.032C45.696,51.947 45.525,51.733 45.184,51.392C44.843,50.965 44.565,50.592 44.352,50.272C44.139,49.952 44.032,49.685 44.032,49.472C44.032,49.216 44.363,48.619 45.024,47.68C45.685,46.741 46.571,45.547 47.68,44.096C48.875,42.56 49.643,41.536 49.984,41.024L54.528,53.44L54.528,53.504C54.613,53.76 54.656,54.016 54.656,54.272C54.656,54.571 54.613,55.019 54.528,55.616C54.443,56.085 54.4,56.405 54.4,56.576C54.4,57.216 54.773,57.771 55.52,58.24C56.267,58.709 57.173,58.944 58.24,58.944C59.136,58.944 60.181,58.763 61.376,58.4C62.571,58.037 63.755,57.6 64.928,57.088C66.101,56.576 67.189,56.064 68.192,55.552C69.195,55.04 70.08,54.571 70.848,54.144C71.147,53.973 71.317,53.888 71.36,53.888C72.128,53.504 72.597,53.205 72.768,52.992C72.939,52.779 73.024,52.459 73.024,52.032C73.024,51.989 72.853,51.776 72.512,51.392C72.171,51.008 71.883,50.645 71.648,50.304C71.413,49.963 71.296,49.685 71.296,49.472C71.296,49.045 71.552,48.576 72.064,48.064C72.235,47.893 72.341,47.787 72.384,47.744L72.768,47.296C74.987,44.693 76.832,42.421 78.304,40.48C79.776,38.539 81.205,36.395 82.592,34.048C83.979,31.701 85.099,29.205 85.952,26.56C86.805,23.915 87.232,21.205 87.232,18.432Z" style="fill:white;fill-rule:nonzero;"/>
    <path d="M110.144,51.84L110.144,29.632C110.144,28.011 109.92,26.72 109.472,25.76C109.024,24.8 108.032,24.32 106.496,24.32C104.789,24.32 103.051,24.597 101.28,25.152C99.509,25.707 97.685,26.368 95.808,27.136C94.955,27.52 94.379,27.755 94.08,27.84C93.141,28.139 92.533,28.427 92.256,28.704C91.979,28.981 91.84,29.291 91.84,29.632C91.84,30.272 91.968,30.752 92.224,31.072C92.48,31.392 92.885,31.765 93.44,32.192C94.336,32.789 95.029,33.504 95.52,34.336C96.011,35.168 96.256,36.544 96.256,38.464L96.256,51.648C96.256,52.288 96.064,52.789 95.68,53.152C95.296,53.515 94.741,53.909 94.016,54.336C93.163,54.763 92.523,55.2 92.096,55.648C91.669,56.096 91.456,56.704 91.456,57.472C91.456,57.6 91.701,57.792 92.192,58.048C92.683,58.304 93.291,58.432 94.016,58.432L111.488,58.432C112.256,58.432 112.885,58.283 113.376,57.984C113.867,57.685 114.112,57.387 114.112,57.088C114.112,56.576 113.963,56.149 113.664,55.808C113.365,55.467 112.896,55.104 112.256,54.72C111.573,54.251 111.051,53.824 110.688,53.44C110.325,53.056 110.144,52.523 110.144,51.84ZM103.424,9.728C101.248,9.728 99.403,10.389 97.888,11.712C96.373,13.035 95.616,14.507 95.616,16.128C95.616,17.792 96.373,19.285 97.888,20.608C99.403,21.931 101.248,22.592 103.424,22.592C105.6,22.592 107.445,21.931 108.96,20.608C110.475,19.285 111.232,17.792 111.232,16.128C111.232,14.507 110.475,13.035 108.96,11.712C107.445,10.389 105.6,9.728 103.424,9.728Z" style="fill:white;fill-rule:nonzero;"/>
    <path d="M137.472,44.224L153.728,25.472C154.112,25.003 154.347,24.725 154.432,24.64C154.517,24.555 154.56,24.512 154.56,24.512C154.56,24.384 154.261,24.192 153.664,23.936C153.067,23.68 152.491,23.552 151.936,23.552C150.699,23.552 149.749,23.627 149.088,23.776C148.427,23.925 147.797,24.149 147.2,24.448C146.517,24.747 145.92,24.896 145.408,24.896L132.864,24.896C131.883,24.896 130.517,24.619 128.768,24.064C127.573,23.723 126.763,23.552 126.336,23.552C125.568,23.552 124.939,23.808 124.448,24.32C123.957,24.832 123.691,25.28 123.648,25.664C123.52,26.219 123.328,26.955 123.072,27.872C122.816,28.789 122.496,29.888 122.112,31.168C121.685,32.747 121.323,34.069 121.024,35.136C120.725,36.203 120.576,36.928 120.576,37.312C120.576,37.568 120.8,37.888 121.248,38.272C121.696,38.656 122.283,38.848 123.008,38.848C123.52,38.848 123.989,38.699 124.416,38.4C124.843,38.101 125.376,37.653 126.016,37.056C126.869,36.288 127.627,35.691 128.288,35.264C128.949,34.837 129.771,34.603 130.752,34.56L130.944,34.56C132.779,34.475 134.251,34.432 135.36,34.432C136.64,34.432 137.579,34.453 138.176,34.496C138.133,34.539 138.112,34.624 138.112,34.752C138.112,34.88 138.091,35.072 138.048,35.328L138.048,35.712L120.512,55.68C120.469,55.723 120.405,55.787 120.32,55.872C120.021,56.256 119.723,56.64 119.424,57.024C119.125,57.408 118.955,57.664 118.912,57.792C119.04,57.963 119.296,58.187 119.68,58.464C120.064,58.741 120.64,58.88 121.408,58.88C123.157,58.88 125.653,58.624 128.896,58.112C132.011,57.643 134.293,57.408 135.744,57.408C138.261,57.408 140.128,57.493 141.344,57.664C142.56,57.835 143.68,58.069 144.704,58.368C145.344,58.539 145.899,58.667 146.368,58.752C146.837,58.837 147.435,58.88 148.16,58.88C149.056,58.88 149.803,58.581 150.4,57.984C150.997,57.387 151.339,56.704 151.424,55.936C151.509,54.699 152,52.8 152.896,50.24C153.451,48.789 153.845,47.595 154.08,46.656C154.315,45.717 154.432,44.8 154.432,43.904C154.432,43.733 154.187,43.499 153.696,43.2C153.205,42.901 152.597,42.752 151.872,42.752C150.848,42.752 150.027,42.955 149.408,43.36C148.789,43.765 148.117,44.352 147.392,45.12C146.709,45.888 146.069,46.464 145.472,46.848C144.875,47.232 144.107,47.424 143.168,47.424L135.232,47.424C135.36,47.339 135.424,47.189 135.424,46.976C135.424,46.635 135.509,46.4 135.68,46.272L137.472,44.224Z" style="fill:white;fill-rule:nonzero;"/>
    <path d="M196.288,34.432C196.288,33.152 195.851,31.904 194.976,30.688C194.101,29.472 192.907,28.384 191.392,27.424C189.877,26.464 188.149,25.717 186.208,25.184C184.267,24.651 182.229,24.384 180.096,24.384C178.731,24.384 177.493,24.48 176.384,24.672C175.275,24.864 174.08,25.131 172.8,25.472C171.093,25.941 169.835,26.176 169.024,26.176C168.469,26.176 167.701,25.963 166.72,25.536C166.165,25.28 165.739,25.088 165.44,24.96C165.227,24.832 164.992,24.757 164.736,24.736C164.48,24.715 164.267,24.704 164.096,24.704C163.243,24.704 162.613,24.907 162.208,25.312C161.803,25.717 161.6,26.155 161.6,26.624C161.6,27.733 161.717,28.8 161.952,29.824C162.187,30.848 162.592,31.797 163.168,32.672C163.744,33.547 164.565,34.24 165.632,34.752C166.699,35.264 168,35.52 169.536,35.52C171.115,35.52 172.395,35.136 173.376,34.368C174.357,33.6 175.36,32.512 176.384,31.104C177.024,30.208 177.557,29.568 177.984,29.184C178.411,28.8 178.88,28.608 179.392,28.608C180.459,28.608 181.152,29.12 181.472,30.144C181.792,31.168 181.973,32.725 182.016,34.816C182.059,35.797 182.08,36.309 182.08,36.352C182.08,36.736 182.165,37.013 182.336,37.184L182.208,37.184C179.477,37.184 176.885,37.419 174.432,37.888C171.979,38.357 169.781,39.104 167.84,40.128C165.899,41.152 164.373,42.464 163.264,44.064C162.155,45.664 161.6,47.573 161.6,49.792C161.6,52.651 162.891,54.869 165.472,56.448C168.053,58.027 171.179,58.816 174.848,58.816C176.085,58.816 177.163,58.635 178.08,58.272C178.997,57.909 179.947,57.408 180.928,56.768C182.037,56.128 182.805,55.808 183.232,55.808C183.232,55.936 183.264,56.117 183.328,56.352C183.392,56.587 183.541,56.875 183.776,57.216C184.011,57.557 184.363,57.845 184.832,58.08C185.301,58.315 185.899,58.432 186.624,58.432L196.48,58.432C197.632,58.432 198.389,58.283 198.752,57.984C199.115,57.685 199.296,57.301 199.296,56.832C199.253,56.149 199.115,55.648 198.88,55.328C198.645,55.008 198.293,54.677 197.824,54.336C197.312,53.995 196.928,53.653 196.672,53.312C196.416,52.971 196.288,52.416 196.288,51.648L196.288,34.432ZM180.416,52.544C179.008,52.544 177.963,52.192 177.28,51.488C176.597,50.784 176.256,49.493 176.256,47.616C176.256,45.227 176.907,43.392 178.208,42.112C179.509,40.832 180.971,40.149 182.592,40.064C182.251,40.107 182.08,40.512 182.08,41.28L182.08,50.304C182.08,51.243 181.963,51.851 181.728,52.128C181.493,52.405 181.056,52.544 180.416,52.544Z" style="fill:white;fill-rule:nonzero;"/>
    <path d="M222.72,51.84L222.72,39.04C222.72,35.2 222.933,33.173 223.36,32.96C223.829,32.747 224.224,32.597 224.544,32.512C224.864,32.427 225.301,32.384 225.856,32.384C226.24,32.384 226.603,32.501 226.944,32.736C227.285,32.971 227.691,33.365 228.16,33.92C229.056,34.816 229.92,35.509 230.752,36C231.584,36.491 232.661,36.736 233.984,36.736C236.075,36.736 237.707,36.245 238.88,35.264C240.053,34.283 240.64,33.045 240.64,31.552C240.64,29.504 239.861,27.797 238.304,26.432C236.747,25.067 234.56,24.384 231.744,24.384C229.867,24.384 228.16,24.693 226.624,25.312C225.088,25.931 223.765,26.731 222.656,27.712C222.528,26.731 222.187,25.963 221.632,25.408C221.077,24.853 220.224,24.576 219.072,24.576C217.365,24.576 215.627,24.853 213.856,25.408C212.085,25.963 210.24,26.624 208.32,27.392C207.509,27.733 206.997,27.947 206.784,28.032C205.845,28.331 205.227,28.619 204.928,28.896C204.629,29.173 204.48,29.483 204.48,29.824C204.48,30.464 204.608,30.944 204.864,31.264C205.12,31.584 205.525,31.957 206.08,32.384C206.976,32.981 207.669,33.696 208.16,34.528C208.651,35.36 208.896,36.715 208.896,38.592L208.896,51.648C208.896,52.288 208.704,52.789 208.32,53.152C207.936,53.515 207.36,53.909 206.592,54.336C205.781,54.805 205.163,55.253 204.736,55.68C204.309,56.107 204.096,56.704 204.096,57.472C204.096,57.6 204.341,57.792 204.832,58.048C205.323,58.304 205.952,58.432 206.72,58.432L224,58.432C224.768,58.432 225.397,58.283 225.888,57.984C226.379,57.685 226.624,57.387 226.624,57.088C226.624,56.533 226.475,56.096 226.176,55.776C225.877,55.456 225.408,55.104 224.768,54.72C224.085,54.251 223.573,53.824 223.232,53.44C222.891,53.056 222.72,52.523 222.72,51.84Z" style="fill:white;fill-rule:nonzero;"/>
    <path d="M266.688,24.64C264.384,24.64 261.973,25.12 259.456,26.08C256.939,27.04 254.613,28.373 252.48,30.08C250.347,31.787 248.64,33.685 247.36,35.776C246.08,37.867 245.44,40 245.44,42.176C245.44,44.352 245.824,46.453 246.592,48.48C247.36,50.507 248.405,52.299 249.728,53.856C251.051,55.413 252.523,56.64 254.144,57.536C255.765,58.432 257.408,58.88 259.072,58.88C259.627,58.88 260.395,58.656 261.376,58.208C262.357,57.76 263.509,57.152 264.832,56.384C264.704,56.683 264.64,57.045 264.64,57.472C264.64,57.6 264.885,57.792 265.376,58.048C265.867,58.304 266.496,58.432 267.264,58.432L284.736,58.432C285.504,58.432 286.133,58.283 286.624,57.984C287.115,57.685 287.36,57.387 287.36,57.088C287.36,56.576 287.211,56.149 286.912,55.808C286.613,55.467 286.144,55.104 285.504,54.72C284.821,54.251 284.299,53.824 283.936,53.44C283.573,53.056 283.392,52.523 283.392,51.84L283.392,13.952C283.392,12.245 283.179,10.955 282.752,10.08C282.325,9.205 281.344,8.768 279.808,8.768C278.357,8.768 276.768,8.981 275.04,9.408C273.312,9.835 271.712,10.347 270.24,10.944C268.768,11.541 267.541,12.139 266.56,12.736C265.579,13.333 265.088,13.781 265.088,14.08C265.088,14.72 265.216,15.2 265.472,15.52C265.728,15.84 266.133,16.192 266.688,16.576C267.541,17.216 268.213,17.952 268.704,18.784C269.195,19.616 269.44,20.992 269.44,22.912L269.44,24.128C269.44,24.341 269.483,24.533 269.568,24.704C269.355,24.661 268.885,24.64 268.16,24.64L266.688,24.64ZM269.312,28.032C269.568,28.032 269.696,28.053 269.696,28.096C269.696,28.139 269.675,28.181 269.632,28.224C269.504,28.565 269.44,28.928 269.44,29.312L269.44,47.616C269.44,48.555 269.323,49.109 269.088,49.28C268.853,49.451 268.096,49.536 266.816,49.536C266.133,49.536 265.408,49.408 264.64,49.152C263.872,48.896 263.147,48.437 262.464,47.776C261.781,47.115 261.216,46.165 260.768,44.928C260.32,43.691 260.096,42.155 260.096,40.32C260.096,38.443 260.384,36.725 260.96,35.168C261.536,33.611 262.283,32.299 263.2,31.232C264.117,30.165 265.12,29.365 266.208,28.832C267.296,28.299 268.331,28.032 269.312,28.032Z" style="fill:white;fill-rule:nonzero;"/>
</svg>
