<?xml version="1.0" encoding="UTF-8" standalone="no"?>
<!DOCTYPE svg PUBLIC "-//W3C//DTD SVG 1.1//EN" "http://www.w3.org/Graphics/SVG/1.1/DTD/svg11.dtd">
<svg width="100%" height="100%" viewBox="0 0 200 51" version="1.1" xmlns="http://www.w3.org/2000/svg" xmlns:xlink="http://www.w3.org/1999/xlink" xml:space="preserve" xmlns:serif="http://www.serif.com/" style="fill-rule:evenodd;clip-rule:evenodd;stroke-linejoin:round;">
    <path d="M24.24,39.456C24.24,39.968 24.288,40.28 24.384,40.392C24.48,40.504 24.656,40.56 24.912,40.56C26,40.56 27.136,40.32 28.32,39.84C29.504,39.36 30.616,38.592 31.656,37.536C32.696,36.48 33.552,35.08 34.224,33.336C34.896,31.592 35.232,29.52 35.232,27.12C35.232,23.888 34.824,21.184 34.008,19.008C33.192,16.832 32.136,15.136 30.84,13.92C29.544,12.704 28.2,11.824 26.808,11.28C25.416,10.736 23.968,10.352 22.464,10.128C21.888,10.064 21.408,10.032 21.024,10.032L20.928,10.032L21.312,10.08C22.528,10.272 23.456,10.464 24.096,10.656C24.736,10.848 25.056,11.136 25.056,11.52C25.056,12.064 24.928,12.704 24.672,13.44C24.544,13.888 24.44,14.296 24.36,14.664C24.28,15.032 24.24,15.504 24.24,16.08L24.24,39.456ZM19.584,9.84C19.584,9.744 19.456,9.696 19.2,9.696C19.392,9.76 19.52,9.808 19.584,9.84ZM11.976,16.848C11.736,16.272 11.408,15.824 10.992,15.504C10.576,15.184 10.152,14.952 9.72,14.808C9.288,14.664 8.768,14.528 8.16,14.4C7.392,14.24 6.84,14.072 6.504,13.896C6.168,13.72 6,13.408 6,12.96C6,12.512 6.496,11.904 7.488,11.136C9.248,9.824 11.552,8.76 14.4,7.944C17.248,7.128 20.256,6.72 23.424,6.72C26.368,6.72 29.28,7.064 32.16,7.752C35.04,8.44 37.704,9.552 40.152,11.088C42.6,12.624 44.568,14.68 46.056,17.256C47.544,19.832 48.288,22.928 48.288,26.544C48.288,28.24 48,30.032 47.424,31.92C46.848,33.808 45.88,35.616 44.52,37.344C43.16,39.072 41.304,40.488 38.952,41.592C36.6,42.696 33.728,43.248 30.336,43.248L11.04,43.248C10.528,43.248 10.072,43.152 9.672,42.96C9.272,42.768 9.072,42.624 9.072,42.528C9.072,41.92 9.224,41.456 9.528,41.136C9.832,40.816 10.272,40.496 10.848,40.176C11.36,39.888 11.736,39.624 11.976,39.384C12.216,39.144 12.336,38.8 12.336,38.352L12.336,19.056C12.336,18.16 12.216,17.424 11.976,16.848Z" style="fill:none;fill-rule:nonzero;stroke:rgb(35,31,32);stroke-width:12px;"/>
    <path d="M63.168,18.864C63.936,19.44 64.544,20.208 64.992,21.168C65.44,22.128 65.792,23.152 66.048,24.24C66.304,25.328 66.56,26.672 66.816,28.272C66.976,29.264 67.072,29.856 67.104,30.048C67.36,31.584 67.712,33.008 68.16,34.32C68.608,35.632 68.864,36.288 68.928,36.288C68.928,36.224 69.04,35.92 69.264,35.376C69.84,33.904 70.288,32.656 70.608,31.632C70.864,30.8 71.064,29.96 71.208,29.112C71.352,28.264 71.424,27.472 71.424,26.736C71.424,25.904 71.232,25.288 70.848,24.888C70.464,24.488 69.888,24.112 69.12,23.76C68.544,23.504 68.112,23.248 67.824,22.992C67.536,22.736 67.392,22.368 67.392,21.888C67.392,21.6 67.656,21.232 68.184,20.784C68.712,20.336 69.408,19.896 70.272,19.464C71.136,19.032 72.056,18.68 73.032,18.408C74.008,18.136 74.928,18 75.792,18C76.944,18 77.904,18.288 78.672,18.864C79.44,19.44 80.048,20.208 80.496,21.168C80.944,22.128 81.296,23.152 81.552,24.24C81.808,25.328 82.064,26.672 82.32,28.272C82.48,29.264 82.576,29.856 82.608,30.048C82.864,31.584 83.216,33.008 83.664,34.32C84.112,35.632 84.368,36.288 84.432,36.288C84.432,36.224 84.544,35.92 84.768,35.376C85.344,33.904 85.792,32.656 86.112,31.632C86.368,30.8 86.568,29.96 86.712,29.112C86.856,28.264 86.928,27.472 86.928,26.736C86.928,26.064 86.72,25.12 86.304,23.904C85.92,22.784 85.728,21.968 85.728,21.456C85.728,21.136 86.088,20.752 86.808,20.304C87.528,19.856 88.44,19.424 89.544,19.008C90.648,18.592 91.752,18.256 92.856,18C93.96,17.744 94.88,17.616 95.616,17.616C96.128,17.616 96.544,17.768 96.864,18.072C97.184,18.376 97.344,18.624 97.344,18.816C97.344,19.072 97.208,19.536 96.936,20.208C96.664,20.88 96.272,21.712 95.76,22.704C95.248,23.696 94.696,24.728 94.104,25.8C93.512,26.872 92.8,28.176 91.968,29.712C90.88,31.664 90.016,33.232 89.376,34.416C88.736,35.6 88.176,36.672 87.696,37.632C87.632,37.696 87.6,37.76 87.6,37.824C88.016,37.856 88.408,37.936 88.776,38.064C89.144,38.192 89.328,38.336 89.328,38.496C89.328,38.656 89.08,39.064 88.584,39.72C88.088,40.376 87.496,41.064 86.808,41.784C86.12,42.504 85.384,43.128 84.6,43.656C83.816,44.184 83.136,44.448 82.56,44.448C81.76,44.448 80.888,44.216 79.944,43.752C79,43.288 78.064,42.64 77.136,41.808C76.208,40.976 75.384,40.04 74.664,39C73.944,37.96 73.424,36.912 73.104,35.856C73.008,36.016 72.928,36.144 72.864,36.24C72.544,36.848 72.32,37.312 72.192,37.632C72.128,37.696 72.096,37.76 72.096,37.824C72.512,37.856 72.904,37.936 73.272,38.064C73.64,38.192 73.824,38.336 73.824,38.496C73.824,38.656 73.576,39.064 73.08,39.72C72.584,40.376 71.992,41.064 71.304,41.784C70.616,42.504 69.88,43.128 69.096,43.656C68.312,44.184 67.632,44.448 67.056,44.448C66,44.448 64.872,44.032 63.672,43.2C62.472,42.368 61.344,41.272 60.288,39.912C59.232,38.552 58.376,37.096 57.72,35.544C57.064,33.992 56.736,32.56 56.736,31.248C56.736,30.064 56.64,29.064 56.448,28.248C56.256,27.432 56.008,26.768 55.704,26.256C55.4,25.744 55.08,25.344 54.744,25.056C54.408,24.768 54,24.48 53.52,24.192C52.944,23.84 52.528,23.512 52.272,23.208C52.016,22.904 51.888,22.464 51.888,21.888C51.888,21.6 52.152,21.232 52.68,20.784C53.208,20.336 53.904,19.896 54.768,19.464C55.632,19.032 56.552,18.68 57.528,18.408C58.504,18.136 59.424,18 60.288,18C61.44,18 62.4,18.288 63.168,18.864Z" style="fill:none;fill-rule:nonzero;stroke:rgb(35,31,32);stroke-width:12px;"/>
    <path d="M129.36,38.16C129.36,38.736 129.456,39.152 129.648,39.408C129.84,39.664 130.128,39.92 130.512,40.176C130.864,40.432 131.128,40.68 131.304,40.92C131.48,41.16 131.584,41.536 131.616,42.048C131.616,42.4 131.48,42.688 131.208,42.912C130.936,43.136 130.368,43.248 129.504,43.248L122.112,43.248C121.568,43.248 121.12,43.16 120.768,42.984C120.416,42.808 120.152,42.592 119.976,42.336C119.8,42.08 119.688,41.864 119.64,41.688C119.592,41.512 119.568,41.376 119.568,41.28C119.248,41.28 118.672,41.52 117.84,42C117.104,42.48 116.392,42.856 115.704,43.128C115.016,43.4 114.208,43.536 113.28,43.536C110.528,43.536 108.184,42.944 106.248,41.76C104.312,40.576 103.344,38.912 103.344,36.768C103.344,35.104 103.76,33.672 104.592,32.472C105.424,31.272 106.568,30.288 108.024,29.52C109.48,28.752 111.128,28.192 112.968,27.84C114.808,27.488 116.752,27.312 118.8,27.312L118.896,27.312C118.768,27.184 118.704,26.976 118.704,26.688C118.704,26.656 118.688,26.272 118.656,25.536C118.624,23.968 118.488,22.8 118.248,22.032C118.008,21.264 117.488,20.88 116.688,20.88C116.304,20.88 115.952,21.024 115.632,21.312C115.312,21.6 114.912,22.08 114.432,22.752C113.664,23.808 112.912,24.624 112.176,25.2C111.44,25.776 110.48,26.064 109.296,26.064C108.144,26.064 107.168,25.872 106.368,25.488C105.568,25.104 104.952,24.584 104.52,23.928C104.088,23.272 103.784,22.56 103.608,21.792C103.432,21.024 103.344,20.224 103.344,19.392C103.344,19.04 103.496,18.712 103.8,18.408C104.104,18.104 104.576,17.952 105.216,17.952C105.344,17.952 105.504,17.96 105.696,17.976C105.888,17.992 106.064,18.048 106.224,18.144C106.448,18.24 106.768,18.384 107.184,18.576C107.92,18.896 108.496,19.056 108.912,19.056C109.52,19.056 110.464,18.88 111.744,18.528C112.704,18.272 113.6,18.072 114.432,17.928C115.264,17.784 116.192,17.712 117.216,17.712C118.816,17.712 120.344,17.912 121.8,18.312C123.256,18.712 124.552,19.272 125.688,19.992C126.824,20.712 127.72,21.528 128.376,22.44C129.032,23.352 129.36,24.288 129.36,25.248L129.36,38.16ZM118.44,38.52C118.616,38.312 118.704,37.856 118.704,37.152L118.704,30.384C118.704,29.808 118.832,29.504 119.088,29.472C117.872,29.536 116.776,30.048 115.8,31.008C114.824,31.968 114.336,33.344 114.336,35.136C114.336,36.544 114.592,37.512 115.104,38.04C115.616,38.568 116.4,38.832 117.456,38.832C117.936,38.832 118.264,38.728 118.44,38.52Z" style="fill:none;fill-rule:nonzero;stroke:rgb(35,31,32);stroke-width:12px;"/>
    <path d="M151.967,39.504C152.223,39.792 152.607,40.112 153.119,40.464C153.599,40.752 153.951,41.016 154.175,41.256C154.399,41.496 154.511,41.824 154.511,42.24C154.511,42.464 154.327,42.688 153.959,42.912C153.591,43.136 153.119,43.248 152.543,43.248L139.583,43.248C139.007,43.248 138.535,43.152 138.167,42.96C137.799,42.768 137.615,42.624 137.615,42.528C137.615,41.952 137.775,41.504 138.095,41.184C138.415,40.864 138.879,40.528 139.487,40.176C140.063,39.856 140.495,39.56 140.783,39.288C141.071,39.016 141.215,38.64 141.215,38.16L141.215,28.368C141.215,26.96 141.031,25.944 140.663,25.32C140.295,24.696 139.775,24.16 139.103,23.712C138.687,23.392 138.383,23.112 138.191,22.872C137.999,22.632 137.903,22.272 137.903,21.792C137.903,21.536 138.015,21.304 138.239,21.096C138.463,20.888 138.927,20.672 139.631,20.448C139.791,20.384 140.175,20.224 140.783,19.968C142.223,19.392 143.607,18.896 144.935,18.48C146.263,18.064 147.567,17.856 148.847,17.856C149.711,17.856 150.351,18.064 150.767,18.48C151.183,18.896 151.439,19.472 151.535,20.208C152.367,19.472 153.359,18.872 154.511,18.408C155.663,17.944 156.943,17.712 158.351,17.712C160.463,17.712 162.103,18.224 163.271,19.248C164.439,20.272 165.023,21.552 165.023,23.088C165.023,24.208 164.583,25.136 163.703,25.872C162.823,26.608 161.599,26.976 160.031,26.976C159.039,26.976 158.231,26.792 157.607,26.424C156.983,26.056 156.335,25.536 155.663,24.864C155.311,24.448 155.007,24.152 154.751,23.976C154.495,23.8 154.223,23.712 153.935,23.712C153.519,23.712 153.191,23.744 152.951,23.808C152.711,23.872 152.415,23.984 152.063,24.144C151.743,24.304 151.583,25.824 151.583,28.704L151.583,38.304C151.583,38.816 151.711,39.216 151.967,39.504Z" style="fill:none;fill-rule:nonzero;stroke:rgb(35,31,32);stroke-width:12px;"/>
    <path d="M175.679,18.048C175.647,18.016 175.631,17.92 175.631,17.76C175.631,17.152 175.551,16.32 175.391,15.264C175.295,14.656 175.247,14.256 175.247,14.064C175.247,12.944 175.495,11.896 175.991,10.92C176.487,9.944 177.167,9.08 178.031,8.328C178.895,7.576 179.871,7 180.959,6.6C182.047,6.2 183.167,6 184.319,6C185.247,6 186.247,6.136 187.319,6.408C188.391,6.68 189.399,7.056 190.343,7.536C191.287,8.016 192.055,8.544 192.647,9.12C193.239,9.696 193.535,10.272 193.535,10.848C193.535,11.52 193.119,12.176 192.287,12.816C191.455,13.456 190.495,13.776 189.407,13.776C188.287,13.776 187.319,13.464 186.503,12.84C185.687,12.216 185.279,11.552 185.279,10.848L185.279,10.368C185.247,9.76 185.215,9.408 185.183,9.312C185.151,9.216 185.039,9.168 184.847,9.168C184.783,9.168 184.735,9.216 184.703,9.312C184.671,9.408 184.655,9.632 184.655,9.984C184.655,10.656 184.863,11.664 185.279,13.008C185.535,13.904 185.735,14.696 185.879,15.384C186.023,16.072 186.095,16.832 186.095,17.664C186.095,17.888 186.079,18.016 186.047,18.048L188.639,18.048C189.183,18.048 189.647,18.184 190.031,18.456C190.415,18.728 190.607,18.96 190.607,19.152L190.607,20.88C190.607,21.072 190.415,21.304 190.031,21.576C189.647,21.848 189.183,21.984 188.639,21.984L186.047,21.984C186.079,22.016 186.095,22.144 186.095,22.368L186.095,38.304C186.095,38.816 186.231,39.216 186.503,39.504C186.775,39.792 187.167,40.112 187.679,40.464C188.159,40.752 188.511,41.024 188.735,41.28C188.959,41.536 189.071,41.856 189.071,42.24C189.071,42.464 188.879,42.688 188.495,42.912C188.111,43.136 187.631,43.248 187.055,43.248L173.999,43.248C173.423,43.248 172.951,43.152 172.583,42.96C172.215,42.768 172.031,42.624 172.031,42.528C172.031,41.92 172.199,41.456 172.535,41.136C172.871,40.816 173.343,40.512 173.951,40.224C174.527,39.936 174.951,39.664 175.223,39.408C175.495,39.152 175.631,38.8 175.631,38.352L175.631,22.224C175.631,22.128 175.663,22.048 175.727,21.984L172.991,21.984C172.447,21.984 171.983,21.848 171.599,21.576C171.215,21.304 171.023,21.072 171.023,20.88L171.023,19.152C171.023,18.96 171.215,18.728 171.599,18.456C171.983,18.184 172.447,18.048 172.991,18.048L175.679,18.048Z" style="fill:none;fill-rule:nonzero;stroke:rgb(35,31,32);stroke-width:12px;"/>
    <text x="4.8px" y="43.248px" style="font-family:'Duvall-Bold', 'Duvall', fantasy;font-weight:700;font-size:48px;fill:white;">D<tspan x="50.688px 102.144px 136.416px 169.824px " y="43.248px 43.248px 43.248px 43.248px ">warf</tspan></text>
</svg>
