<?xml version="1.0" encoding="UTF-8" standalone="no"?>
<!DOCTYPE svg PUBLIC "-//W3C//DTD SVG 1.1//EN" "http://www.w3.org/Graphics/SVG/1.1/DTD/svg11.dtd">
<svg width="100%" height="100%" viewBox="0 0 616 140" version="1.1" xmlns="http://www.w3.org/2000/svg" xmlns:xlink="http://www.w3.org/1999/xlink" xml:space="preserve" xmlns:serif="http://www.serif.com/" style="fill-rule:evenodd;clip-rule:evenodd;stroke-linejoin:round;">
    <path d="M95.333,22.6C101.733,25.311 107.244,29.089 111.867,33.933C116.489,38.778 120.067,44.333 122.6,50.6C125.133,56.867 126.4,63.467 126.4,70.4C126.4,77.156 124.844,83.711 121.733,90.067C118.622,96.422 114.311,102.067 108.8,107C103.289,111.933 97.044,115.8 90.067,118.6C83.089,121.4 75.867,122.8 68.4,122.8C61.022,122.8 54.156,121.533 47.8,119C41.444,116.467 35.933,112.933 31.267,108.4C26.6,103.867 23,98.578 20.467,92.533C17.933,86.489 16.667,80.044 16.667,73.2C16.667,67.333 17.711,61.756 19.8,56.467C21.889,51.178 24.644,46.511 28.067,42.467C31.489,38.422 35.156,35.267 39.067,33C42.978,30.733 46.711,29.556 50.267,29.467C50.267,29.378 50.422,29.067 50.733,28.533C51.044,28 51.467,27.244 52,26.267C52.356,25.644 53.333,24.889 54.933,24C56.533,23.111 58.511,22.244 60.867,21.4C63.222,20.556 65.6,19.867 68,19.333C70.4,18.8 72.622,18.533 74.667,18.533C82.044,18.533 88.933,19.889 95.333,22.6ZM84.667,42.667C83.244,42.844 81.8,43.156 80.333,43.6C78.867,44.044 77.6,44.689 76.533,45.533C75.467,46.378 74.933,47.511 74.933,48.933C74.933,49.911 75.244,50.644 75.867,51.133C76.489,51.622 77.378,52.089 78.533,52.533C79.778,53.067 80.711,53.578 81.333,54.067C81.956,54.556 82.267,55.333 82.267,56.4C82.267,57.644 81.644,58.733 80.4,59.667C79.156,60.6 77.578,61.4 75.667,62.067C73.756,62.733 71.822,63.222 69.867,63.533C67.911,63.844 66.133,64 64.533,64C61.422,63.644 58.778,62.956 56.6,61.933C54.422,60.911 52.644,59.711 51.267,58.333C49.889,56.956 48.867,55.511 48.2,54C47.533,52.489 47.067,50.978 46.8,49.467C46.711,51.156 46.644,52.8 46.6,54.4C46.556,56 46.533,57.467 46.533,58.8C46.533,62.889 47.311,67.178 48.867,71.667C50.422,76.156 52.667,80.356 55.6,84.267C58.533,88.178 62,91.311 66,93.667C70,96.022 74.311,97.2 78.933,97.2C88.533,97.2 95.867,94.8 100.933,90C106,85.2 108.533,78.667 108.533,70.4C108.533,62.133 106.756,55.4 103.2,50.2C99.644,45 94.8,42.4 88.667,42.4C87.422,42.4 86.089,42.489 84.667,42.667Z" style="fill:none;fill-rule:nonzero;stroke:rgb(35,31,32);stroke-width:33.33px;"/>
    <path d="M176.532,76.4C176.532,76.311 176.843,76.2 177.465,76.067C178.087,75.933 178.754,75.867 179.465,75.867C180.265,75.867 181.065,76.067 181.865,76.467C182.665,76.867 183.065,77.111 183.065,77.2L182.932,77.733C182.665,78.267 182.532,78.578 182.532,78.667C182.443,78.756 182.265,79.022 181.998,79.467C181.287,80.622 180.798,81.644 180.532,82.533C180.443,83.156 180.043,83.756 179.332,84.333C178.621,84.911 177.643,85.2 176.398,85.2C174.976,85.2 174.265,85.067 174.265,84.8L173.865,84.8C166.932,84.267 161.821,84 158.532,84C151.332,84 145.909,84.267 142.265,84.8L140.398,84.8C139.421,84.8 138.509,84.622 137.665,84.267C136.821,83.911 136.398,83.6 136.398,83.333C136.487,83.156 136.621,82.889 136.798,82.533C136.976,82.178 137.154,81.911 137.332,81.733C137.332,81.644 137.421,81.467 137.598,81.2C138.132,80.222 138.532,79.333 138.798,78.533L138.798,78.4C138.976,77.689 139.243,77.2 139.598,76.933C139.954,76.667 140.754,76.4 141.998,76.133C142.532,76.133 143.332,76.178 144.398,76.267C144.576,76.267 144.932,76.311 145.465,76.4C150.443,77.022 155.732,77.333 161.332,77.333C168.265,77.333 173.332,77.022 176.532,76.4Z" style="fill:none;fill-rule:nonzero;stroke:rgb(35,31,32);stroke-width:33.33px;"/>
    <path d="M282.331,87.267C283.442,87.844 283.998,88.844 283.998,90.267C283.998,91.778 283.842,93.133 283.531,94.333C283.22,95.533 282.753,96.933 282.131,98.533C281.242,100.844 280.664,102.711 280.398,104.133C280.398,104.311 280.22,105.467 279.864,107.6C278.976,112.667 277.976,116.467 276.864,119C275.753,121.533 273.864,122.8 271.198,122.8C270.042,122.8 268.709,122.444 267.198,121.733C266.398,121.289 265.82,121.067 265.464,121.067C261.998,120.8 257.709,120.578 252.598,120.4C247.487,120.222 242.62,120.133 237.998,120.133L198.664,120.133C197.153,120.133 195.842,119.889 194.731,119.4C193.62,118.911 193.064,118.533 193.064,118.267C193.064,116.489 193.487,115.156 194.331,114.267C195.176,113.378 196.398,112.489 197.998,111.6C199.42,110.8 200.464,110.067 201.131,109.4C201.798,108.733 202.131,107.778 202.131,106.533L202.131,34.667C202.131,33.333 201.753,32.311 200.998,31.6C200.242,30.889 199.064,30.133 197.464,29.333C196.042,28.533 194.953,27.8 194.198,27.133C193.442,26.467 193.064,25.511 193.064,24.267C193.064,23.556 193.531,22.844 194.464,22.133C195.398,21.422 196.798,21.067 198.664,21.067L239.198,21.067C240.709,21.067 241.931,21.422 242.864,22.133C243.798,22.844 244.264,23.378 244.264,23.733C244.264,25.244 243.842,26.4 242.998,27.2C242.153,28 240.887,28.756 239.198,29.467C237.864,30 236.864,30.533 236.198,31.067C235.531,31.6 235.198,32.4 235.198,33.467L235.198,106.267C235.198,108.667 235.242,110.311 235.331,111.2C235.42,112.089 235.509,112.533 235.598,112.533C241.198,112.533 246.309,110.978 250.931,107.867C255.553,104.756 260.664,100.444 266.264,94.933C269.287,92 271.664,89.844 273.398,88.467C275.131,87.089 276.664,86.4 277.998,86.4C279.776,86.4 281.22,86.689 282.331,87.267Z" style="fill:none;fill-rule:nonzero;stroke:rgb(35,31,32);stroke-width:33.33px;"/>
    <path d="M329.596,59.733C327.373,59.733 325.596,60.378 324.262,61.667C322.929,62.956 321.951,64.578 321.329,66.533C320.707,68.489 320.307,70.422 320.129,72.333C319.951,74.244 319.862,76.311 319.862,78.533C319.862,81.378 320.04,83.556 320.396,85.067C320.662,86.222 320.796,86.978 320.796,87.333C324.884,85.289 328.24,83.422 330.862,81.733C333.484,80.044 336.129,77.867 338.796,75.2C339.151,74.756 339.329,74.089 339.329,73.2C339.329,72.667 339.196,72 338.929,71.2L338.796,70.8C337.64,67.6 336.329,64.956 334.862,62.867C333.396,60.778 331.684,59.733 329.729,59.733L329.596,59.733ZM370.529,68.8C370.796,69.422 370.929,69.911 370.929,70.267C370.929,70.711 370.618,71.156 369.996,71.6C369.373,72.044 368.484,72.533 367.329,73.067L365.862,73.867L327.996,94.267C327.284,94.622 326.929,95.067 326.929,95.6C326.929,95.778 326.973,96 327.062,96.267L327.062,96.533C327.062,96.622 326.973,96.667 326.796,96.667C329.818,98.356 332.773,99.6 335.662,100.4C338.551,101.2 341.862,101.6 345.596,101.6C347.018,101.6 349.284,101.067 352.396,100C355.507,98.933 359.062,97.022 363.062,94.267C363.418,94.089 363.64,93.956 363.729,93.867C366.04,92.533 367.996,91.867 369.596,91.867C370.929,91.867 371.929,92.111 372.596,92.6C373.262,93.089 373.596,93.467 373.596,93.733C373.596,94.178 373.284,95.2 372.662,96.8C371.24,100 369.284,103.067 366.796,106C364.307,108.933 361.396,111.533 358.062,113.8C354.729,116.067 351.018,117.844 346.929,119.133C342.84,120.422 338.529,121.067 333.996,121.067C328.484,121.067 323.307,120.289 318.462,118.733C313.618,117.178 309.373,114.978 305.729,112.133C302.084,109.289 299.24,105.956 297.196,102.133C295.151,98.311 294.129,94.178 294.129,89.733C294.129,84.4 295.329,79.244 297.729,74.267C300.129,69.289 303.418,64.844 307.596,60.933C311.773,57.022 316.507,53.956 321.796,51.733C327.084,49.511 332.484,48.4 337.996,48.4C344.929,48.4 351.151,50.089 356.662,53.467C362.173,56.844 366.307,60.978 369.062,65.867C369.773,67.2 370.262,68.178 370.529,68.8Z" style="fill:none;fill-rule:nonzero;stroke:rgb(35,31,32);stroke-width:33.33px;"/>
    <path d="M409.863,52.267C411.997,53.867 413.686,55.978 414.93,58.6C416.174,61.222 417.152,64.022 417.863,67C418.574,69.978 419.286,73.644 419.997,78C420.441,80.667 420.752,82.444 420.93,83.333C421.641,87.689 422.597,91.667 423.797,95.267C424.997,98.867 425.686,100.667 425.863,100.667C425.863,100.489 426.174,99.644 426.797,98.133C427.508,96.356 428.174,94.667 428.797,93.067C429.419,91.467 430.041,89.578 430.663,87.4C431.286,85.222 431.819,82.978 432.263,80.667C432.708,78.356 432.93,76.178 432.93,74.133C432.93,72.356 432.308,69.733 431.063,66.267C429.997,63.244 429.463,60.978 429.463,59.467C429.463,58.578 430.463,57.511 432.463,56.267C434.463,55.022 436.997,53.822 440.063,52.667C443.13,51.511 446.197,50.578 449.263,49.867C452.33,49.156 454.886,48.8 456.93,48.8C458.441,48.8 459.619,49.2 460.463,50C461.308,50.8 461.73,51.511 461.73,52.133C461.73,52.844 461.352,54.111 460.597,55.933C459.841,57.756 458.797,59.956 457.463,62.533C456.13,65.111 454.797,67.667 453.463,70.2C452.13,72.733 450.041,76.533 447.197,81.6C444.619,86.4 442.308,90.689 440.263,94.467C438.219,98.244 436.486,101.556 435.063,104.4C434.886,104.578 434.797,104.756 434.797,104.933C435.863,105.022 436.93,105.267 437.997,105.667C439.063,106.067 439.597,106.444 439.597,106.8C439.597,107.244 438.908,108.378 437.53,110.2C436.152,112.022 434.508,113.933 432.597,115.933C430.686,117.933 428.641,119.667 426.463,121.133C424.286,122.6 422.397,123.333 420.797,123.333C417.863,123.333 414.73,122.178 411.397,119.867C408.063,117.556 404.93,114.511 401.997,110.733C399.063,106.956 396.686,102.911 394.863,98.6C393.041,94.289 392.13,90.311 392.13,86.667C392.13,83.378 391.863,80.6 391.33,78.333C390.797,76.067 390.108,74.222 389.263,72.8C388.419,71.378 387.53,70.267 386.597,69.467C385.663,68.667 384.53,67.867 383.197,67.067C381.597,66.089 380.441,65.178 379.73,64.333C379.019,63.489 378.663,62.267 378.663,60.667C378.663,59.867 379.397,58.844 380.863,57.6C382.33,56.356 384.263,55.133 386.663,53.933C389.063,52.733 391.619,51.756 394.33,51C397.041,50.244 399.597,49.867 401.997,49.867C405.108,49.867 407.73,50.667 409.863,52.267Z" style="fill:none;fill-rule:nonzero;stroke:rgb(35,31,32);stroke-width:33.33px;"/>
    <path d="M507.196,59.733C504.973,59.733 503.196,60.378 501.862,61.667C500.529,62.956 499.551,64.578 498.929,66.533C498.307,68.489 497.907,70.422 497.729,72.333C497.551,74.244 497.462,76.311 497.462,78.533C497.462,81.378 497.64,83.556 497.996,85.067C498.262,86.222 498.396,86.978 498.396,87.333C502.484,85.289 505.84,83.422 508.462,81.733C511.084,80.044 513.729,77.867 516.396,75.2C516.751,74.756 516.929,74.089 516.929,73.2C516.929,72.667 516.796,72 516.529,71.2L516.396,70.8C515.24,67.6 513.929,64.956 512.462,62.867C510.996,60.778 509.284,59.733 507.329,59.733L507.196,59.733ZM548.129,68.8C548.396,69.422 548.529,69.911 548.529,70.267C548.529,70.711 548.218,71.156 547.596,71.6C546.973,72.044 546.084,72.533 544.929,73.067L543.462,73.867L505.596,94.267C504.884,94.622 504.529,95.067 504.529,95.6C504.529,95.778 504.573,96 504.662,96.267L504.662,96.533C504.662,96.622 504.573,96.667 504.396,96.667C507.418,98.356 510.373,99.6 513.262,100.4C516.151,101.2 519.462,101.6 523.196,101.6C524.618,101.6 526.884,101.067 529.996,100C533.107,98.933 536.662,97.022 540.662,94.267C541.018,94.089 541.24,93.956 541.329,93.867C543.64,92.533 545.596,91.867 547.196,91.867C548.529,91.867 549.529,92.111 550.196,92.6C550.862,93.089 551.196,93.467 551.196,93.733C551.196,94.178 550.884,95.2 550.262,96.8C548.84,100 546.884,103.067 544.396,106C541.907,108.933 538.996,111.533 535.662,113.8C532.329,116.067 528.618,117.844 524.529,119.133C520.44,120.422 516.129,121.067 511.596,121.067C506.084,121.067 500.907,120.289 496.062,118.733C491.218,117.178 486.973,114.978 483.329,112.133C479.684,109.289 476.84,105.956 474.796,102.133C472.751,98.311 471.729,94.178 471.729,89.733C471.729,84.4 472.929,79.244 475.329,74.267C477.729,69.289 481.018,64.844 485.196,60.933C489.373,57.022 494.107,53.956 499.396,51.733C504.684,49.511 510.084,48.4 515.596,48.4C522.529,48.4 528.751,50.089 534.262,53.467C539.773,56.844 543.907,60.978 546.662,65.867C547.373,67.2 547.862,68.178 548.129,68.8Z" style="fill:none;fill-rule:nonzero;stroke:rgb(35,31,32);stroke-width:33.33px;"/>
    <path d="M591.929,109.733C592.684,110.533 593.773,111.422 595.196,112.4C596.529,113.2 597.507,113.956 598.129,114.667C598.751,115.378 599.062,116.267 599.062,117.333C599.062,117.956 598.551,118.578 597.529,119.2C596.507,119.822 595.196,120.133 593.596,120.133L557.196,120.133C555.684,120.133 554.418,119.867 553.396,119.333C552.373,118.8 551.862,118.4 551.862,118.133C551.862,116.444 552.329,115.156 553.262,114.267C554.196,113.378 555.507,112.533 557.196,111.733C558.796,110.933 559.973,110.178 560.729,109.467C561.484,108.756 561.862,107.778 561.862,106.533L561.862,46.133C561.862,42.133 561.351,39.267 560.329,37.533C559.307,35.8 557.907,34.267 556.129,32.933C554.973,32.133 554.129,31.4 553.596,30.733C553.062,30.067 552.796,29.067 552.796,27.733C552.796,27.022 553.084,26.378 553.662,25.8C554.24,25.222 555.507,24.578 557.462,23.867C558.084,23.689 559.24,23.244 560.929,22.533C564.929,20.844 568.773,19.444 572.462,18.333C576.151,17.222 579.773,16.667 583.329,16.667C586.529,16.667 588.573,17.578 589.462,19.4C590.351,21.222 590.796,23.911 590.796,27.467L590.796,106.4C590.796,107.822 591.173,108.933 591.929,109.733Z" style="fill:none;fill-rule:nonzero;stroke:rgb(35,31,32);stroke-width:33.33px;"/>
    <text x="13.333px" y="120.133px" style="font-family:'Duvall-Bold', 'Duvall', fantasy;font-weight:700;font-size:133.333px;fill:white;">O<tspan x="133.067px 189.733px 290.8px 375.333px 468.4px 548.533px " y="120.133px 120.133px 120.133px 120.133px 120.133px 120.133px ">-Level</tspan></text>
</svg>
