<?xml version="1.0" encoding="UTF-8" standalone="no"?>
<!DOCTYPE svg PUBLIC "-//W3C//DTD SVG 1.1//EN" "http://www.w3.org/Graphics/SVG/1.1/DTD/svg11.dtd">
<svg width="100%" height="100%" viewBox="0 0 346 119" version="1.1" xmlns="http://www.w3.org/2000/svg" xmlns:xlink="http://www.w3.org/1999/xlink" xml:space="preserve" xmlns:serif="http://www.serif.com/" style="fill-rule:evenodd;clip-rule:evenodd;stroke-linejoin:round;">
    <path d="M66.55,82.2C67.117,82.8 67.933,83.467 69,84.2C70,84.8 70.733,85.367 71.2,85.9C71.667,86.433 71.9,87.1 71.9,87.9C71.9,88.367 71.517,88.85 70.75,89.35C69.983,89.85 69,90.1 67.8,90.1L38.2,90.1C37.133,90.1 36.183,89.9 35.35,89.5C34.517,89.1 34.1,88.8 34.1,88.6C34.1,87.333 34.417,86.367 35.05,85.7C35.683,85.033 36.6,84.367 37.8,83.7C38.867,83.1 39.65,82.55 40.15,82.05C40.65,81.55 40.9,80.833 40.9,79.9L40.9,26C40.9,25.067 40.8,24.317 40.6,23.75C40.4,23.183 40.167,22.767 39.9,22.5C37.7,22.633 35.8,23.067 34.2,23.8C32.6,24.533 31.267,25.467 30.2,26.6C29.133,27.733 28.283,28.9 27.65,30.1C27.017,31.3 26.333,32.733 25.6,34.4C24.733,36.4 23.983,37.833 23.35,38.7C22.717,39.567 21.9,40 20.9,40C19.233,40 17.833,39.2 16.7,37.6C15.567,36 14.7,33.967 14.1,31.5C13.5,29.033 13.083,26.433 12.85,23.7C12.617,20.967 12.5,18.4 12.5,16C12.5,15.333 12.8,14.7 13.4,14.1C14,13.5 15,13.2 16.4,13.2C18.667,13.2 20.167,13.4 20.9,13.8C21.633,14.2 22.067,14.667 22.2,15.2L22.3,15.3C23.367,15.5 25.4,15.633 28.4,15.7C31.4,15.767 36,15.8 42.2,15.8L62.1,15.8C69.967,15.8 75.267,15.767 78,15.7C79.2,15.633 80.033,15.567 80.5,15.5C80.967,15.433 81.4,15.367 81.8,15.3C82.067,15.233 82.4,14.967 82.8,14.5C83.267,13.9 83.883,13.417 84.65,13.05C85.417,12.683 86.7,12.5 88.5,12.5C90.1,12.5 91.183,12.8 91.75,13.4C92.317,14 92.6,14.733 92.6,15.6C92.6,17.4 92.433,19.633 92.1,22.3C91.767,24.967 91.283,27.6 90.65,30.2C90.017,32.8 89.217,34.95 88.25,36.65C87.283,38.35 86.2,39.2 85,39.2C83.533,39.2 82.4,38.717 81.6,37.75C80.8,36.783 79.933,35.267 79,33.2C78.333,31.733 77.717,30.483 77.15,29.45C76.583,28.417 75.817,27.4 74.85,26.4C73.883,25.4 72.667,24.567 71.2,23.9C69.733,23.233 67.967,22.8 65.9,22.6C65.767,23.267 65.7,24.067 65.7,25L65.7,79.7C65.7,80.767 65.983,81.6 66.55,82.2Z" style="fill:none;fill-rule:nonzero;stroke:rgb(35,31,32);stroke-width:25px;"/>
    <path d="M129.4,79.9C129.4,80.967 129.683,81.817 130.25,82.45C130.816,83.083 131.666,83.767 132.8,84.5C133.733,85.1 134.433,85.633 134.9,86.1C135.366,86.567 135.633,87.167 135.7,87.9C138.1,84.233 140.166,80.05 141.9,75.35C143.633,70.65 144.5,66.167 144.5,61.9C144.5,59.033 143.4,56.333 141.2,53.8C139,51.267 136.033,50 132.3,50C131.5,50 130.816,50.35 130.25,51.05C129.683,51.75 129.4,52.8 129.4,54.2L129.4,79.9ZM134.8,89.4C133.933,90 132.833,90.3 131.5,90.3L104.2,90.3C103,90.3 102.016,90.1 101.25,89.7C100.483,89.3 100.1,89 100.1,88.8C100.1,87.533 100.433,86.583 101.1,85.95C101.766,85.317 102.766,84.667 104.1,84C105.3,83.4 106.183,82.833 106.75,82.3C107.316,81.767 107.6,81 107.6,80L107.6,34.6C107.6,31.6 107.216,29.45 106.45,28.15C105.683,26.85 104.633,25.733 103.3,24.8C102.433,24.133 101.8,23.55 101.4,23.05C101,22.55 100.8,21.8 100.8,20.8C100.8,20.333 101.566,19.633 103.1,18.7C104.633,17.767 106.55,16.833 108.85,15.9C111.15,14.967 113.633,14.167 116.3,13.5C118.966,12.833 121.433,12.5 123.7,12.5C126.1,12.5 127.65,13.2 128.35,14.6C129.05,16 129.4,18 129.4,20.6L129.4,42.6C131.466,40.733 133.766,39.267 136.3,38.2C138.833,37.133 141.5,36.6 144.3,36.6C147.033,36.6 149.716,37.183 152.35,38.35C154.983,39.517 157.333,41.183 159.4,43.35C161.466,45.517 163.1,48.133 164.3,51.2C165.5,54.267 166.1,57.633 166.1,61.3C166.1,64.5 165.7,67.467 164.9,70.2C164.1,72.933 163.066,75.383 161.8,77.55C160.533,79.717 159.233,81.617 157.9,83.25C156.566,84.883 154.8,86.867 152.6,89.2C150.066,91.867 148.166,94.067 146.9,95.8C145.633,97.533 144.9,99.367 144.7,101.3C144.5,102.967 144.05,104.217 143.35,105.05C142.65,105.883 141.466,106.3 139.8,106.3C137.933,106.3 136.5,105.117 135.5,102.75C134.5,100.383 134,97.433 134,93.9C134,92.033 134.266,90.533 134.8,89.4Z" style="fill:none;fill-rule:nonzero;stroke:rgb(35,31,32);stroke-width:25px;"/>
    <path d="M208.649,82.3C209.215,82.9 210.032,83.567 211.099,84.3C212.099,84.9 212.832,85.467 213.299,86C213.765,86.533 213.999,87.2 213.999,88C213.999,88.467 213.615,88.933 212.849,89.4C212.082,89.867 211.099,90.1 209.899,90.1L182.599,90.1C181.465,90.1 180.515,89.9 179.749,89.5C178.982,89.1 178.599,88.8 178.599,88.6C178.599,87.4 178.932,86.45 179.599,85.75C180.265,85.05 181.265,84.367 182.599,83.7C183.732,83.033 184.599,82.417 185.199,81.85C185.799,81.283 186.099,80.5 186.099,79.5L186.099,58.9C186.099,55.9 185.715,53.75 184.949,52.45C184.182,51.15 183.099,50.033 181.699,49.1C180.832,48.433 180.199,47.85 179.799,47.35C179.399,46.85 179.199,46.1 179.199,45.1C179.199,44.567 179.415,44.083 179.849,43.65C180.282,43.217 181.232,42.767 182.699,42.3C183.165,42.167 184.065,41.8 185.399,41.2C188.332,40 191.182,38.967 193.949,38.1C196.715,37.233 199.432,36.8 202.099,36.8C204.499,36.8 206.049,37.55 206.749,39.05C207.449,40.55 207.799,42.567 207.799,45.1L207.799,79.8C207.799,80.867 208.082,81.7 208.649,82.3ZM205.949,17.1C208.315,19.167 209.499,21.467 209.499,24C209.499,26.6 208.315,28.933 205.949,31C203.582,33.067 200.699,34.1 197.299,34.1C193.899,34.1 191.015,33.067 188.649,31C186.282,28.933 185.099,26.6 185.099,24C185.099,21.467 186.282,19.167 188.649,17.1C191.015,15.033 193.899,14 197.299,14C200.699,14 203.582,15.033 205.949,17.1Z" style="fill:none;fill-rule:nonzero;stroke:rgb(35,31,32);stroke-width:25px;"/>
    <path d="M247.399,44.8C245.732,44.8 244.399,45.283 243.399,46.25C242.399,47.217 241.665,48.433 241.199,49.9C240.732,51.367 240.432,52.817 240.299,54.25C240.165,55.683 240.099,57.233 240.099,58.9C240.099,61.033 240.232,62.667 240.499,63.8C240.699,64.667 240.799,65.233 240.799,65.5C243.865,63.967 246.382,62.567 248.349,61.3C250.315,60.033 252.299,58.4 254.299,56.4C254.565,56.067 254.699,55.567 254.699,54.9C254.699,54.5 254.599,54 254.399,53.4L254.299,53.1C253.432,50.7 252.449,48.717 251.349,47.15C250.249,45.583 248.965,44.8 247.499,44.8L247.399,44.8ZM278.099,51.6C278.299,52.067 278.399,52.433 278.399,52.7C278.399,53.033 278.165,53.367 277.699,53.7C277.232,54.033 276.565,54.4 275.699,54.8L274.599,55.4L246.199,70.7C245.665,70.967 245.399,71.3 245.399,71.7C245.399,71.833 245.432,72 245.499,72.2L245.499,72.4C245.499,72.467 245.432,72.5 245.299,72.5C247.565,73.767 249.782,74.7 251.949,75.3C254.115,75.9 256.599,76.2 259.399,76.2C260.465,76.2 262.165,75.8 264.499,75C266.832,74.2 269.499,72.767 272.499,70.7C272.765,70.567 272.932,70.467 272.999,70.4C274.732,69.4 276.199,68.9 277.399,68.9C278.399,68.9 279.149,69.083 279.649,69.45C280.149,69.817 280.399,70.1 280.399,70.3C280.399,70.633 280.165,71.4 279.699,72.6C278.632,75 277.165,77.3 275.299,79.5C273.432,81.7 271.249,83.65 268.749,85.35C266.249,87.05 263.465,88.383 260.399,89.35C257.332,90.317 254.099,90.8 250.699,90.8C246.565,90.8 242.682,90.217 239.049,89.05C235.415,87.883 232.232,86.233 229.499,84.1C226.765,81.967 224.632,79.467 223.099,76.6C221.565,73.733 220.799,70.633 220.799,67.3C220.799,63.3 221.699,59.433 223.499,55.7C225.299,51.967 227.765,48.633 230.899,45.7C234.032,42.767 237.582,40.467 241.549,38.8C245.515,37.133 249.565,36.3 253.699,36.3C258.899,36.3 263.565,37.567 267.699,40.1C271.832,42.633 274.932,45.733 276.999,49.4C277.532,50.4 277.899,51.133 278.099,51.6Z" style="fill:none;fill-rule:nonzero;stroke:rgb(35,31,32);stroke-width:25px;"/>
    <path d="M295.7,37.6C295.633,37.533 295.6,37.333 295.6,37C295.6,35.733 295.433,34 295.1,31.8C294.9,30.533 294.8,29.7 294.8,29.3C294.8,26.967 295.317,24.783 296.35,22.75C297.383,20.717 298.8,18.917 300.6,17.35C302.4,15.783 304.433,14.583 306.7,13.75C308.967,12.917 311.3,12.5 313.7,12.5C315.633,12.5 317.717,12.783 319.95,13.35C322.183,13.917 324.283,14.7 326.25,15.7C328.217,16.7 329.817,17.8 331.05,19C332.283,20.2 332.9,21.4 332.9,22.6C332.9,24 332.033,25.367 330.3,26.7C328.567,28.033 326.567,28.7 324.3,28.7C321.967,28.7 319.95,28.05 318.25,26.75C316.55,25.45 315.7,24.067 315.7,22.6L315.7,21.6C315.633,20.333 315.567,19.6 315.5,19.4C315.433,19.2 315.2,19.1 314.8,19.1C314.667,19.1 314.567,19.2 314.5,19.4C314.433,19.6 314.4,20.067 314.4,20.8C314.4,22.2 314.833,24.3 315.7,27.1C316.233,28.967 316.65,30.617 316.95,32.05C317.25,33.483 317.4,35.067 317.4,36.8C317.4,37.267 317.367,37.533 317.3,37.6L322.7,37.6C323.833,37.6 324.8,37.883 325.6,38.45C326.4,39.017 326.8,39.5 326.8,39.9L326.8,43.5C326.8,43.9 326.4,44.383 325.6,44.95C324.8,45.517 323.833,45.8 322.7,45.8L317.3,45.8C317.367,45.867 317.4,46.133 317.4,46.6L317.4,79.8C317.4,80.867 317.683,81.7 318.25,82.3C318.817,82.9 319.633,83.567 320.7,84.3C321.7,84.9 322.433,85.467 322.9,86C323.367,86.533 323.6,87.2 323.6,88C323.6,88.467 323.2,88.933 322.4,89.4C321.6,89.867 320.6,90.1 319.4,90.1L292.2,90.1C291,90.1 290.017,89.9 289.25,89.5C288.483,89.1 288.1,88.8 288.1,88.6C288.1,87.333 288.45,86.367 289.15,85.7C289.85,85.033 290.833,84.4 292.1,83.8C293.3,83.2 294.183,82.633 294.75,82.1C295.317,81.567 295.6,80.833 295.6,79.9L295.6,46.3C295.6,46.1 295.667,45.933 295.8,45.8L290.1,45.8C288.967,45.8 288,45.517 287.2,44.95C286.4,44.383 286,43.9 286,43.5L286,39.9C286,39.5 286.4,39.017 287.2,38.45C288,37.883 288.967,37.6 290.1,37.6L295.7,37.6Z" style="fill:none;fill-rule:nonzero;stroke:rgb(35,31,32);stroke-width:25px;"/>
    <text x="10px" y="90.1px" style="font-family:'Duvall-Bold', 'Duvall', fantasy;font-weight:700;font-size:100px;fill:white;">T<tspan x="97.6px 176.1px 218.3px 283.5px " y="90.1px 90.1px 90.1px 90.1px ">hief</tspan></text>
</svg>
