<?xml version="1.0" encoding="UTF-8" standalone="no"?>
<!DOCTYPE svg PUBLIC "-//W3C//DTD SVG 1.1//EN" "http://www.w3.org/Graphics/SVG/1.1/DTD/svg11.dtd">
<svg width="100%" height="100%" viewBox="0 0 248 51" version="1.1" xmlns="http://www.w3.org/2000/svg" xmlns:xlink="http://www.w3.org/1999/xlink" xml:space="preserve" xmlns:serif="http://www.serif.com/" style="fill-rule:evenodd;clip-rule:evenodd;stroke-linejoin:round;">
    <path d="M64.464,19.92C63.824,21.904 62.984,23.776 61.944,25.536C60.904,27.296 59.832,28.904 58.728,30.36C57.624,31.816 56.24,33.52 54.576,35.472L54.288,35.808C54.256,35.84 54.176,35.92 54.048,36.048C53.664,36.432 53.472,36.784 53.472,37.104C53.472,37.264 53.56,37.472 53.736,37.728C53.912,37.984 54.128,38.256 54.384,38.544C54.64,38.832 54.768,38.992 54.768,39.024C54.768,39.344 54.704,39.584 54.576,39.744C54.448,39.904 54.096,40.128 53.52,40.416C53.488,40.416 53.36,40.48 53.136,40.608C52.56,40.928 51.896,41.28 51.144,41.664C50.392,42.048 49.576,42.432 48.696,42.816C47.816,43.2 46.928,43.528 46.032,43.8C45.136,44.072 44.352,44.208 43.68,44.208C42.88,44.208 42.2,44.032 41.64,43.68C41.08,43.328 40.8,42.912 40.8,42.432C40.8,42.304 40.832,42.064 40.896,41.712C40.96,41.264 40.992,40.928 40.992,40.704C40.992,40.512 40.96,40.32 40.896,40.128L40.896,40.08L37.488,30.768C37.232,31.152 36.656,31.92 35.76,33.072C34.928,34.16 34.264,35.056 33.768,35.76C33.272,36.464 33.024,36.912 33.024,37.104C33.024,37.264 33.104,37.464 33.264,37.704C33.424,37.944 33.632,38.224 33.888,38.544C34.144,38.8 34.272,38.96 34.272,39.024C34.272,39.344 34.208,39.584 34.08,39.744C33.952,39.904 33.616,40.128 33.072,40.416C32.976,40.448 32.784,40.544 32.496,40.704C31.824,41.088 31.144,41.456 30.456,41.808C29.768,42.16 28.984,42.52 28.104,42.888C27.224,43.256 26.344,43.568 25.464,43.824C24.584,44.08 23.824,44.208 23.184,44.208C22.384,44.208 21.712,44.032 21.168,43.68C20.624,43.328 20.352,42.912 20.352,42.432C20.352,42.304 20.384,42.064 20.448,41.712C20.512,41.264 20.544,40.928 20.544,40.704C20.544,40.512 20.512,40.32 20.448,40.128L20.448,40.08L10.464,12.432C10.272,11.952 9.984,11.544 9.6,11.208C9.216,10.872 8.704,10.528 8.064,10.176C7.36,9.76 6.84,9.384 6.504,9.048C6.168,8.712 6,8.288 6,7.776C6,7.68 6.184,7.544 6.552,7.368C6.92,7.192 7.328,7.104 7.776,7.104L22.368,7.104C23.872,7.104 24.84,7.24 25.272,7.512C25.704,7.784 25.92,8.128 25.92,8.544C25.92,9.536 25.76,10.192 25.44,10.512C25.12,10.832 24.688,11.024 24.144,11.088C23.664,11.152 23.424,11.296 23.424,11.52L23.424,12.624C23.424,13.328 23.488,13.872 23.616,14.256L31.152,33.36C31.248,33.552 31.312,33.696 31.344,33.792C31.632,33.376 31.984,32.752 32.4,31.92C32.816,31.088 33.224,30.2 33.624,29.256C34.024,28.312 34.352,27.424 34.608,26.592C34.864,25.76 34.992,25.104 34.992,24.624C34.992,24.24 34.96,23.92 34.896,23.664C34.832,23.408 34.736,23.056 34.608,22.608L34.512,22.368L30.96,12.432C30.768,11.952 30.48,11.544 30.096,11.208C29.712,10.872 29.2,10.528 28.56,10.176C27.856,9.76 27.336,9.384 27,9.048C26.664,8.712 26.496,8.288 26.496,7.776C26.496,7.68 26.68,7.544 27.048,7.368C27.416,7.192 27.808,7.104 28.224,7.104L42.864,7.104C44.368,7.104 45.336,7.24 45.768,7.512C46.2,7.784 46.416,8.128 46.416,8.544C46.416,9.568 46.248,10.232 45.912,10.536C45.576,10.84 45.136,11.024 44.592,11.088C44.112,11.152 43.872,11.296 43.872,11.52L43.872,12.624C43.872,13.328 43.936,13.872 44.064,14.256L51.6,33.216C53.008,31.328 54.144,29.144 55.008,26.664C55.872,24.184 56.304,21.696 56.304,19.2C56.304,17.312 56.032,15.808 55.488,14.688C54.944,13.568 54.176,12.64 53.184,11.904C53.088,11.808 53.04,11.696 53.04,11.568C53.04,11.216 53.344,10.736 53.952,10.128C54.56,9.52 55.344,8.896 56.304,8.256C57.264,7.616 58.216,7.08 59.16,6.648C60.104,6.216 60.896,6 61.536,6C61.888,6 62.16,6.08 62.352,6.24C63.632,7.2 64.464,8.272 64.848,9.456C65.232,10.64 65.424,12.096 65.424,13.824C65.424,15.904 65.104,17.936 64.464,19.92Z" style="fill:none;fill-rule:nonzero;stroke:rgb(35,31,32);stroke-width:12px;"/>
    <path d="M94.464,38.736C94.464,39.312 94.56,39.728 94.752,39.984C94.944,40.24 95.232,40.496 95.616,40.752C95.968,41.008 96.232,41.256 96.408,41.496C96.584,41.736 96.688,42.112 96.72,42.624C96.72,42.976 96.584,43.264 96.312,43.488C96.04,43.712 95.472,43.824 94.608,43.824L87.216,43.824C86.672,43.824 86.224,43.736 85.872,43.56C85.52,43.384 85.256,43.168 85.08,42.912C84.904,42.656 84.792,42.44 84.744,42.264C84.696,42.088 84.672,41.952 84.672,41.856C84.352,41.856 83.776,42.096 82.944,42.576C82.208,43.056 81.496,43.432 80.808,43.704C80.12,43.976 79.312,44.112 78.384,44.112C75.632,44.112 73.288,43.52 71.352,42.336C69.416,41.152 68.448,39.488 68.448,37.344C68.448,35.68 68.864,34.248 69.696,33.048C70.528,31.848 71.672,30.864 73.128,30.096C74.584,29.328 76.232,28.768 78.072,28.416C79.912,28.064 81.856,27.888 83.904,27.888L84,27.888C83.872,27.76 83.808,27.552 83.808,27.264C83.808,27.232 83.792,26.848 83.76,26.112C83.728,24.544 83.592,23.376 83.352,22.608C83.112,21.84 82.592,21.456 81.792,21.456C81.408,21.456 81.056,21.6 80.736,21.888C80.416,22.176 80.016,22.656 79.536,23.328C78.768,24.384 78.016,25.2 77.28,25.776C76.544,26.352 75.584,26.64 74.4,26.64C73.248,26.64 72.272,26.448 71.472,26.064C70.672,25.68 70.056,25.16 69.624,24.504C69.192,23.848 68.888,23.136 68.712,22.368C68.536,21.6 68.448,20.8 68.448,19.968C68.448,19.616 68.6,19.288 68.904,18.984C69.208,18.68 69.68,18.528 70.32,18.528C70.448,18.528 70.608,18.536 70.8,18.552C70.992,18.568 71.168,18.624 71.328,18.72C71.552,18.816 71.872,18.96 72.288,19.152C73.024,19.472 73.6,19.632 74.016,19.632C74.624,19.632 75.568,19.456 76.848,19.104C77.808,18.848 78.704,18.648 79.536,18.504C80.368,18.36 81.296,18.288 82.32,18.288C83.92,18.288 85.448,18.488 86.904,18.888C88.36,19.288 89.656,19.848 90.792,20.568C91.928,21.288 92.824,22.104 93.48,23.016C94.136,23.928 94.464,24.864 94.464,25.824L94.464,38.736ZM83.544,39.096C83.72,38.888 83.808,38.432 83.808,37.728L83.808,30.96C83.808,30.384 83.936,30.08 84.192,30.048C82.976,30.112 81.88,30.624 80.904,31.584C79.928,32.544 79.44,33.92 79.44,35.712C79.44,37.12 79.696,38.088 80.208,38.616C80.72,39.144 81.504,39.408 82.56,39.408C83.04,39.408 83.368,39.304 83.544,39.096Z" style="fill:none;fill-rule:nonzero;stroke:rgb(35,31,32);stroke-width:12px;"/>
    <path d="M115.152,40.08C115.408,40.368 115.792,40.688 116.304,41.04C116.784,41.328 117.136,41.592 117.36,41.832C117.584,42.072 117.696,42.4 117.696,42.816C117.696,43.04 117.512,43.264 117.144,43.488C116.776,43.712 116.304,43.824 115.728,43.824L102.768,43.824C102.192,43.824 101.72,43.728 101.352,43.536C100.984,43.344 100.8,43.2 100.8,43.104C100.8,42.528 100.96,42.08 101.28,41.76C101.6,41.44 102.064,41.104 102.672,40.752C103.248,40.432 103.68,40.136 103.968,39.864C104.256,39.592 104.4,39.216 104.4,38.736L104.4,28.944C104.4,27.536 104.216,26.52 103.848,25.896C103.48,25.272 102.96,24.736 102.288,24.288C101.872,23.968 101.568,23.688 101.376,23.448C101.184,23.208 101.088,22.848 101.088,22.368C101.088,22.112 101.2,21.88 101.424,21.672C101.648,21.464 102.112,21.248 102.816,21.024C102.976,20.96 103.36,20.8 103.968,20.544C105.408,19.968 106.792,19.472 108.12,19.056C109.448,18.64 110.752,18.432 112.032,18.432C112.896,18.432 113.536,18.64 113.952,19.056C114.368,19.472 114.624,20.048 114.72,20.784C115.552,20.048 116.544,19.448 117.696,18.984C118.848,18.52 120.128,18.288 121.536,18.288C123.648,18.288 125.288,18.8 126.456,19.824C127.624,20.848 128.208,22.128 128.208,23.664C128.208,24.784 127.768,25.712 126.888,26.448C126.008,27.184 124.784,27.552 123.216,27.552C122.224,27.552 121.416,27.368 120.792,27C120.168,26.632 119.52,26.112 118.848,25.44C118.496,25.024 118.192,24.728 117.936,24.552C117.68,24.376 117.408,24.288 117.12,24.288C116.704,24.288 116.376,24.32 116.136,24.384C115.896,24.448 115.6,24.56 115.248,24.72C114.928,24.88 114.768,26.4 114.768,29.28L114.768,38.88C114.768,39.392 114.896,39.792 115.152,40.08Z" style="fill:none;fill-rule:nonzero;stroke:rgb(35,31,32);stroke-width:12px;"/>
    <path d="M146.159,40.08C146.415,40.368 146.799,40.688 147.311,41.04C147.791,41.328 148.143,41.592 148.367,41.832C148.591,42.072 148.703,42.4 148.703,42.816C148.703,43.04 148.519,43.264 148.151,43.488C147.783,43.712 147.311,43.824 146.735,43.824L133.775,43.824C133.199,43.824 132.727,43.728 132.359,43.536C131.991,43.344 131.807,43.2 131.807,43.104C131.807,42.528 131.967,42.08 132.287,41.76C132.607,41.44 133.071,41.104 133.679,40.752C134.255,40.432 134.687,40.136 134.975,39.864C135.263,39.592 135.407,39.216 135.407,38.736L135.407,28.944C135.407,27.536 135.223,26.52 134.855,25.896C134.487,25.272 133.967,24.736 133.295,24.288C132.879,23.968 132.575,23.688 132.383,23.448C132.191,23.208 132.095,22.848 132.095,22.368C132.095,22.112 132.207,21.88 132.431,21.672C132.655,21.464 133.119,21.248 133.823,21.024C133.983,20.96 134.367,20.8 134.975,20.544C136.415,19.968 137.799,19.472 139.127,19.056C140.455,18.64 141.759,18.432 143.039,18.432C143.903,18.432 144.543,18.64 144.959,19.056C145.375,19.472 145.631,20.048 145.727,20.784C146.559,20.048 147.551,19.448 148.703,18.984C149.855,18.52 151.135,18.288 152.543,18.288C154.655,18.288 156.295,18.8 157.463,19.824C158.631,20.848 159.215,22.128 159.215,23.664C159.215,24.784 158.775,25.712 157.895,26.448C157.015,27.184 155.791,27.552 154.223,27.552C153.231,27.552 152.423,27.368 151.799,27C151.175,26.632 150.527,26.112 149.855,25.44C149.503,25.024 149.199,24.728 148.943,24.552C148.687,24.376 148.415,24.288 148.127,24.288C147.711,24.288 147.383,24.32 147.143,24.384C146.903,24.448 146.607,24.56 146.255,24.72C145.935,24.88 145.775,26.4 145.775,29.28L145.775,38.88C145.775,39.392 145.903,39.792 146.159,40.08Z" style="fill:none;fill-rule:nonzero;stroke:rgb(35,31,32);stroke-width:12px;"/>
    <path d="M177.238,40.08C177.51,40.368 177.902,40.688 178.414,41.04C178.894,41.328 179.246,41.6 179.47,41.856C179.694,42.112 179.806,42.432 179.806,42.816C179.806,43.04 179.622,43.264 179.254,43.488C178.886,43.712 178.414,43.824 177.838,43.824L164.734,43.824C164.19,43.824 163.734,43.728 163.366,43.536C162.998,43.344 162.814,43.2 162.814,43.104C162.814,42.528 162.974,42.072 163.294,41.736C163.614,41.4 164.094,41.072 164.734,40.752C165.278,40.432 165.694,40.136 165.982,39.864C166.27,39.592 166.414,39.216 166.414,38.736L166.414,28.848C166.414,27.408 166.23,26.376 165.862,25.752C165.494,25.128 164.974,24.592 164.302,24.144C163.886,23.824 163.582,23.544 163.39,23.304C163.198,23.064 163.102,22.704 163.102,22.224C163.102,21.968 163.206,21.736 163.414,21.528C163.622,21.32 164.078,21.104 164.782,20.88C165.006,20.816 165.438,20.64 166.078,20.352C167.486,19.776 168.854,19.28 170.182,18.864C171.51,18.448 172.814,18.24 174.094,18.24C175.246,18.24 175.99,18.6 176.326,19.32C176.662,20.04 176.83,21.008 176.83,22.224L176.83,38.88C176.83,39.392 176.966,39.792 177.238,40.08ZM175.942,8.784C177.078,9.776 177.646,10.88 177.646,12.096C177.646,13.344 177.078,14.464 175.942,15.456C174.806,16.448 173.422,16.944 171.79,16.944C170.158,16.944 168.774,16.448 167.638,15.456C166.502,14.464 165.934,13.344 165.934,12.096C165.934,10.88 166.502,9.776 167.638,8.784C168.774,7.792 170.158,7.296 171.79,7.296C173.422,7.296 174.806,7.792 175.942,8.784Z" style="fill:none;fill-rule:nonzero;stroke:rgb(35,31,32);stroke-width:12px;"/>
    <path d="M202.774,19.008C204.422,19.712 205.846,20.68 207.046,21.912C208.246,23.144 209.166,24.552 209.806,26.136C210.446,27.72 210.766,29.36 210.766,31.056C210.766,32.72 210.382,34.352 209.614,35.952C208.846,37.552 207.774,39 206.398,40.296C205.022,41.592 203.454,42.608 201.694,43.344C199.934,44.08 198.094,44.448 196.174,44.448C194.286,44.448 192.51,44.112 190.846,43.44C189.182,42.768 187.734,41.832 186.502,40.632C185.27,39.432 184.31,38.056 183.622,36.504C182.934,34.952 182.59,33.344 182.59,31.68C182.59,30.24 182.862,28.864 183.406,27.552C183.95,26.24 184.678,25.088 185.59,24.096C186.502,23.104 187.47,22.328 188.494,21.768C189.518,21.208 190.494,20.928 191.422,20.928L191.422,20.88C191.422,20.784 191.558,20.576 191.83,20.256C192.102,19.936 192.502,19.6 193.03,19.248C193.558,18.896 194.206,18.592 194.974,18.336C195.742,18.08 196.574,17.952 197.47,17.952C199.358,17.952 201.126,18.304 202.774,19.008ZM198.766,24.864C198.542,25.056 198.43,25.536 198.43,26.304C198.43,26.816 198.574,27.456 198.862,28.224C198.99,28.544 199.054,28.752 199.054,28.848C199.054,28.944 198.862,29.088 198.478,29.28C198.094,29.472 197.678,29.568 197.23,29.568C195.79,29.568 194.622,29.36 193.726,28.944C192.83,28.528 192.158,28.016 191.71,27.408L191.71,28.128C191.71,29.152 191.878,30.168 192.214,31.176C192.55,32.184 193.03,33.096 193.654,33.912C194.278,34.728 195.038,35.376 195.934,35.856C196.83,36.336 197.822,36.576 198.91,36.576C200.638,36.576 202.038,36.04 203.11,34.968C204.182,33.896 204.718,32.384 204.718,30.432C204.718,28.448 204.318,26.976 203.518,26.016C202.718,25.056 201.55,24.576 200.014,24.576C199.406,24.576 198.99,24.672 198.766,24.864Z" style="fill:none;fill-rule:nonzero;stroke:rgb(35,31,32);stroke-width:12px;"/>
    <path d="M228.718,40.08C228.974,40.368 229.358,40.688 229.87,41.04C230.35,41.328 230.702,41.592 230.926,41.832C231.15,42.072 231.262,42.4 231.262,42.816C231.262,43.04 231.078,43.264 230.71,43.488C230.342,43.712 229.87,43.824 229.294,43.824L216.334,43.824C215.758,43.824 215.286,43.728 214.918,43.536C214.55,43.344 214.366,43.2 214.366,43.104C214.366,42.528 214.526,42.08 214.846,41.76C215.166,41.44 215.63,41.104 216.238,40.752C216.814,40.432 217.246,40.136 217.534,39.864C217.822,39.592 217.966,39.216 217.966,38.736L217.966,28.944C217.966,27.536 217.782,26.52 217.414,25.896C217.046,25.272 216.526,24.736 215.854,24.288C215.438,23.968 215.134,23.688 214.942,23.448C214.75,23.208 214.654,22.848 214.654,22.368C214.654,22.112 214.766,21.88 214.99,21.672C215.214,21.464 215.678,21.248 216.382,21.024C216.542,20.96 216.926,20.8 217.534,20.544C218.974,19.968 220.358,19.472 221.686,19.056C223.014,18.64 224.318,18.432 225.598,18.432C226.462,18.432 227.102,18.64 227.518,19.056C227.934,19.472 228.19,20.048 228.286,20.784C229.118,20.048 230.11,19.448 231.262,18.984C232.414,18.52 233.694,18.288 235.102,18.288C237.214,18.288 238.854,18.8 240.022,19.824C241.19,20.848 241.774,22.128 241.774,23.664C241.774,24.784 241.334,25.712 240.454,26.448C239.574,27.184 238.35,27.552 236.782,27.552C235.79,27.552 234.982,27.368 234.358,27C233.734,26.632 233.086,26.112 232.414,25.44C232.062,25.024 231.758,24.728 231.502,24.552C231.246,24.376 230.974,24.288 230.686,24.288C230.27,24.288 229.942,24.32 229.702,24.384C229.462,24.448 229.166,24.56 228.814,24.72C228.494,24.88 228.334,26.4 228.334,29.28L228.334,38.88C228.334,39.392 228.462,39.792 228.718,40.08Z" style="fill:none;fill-rule:nonzero;stroke:rgb(35,31,32);stroke-width:12px;"/>
    <text x="4.8px" y="43.824px" style="font-family:'Duvall-Bold', 'Duvall', fantasy;font-weight:700;font-size:48px;fill:white;">W<tspan x="67.248px 99.6px 130.608px 161.616px 181.392px 213.168px " y="43.824px 43.824px 43.824px 43.824px 43.824px 43.824px ">arrior</tspan></text>
</svg>
